<svg width="34" height="34" viewBox="0 0 34 34" fill="none" xmlns="http://www.w3.org/2000/svg">
<g clip-path="url(#clip0_149_188)">
<path d="M15.8739 11.3101H13.2388C11.8932 11.2919 10.5833 11.7364 9.53505 12.5669C8.48684 13.3975 7.76605 14.5621 7.49702 15.8598H2.00488V17.6796H7.48778C7.75208 18.9813 8.47287 20.1501 9.52414 20.9818C10.5754 21.8135 11.8902 22.255 13.2388 22.2293H15.8739V11.3101Z" fill="#228439"/>
<path d="M26.2572 15.8598C25.9876 14.559 25.2641 13.392 24.2121 12.5611C23.16 11.7302 21.8457 11.2876 20.497 11.3101H17.7231V22.2293H20.497C21.8455 22.2551 23.1604 21.8135 24.2116 20.9818C25.2629 20.1502 25.9837 18.9813 26.248 17.6797H31.5922V15.8598H26.2572Z" fill="#228439"/>
</g>
<defs>
<clipPath id="clip0_149_188">
<rect width="33.2857" height="32.7575" fill="white" transform="translate(0.15564 0.390869)"/>
</clipPath>
</defs>
</svg>
