<svg width="1480" height="1412" viewBox="0 0 1480 1412" fill="none" xmlns="http://www.w3.org/2000/svg">
<path d="M1479.43 677.637C1479.54 680.292 1479.63 682.951 1479.71 685.613L1478.71 685.643C1478.79 688.301 1478.85 690.964 1478.89 693.63L1479.89 693.612C1479.94 696.283 1479.97 698.956 1479.99 701.634H1479.99L1478.99 701.64C1479 702.976 1479 704.313 1479 705.651C1479 706.99 1479 708.327 1478.99 709.664L1479.99 709.669C1479.97 712.346 1479.94 715.02 1479.89 717.689L1478.89 717.673C1478.85 720.339 1478.79 723.002 1478.71 725.66L1479.71 725.688C1479.63 728.351 1479.54 731.011 1479.43 733.666L1478.43 733.626C1478.32 736.277 1478.2 738.925 1478.06 741.568L1479.05 741.62C1478.91 744.294 1478.75 746.965 1478.58 749.631L1477.59 749.567C1477.42 752.231 1477.23 754.89 1477.03 757.545L1478.02 757.62C1477.82 760.28 1477.6 762.935 1477.37 765.586L1476.37 765.499C1476.14 768.146 1475.89 770.789 1475.63 773.428L1476.62 773.527C1476.36 776.181 1476.07 778.83 1475.78 781.475L1474.79 781.364C1474.49 784.018 1474.18 786.668 1473.85 789.312L1474.84 789.435C1474.51 792.083 1474.16 794.728 1473.81 797.367L1472.82 797.233C1472.46 799.869 1472.09 802.501 1471.7 805.128L1472.68 805.273C1472.29 807.904 1471.89 810.53 1471.47 813.151L1470.48 812.994C1470.06 815.632 1469.62 818.265 1469.17 820.893L1470.15 821.062C1469.7 823.693 1469.23 826.32 1468.74 828.941L1467.77 828.761C1467.28 831.379 1466.78 833.992 1466.27 836.6L1467.25 836.792C1466.73 839.404 1466.2 842.011 1465.66 844.612L1464.68 844.408C1464.14 847.016 1463.58 849.619 1463 852.216L1463.98 852.431C1463.4 855.039 1462.8 857.642 1462.19 860.239L1461.22 860.012C1460.61 862.605 1459.99 865.193 1459.35 867.775L1460.32 868.015C1459.68 870.601 1459.03 873.181 1458.36 875.756L1457.4 875.507C1456.73 878.081 1456.05 880.649 1455.35 883.212L1456.31 883.474C1455.61 886.051 1454.9 888.623 1454.16 891.189L1453.2 890.917C1452.47 893.479 1451.73 896.035 1450.97 898.586L1451.93 898.871C1451.17 901.426 1450.39 903.974 1449.6 906.517L1448.65 906.221C1447.86 908.76 1447.06 911.293 1446.24 913.819L1447.18 914.125C1446.36 916.664 1445.53 919.198 1444.67 921.725L1443.73 921.408C1442.88 923.933 1442.02 926.452 1441.14 928.965L1442.08 929.293C1441.2 931.81 1440.3 934.321 1439.39 936.825L1438.45 936.484C1437.55 938.984 1436.62 941.479 1435.69 943.966L1436.62 944.317C1435.68 946.812 1434.73 949.3 1433.76 951.781L1432.83 951.419C1431.86 953.901 1430.88 956.378 1429.88 958.847L1430.8 959.22C1429.81 961.692 1428.79 964.157 1427.77 966.616L1426.85 966.233C1425.82 968.689 1424.78 971.137 1423.73 973.579L1424.64 973.974C1423.59 976.42 1422.52 978.859 1421.44 981.291L1420.53 980.887C1419.44 983.32 1418.35 985.747 1417.24 988.167L1418.14 988.584C1417.03 991.007 1415.9 993.423 1414.76 995.832L1413.86 995.405C1412.72 997.811 1411.57 1000.21 1410.4 1002.6L1411.3 1003.04C1410.13 1005.43 1408.95 1007.82 1407.75 1010.2L1406.86 1009.75C1405.67 1012.13 1404.46 1014.5 1403.24 1016.87L1404.12 1017.32C1402.9 1019.69 1401.66 1022.05 1400.41 1024.41L1399.53 1023.94C1398.28 1026.29 1397.01 1028.63 1395.74 1030.97L1396.61 1031.45C1395.34 1033.79 1394.04 1036.12 1392.74 1038.44L1391.87 1037.95C1390.57 1040.27 1389.25 1042.58 1387.92 1044.89L1388.79 1045.39C1387.45 1047.7 1386.11 1050 1384.75 1052.29L1383.89 1051.78C1382.53 1054.07 1381.16 1056.36 1379.78 1058.63L1380.63 1059.15C1379.25 1061.43 1377.85 1063.7 1376.44 1065.96L1375.59 1065.43C1374.19 1067.69 1372.76 1069.94 1371.33 1072.18L1372.17 1072.72C1370.73 1074.96 1369.29 1077.2 1367.82 1079.43L1366.99 1078.88C1365.53 1081.11 1364.06 1083.32 1362.57 1085.53L1363.4 1086.09C1361.91 1088.3 1360.41 1090.5 1358.9 1092.7L1358.08 1092.13C1356.57 1094.32 1355.05 1096.51 1353.51 1098.68L1354.33 1099.26C1352.79 1101.44 1351.24 1103.6 1349.68 1105.76L1348.87 1105.18C1347.31 1107.34 1345.74 1109.48 1344.16 1111.62L1344.96 1112.22C1343.37 1114.36 1341.78 1116.49 1340.17 1118.62L1339.37 1118.02C1337.77 1120.14 1336.15 1122.25 1334.51 1124.35L1335.3 1124.96C1333.67 1127.07 1332.02 1129.17 1330.37 1131.25L1329.58 1130.63C1327.93 1132.72 1326.26 1134.79 1324.59 1136.86L1325.36 1137.49C1323.68 1139.56 1321.99 1141.61 1320.28 1143.67L1319.52 1143.03C1317.82 1145.08 1316.1 1147.11 1314.38 1149.14L1315.14 1149.79C1313.41 1151.82 1311.67 1153.84 1309.92 1155.85L1309.17 1155.2C1307.43 1157.21 1305.67 1159.2 1303.9 1161.19L1304.65 1161.86C1302.88 1163.85 1301.1 1165.83 1299.3 1167.8L1298.56 1167.13C1296.77 1169.1 1294.97 1171.06 1293.16 1173.01L1293.89 1173.69C1292.07 1175.64 1290.25 1177.58 1288.41 1179.52L1287.69 1178.83C1285.85 1180.76 1284.01 1182.68 1282.16 1184.58L1282.87 1185.28C1281.01 1187.19 1279.15 1189.09 1277.27 1190.98L1276.56 1190.28C1274.69 1192.17 1272.8 1194.04 1270.9 1195.91L1271.6 1196.62C1269.7 1198.49 1267.79 1200.35 1265.87 1202.21L1265.18 1201.49C1263.26 1203.33 1261.34 1205.17 1259.4 1206.99L1260.08 1207.72C1258.14 1209.55 1256.2 1211.36 1254.24 1213.17L1253.56 1212.43C1251.6 1214.24 1249.64 1216.03 1247.66 1217.81L1248.33 1218.55C1246.35 1220.34 1244.36 1222.11 1242.36 1223.88L1241.7 1223.13C1239.7 1224.89 1237.69 1226.64 1235.68 1228.38L1236.33 1229.14C1234.31 1230.88 1232.29 1232.61 1230.25 1234.32L1229.61 1233.56C1227.58 1235.28 1225.53 1236.98 1223.48 1238.68L1224.12 1239.45C1222.06 1241.15 1219.99 1242.83 1217.92 1244.51L1217.29 1243.73C1215.22 1245.4 1213.14 1247.07 1211.05 1248.72L1211.66 1249.5C1209.57 1251.15 1207.48 1252.79 1205.37 1254.42L1204.76 1253.63C1202.65 1255.25 1200.54 1256.87 1198.42 1258.47L1199.02 1259.27C1196.89 1260.87 1194.75 1262.47 1192.61 1264.05L1192.02 1263.25C1189.87 1264.83 1187.72 1266.4 1185.56 1267.96L1186.14 1268.77C1183.98 1270.33 1181.81 1271.88 1179.64 1273.42L1179.06 1272.6C1176.89 1274.13 1174.71 1275.65 1172.52 1277.16L1173.08 1277.98C1170.89 1279.5 1168.69 1281 1166.48 1282.49L1165.92 1281.66C1163.71 1283.15 1161.49 1284.62 1159.27 1286.09L1159.82 1286.92C1157.59 1288.39 1155.35 1289.84 1153.11 1291.29L1152.57 1290.45C1150.33 1291.88 1148.09 1293.31 1145.84 1294.72L1146.37 1295.57C1144.11 1296.98 1141.85 1298.39 1139.57 1299.78L1139.05 1298.93C1136.78 1300.32 1134.51 1301.7 1132.22 1303.07L1132.73 1303.92C1130.44 1305.29 1128.14 1306.65 1125.84 1307.99L1125.34 1307.13C1123.04 1308.47 1120.74 1309.8 1118.42 1311.12L1118.92 1311.99C1116.6 1313.3 1114.28 1314.61 1111.95 1315.9L1111.47 1315.03C1109.14 1316.32 1106.81 1317.6 1104.47 1318.87L1104.94 1319.75C1102.6 1321.02 1100.25 1322.28 1097.88 1323.52L1097.42 1322.64C1095.07 1323.88 1092.7 1325.11 1090.33 1326.33L1090.79 1327.22C1088.42 1328.43 1086.05 1329.64 1083.67 1330.83L1083.22 1329.94C1080.85 1331.13 1078.46 1332.31 1076.07 1333.48L1076.5 1334.37C1074.11 1335.54 1071.71 1336.7 1069.29 1337.84L1068.87 1336.94C1066.46 1338.08 1064.04 1339.21 1061.62 1340.33L1062.04 1341.24C1059.62 1342.35 1057.2 1343.45 1054.77 1344.54L1054.36 1343.63C1051.94 1344.72 1049.51 1345.8 1047.07 1346.86L1047.47 1347.78C1045.02 1348.84 1042.58 1349.89 1040.12 1350.93L1039.73 1350.01C1037.28 1351.05 1034.82 1352.08 1032.35 1353.09L1032.73 1354.02C1030.27 1355.03 1027.79 1356.03 1025.32 1357.02L1024.95 1356.09C1022.48 1357.08 1020.01 1358.05 1017.53 1359L1017.89 1359.93C1015.4 1360.89 1012.91 1361.84 1010.42 1362.78L1010.07 1361.84C1007.57 1362.78 1005.07 1363.7 1002.57 1364.6L1002.91 1365.54C1000.4 1366.45 997.88 1367.35 995.357 1368.23L995.027 1367.29C992.522 1368.17 990.011 1369.03 987.493 1369.89L987.812 1370.83C985.293 1371.68 982.767 1372.52 980.234 1373.35L979.926 1372.41C977.397 1373.23 974.862 1374.05 972.321 1374.85L972.621 1375.8C970.076 1376.6 967.526 1377.39 964.969 1378.17L964.68 1377.21C962.133 1377.99 959.581 1378.75 957.022 1379.49L957.302 1380.45C954.751 1381.2 952.195 1381.93 949.633 1382.65L949.363 1381.69C946.804 1382.41 944.238 1383.11 941.668 1383.81L941.928 1384.77C939.354 1385.47 936.775 1386.15 934.189 1386.82L933.939 1385.85C931.358 1386.52 928.77 1387.17 926.178 1387.81L926.417 1388.78C923.837 1389.42 921.252 1390.04 918.661 1390.65L918.432 1389.68C915.847 1390.29 913.258 1390.89 910.663 1391.47L910.882 1392.45C908.283 1393.03 905.68 1393.61 903.071 1394.17L902.863 1393.19C900.258 1393.75 897.647 1394.29 895.031 1394.82L895.229 1395.8C892.616 1396.33 889.998 1396.85 887.374 1397.35L887.186 1396.38C884.582 1396.88 881.973 1397.36 879.359 1397.84L879.537 1398.82C876.92 1399.3 874.298 1399.76 871.671 1400.21L871.503 1399.22C868.879 1399.67 866.251 1400.11 863.618 1400.53L863.775 1401.51C861.139 1401.94 858.498 1402.35 855.852 1402.74L855.705 1401.76C853.078 1402.15 850.446 1402.53 847.809 1402.9L847.946 1403.88C845.315 1404.25 842.68 1404.6 840.04 1404.94L839.914 1403.95C837.278 1404.29 834.636 1404.62 831.991 1404.93L832.107 1405.92C829.459 1406.23 826.806 1406.53 824.149 1406.82L824.043 1405.83C821.389 1406.11 818.731 1406.38 816.069 1406.64L816.165 1407.64C813.525 1407.89 810.88 1408.14 808.232 1408.37L808.147 1407.37C805.503 1407.6 802.855 1407.82 800.203 1408.02L800.278 1409.01C797.623 1409.22 794.964 1409.41 792.301 1409.59L792.236 1408.59C789.576 1408.77 786.912 1408.93 784.245 1409.08L784.3 1410.07C781.636 1410.22 778.969 1410.36 776.299 1410.48L776.254 1409.48C773.608 1409.61 770.959 1409.71 768.306 1409.81L768.34 1410.8C765.683 1410.9 763.023 1410.98 760.359 1411.05L760.335 1410.05C757.675 1410.12 755.011 1410.17 752.344 1410.21L752.357 1411.21C749.687 1411.25 747.013 1411.28 744.336 1411.29L744.332 1410.29C742.995 1410.3 741.657 1410.3 740.318 1410.3C738.98 1410.3 737.641 1410.3 736.305 1410.29L736.3 1411.29C733.622 1411.28 730.949 1411.25 728.278 1411.21L728.293 1410.21C725.626 1410.17 722.962 1410.12 720.302 1410.05L720.276 1411.05C717.613 1410.98 714.952 1410.9 712.296 1410.8L712.331 1409.81C709.678 1409.71 707.028 1409.61 704.383 1409.48L704.337 1410.48C701.666 1410.36 698.999 1410.22 696.336 1410.07L696.391 1409.08C693.724 1408.93 691.061 1408.77 688.401 1408.59L688.335 1409.59C685.672 1409.41 683.013 1409.22 680.357 1409.01L680.433 1408.02C677.782 1407.82 675.134 1407.6 672.49 1407.37L672.403 1408.37C669.755 1408.14 667.111 1407.89 664.472 1407.64L664.568 1406.64C661.906 1406.38 659.247 1406.11 656.594 1405.83L656.487 1406.82C653.83 1406.53 651.177 1406.23 648.528 1405.92L648.645 1404.93C646 1404.62 643.36 1404.29 640.724 1403.95L640.596 1404.94C637.956 1404.6 635.32 1404.25 632.689 1403.89L632.827 1402.9C630.191 1402.53 627.559 1402.15 624.932 1401.76L624.784 1402.74C622.138 1402.35 619.497 1401.94 616.86 1401.51L617.018 1400.53C614.385 1400.11 611.757 1399.67 609.134 1399.22L608.966 1400.21C606.338 1399.76 603.716 1399.3 601.099 1398.82L601.277 1397.84C598.664 1397.36 596.055 1396.88 593.451 1396.38L593.262 1397.35C590.638 1396.85 588.02 1396.33 585.406 1395.8L585.605 1394.82C582.99 1394.29 580.379 1393.75 577.774 1393.19L577.564 1394.17C574.955 1393.61 572.352 1393.03 569.754 1392.45L569.974 1391.48C567.379 1390.89 564.789 1390.29 562.205 1389.68L561.975 1390.65C559.385 1390.04 556.799 1389.42 554.22 1388.78L554.46 1387.81C551.867 1387.17 549.279 1386.52 546.697 1385.85L546.447 1386.82C543.862 1386.15 541.282 1385.47 538.708 1384.77L538.969 1383.81C536.398 1383.12 533.833 1382.41 531.274 1381.69L531.004 1382.65C528.441 1381.93 525.885 1381.2 523.334 1380.45L523.614 1379.5C521.056 1378.75 518.504 1377.99 515.958 1377.21L515.667 1378.17C513.11 1377.39 510.56 1376.6 508.016 1375.8L508.316 1374.85C505.775 1374.05 503.24 1373.23 500.712 1372.41L500.401 1373.35C497.869 1372.52 495.344 1371.68 492.824 1370.83L493.143 1369.89C490.626 1369.04 488.114 1368.17 485.609 1367.29L485.278 1368.23C482.756 1367.35 480.239 1366.45 477.729 1365.54L478.07 1364.61C475.564 1363.7 473.064 1362.78 470.57 1361.84L470.22 1362.78C467.723 1361.84 465.234 1360.89 462.751 1359.93L463.11 1359C460.63 1358.05 458.157 1357.08 455.69 1356.09L455.32 1357.02C452.842 1356.03 450.37 1355.03 447.905 1354.02L448.285 1353.09C445.818 1352.08 443.358 1351.05 440.905 1350.01L440.516 1350.93C438.059 1349.89 435.611 1348.84 433.169 1347.78L433.567 1346.86C431.129 1345.8 428.697 1344.72 426.272 1343.63L425.864 1344.54C423.434 1343.45 421.012 1342.35 418.597 1341.24L419.015 1340.33C416.592 1339.21 414.177 1338.08 411.769 1336.94L411.341 1337.84C408.93 1336.7 406.527 1335.54 404.131 1334.37L404.568 1333.48C402.176 1332.31 399.79 1331.13 397.413 1329.94L396.967 1330.83C394.586 1329.64 392.212 1328.43 389.847 1327.22L390.304 1326.33C387.934 1325.11 385.571 1323.88 383.217 1322.64L382.751 1323.52C380.39 1322.28 378.036 1321.02 375.691 1319.75L376.167 1318.87C373.825 1317.6 371.492 1316.32 369.166 1315.03L368.681 1315.9C366.352 1314.61 364.031 1313.3 361.719 1311.99L362.213 1311.12C359.9 1309.8 357.596 1308.47 355.3 1307.13L354.797 1307.99C352.491 1306.65 350.193 1305.29 347.904 1303.92L348.416 1303.07C346.13 1301.7 343.852 1300.32 341.583 1298.93L341.06 1299.78C338.788 1298.39 336.524 1296.98 334.268 1295.57L334.801 1294.72C332.548 1293.31 330.304 1291.88 328.069 1290.45L327.53 1291.29C325.284 1289.84 323.047 1288.39 320.819 1286.92L321.368 1286.09C319.142 1284.62 316.925 1283.15 314.717 1281.66L314.159 1282.49C311.948 1281 309.746 1279.5 307.553 1277.98L308.119 1277.16C305.929 1275.65 303.747 1274.13 301.575 1272.6L300.999 1273.42C298.82 1271.88 296.651 1270.33 294.49 1268.77L295.075 1267.96C292.914 1266.4 290.762 1264.83 288.62 1263.25L288.027 1264.05C285.882 1262.47 283.746 1260.87 281.619 1259.27L282.221 1258.47C280.097 1256.87 277.982 1255.25 275.878 1253.63L275.267 1254.42C273.159 1252.79 271.06 1251.15 268.971 1249.5L269.59 1248.72C267.498 1247.07 265.416 1245.4 263.344 1243.73L262.715 1244.51C260.64 1242.83 258.575 1241.15 256.519 1239.45L257.155 1238.68C255.103 1236.98 253.06 1235.28 251.027 1233.56L250.384 1234.33C248.348 1232.61 246.323 1230.88 244.307 1229.14L244.959 1228.38C242.942 1226.64 240.935 1224.89 238.938 1223.13L238.279 1223.88C236.278 1222.11 234.288 1220.34 232.307 1218.55L232.976 1217.81C230.999 1216.03 229.032 1214.24 227.076 1212.43L226.399 1213.17C224.44 1211.36 222.49 1209.55 220.552 1207.72L221.238 1206.99C219.301 1205.17 217.373 1203.33 215.457 1201.49L214.765 1202.21C212.843 1200.35 210.933 1198.49 209.033 1196.62L209.733 1195.91C207.836 1194.04 205.949 1192.17 204.073 1190.28L203.366 1190.98C201.488 1189.09 199.62 1187.19 197.764 1185.28L198.479 1184.58C196.625 1182.68 194.781 1180.76 192.949 1178.83L192.225 1179.52C190.388 1177.58 188.56 1175.64 186.744 1173.69L187.476 1173.01C185.663 1171.06 183.862 1169.1 182.071 1167.13L181.331 1167.8C179.538 1165.83 177.757 1163.85 175.986 1161.86L176.733 1161.19C174.965 1159.2 173.208 1157.21 171.463 1155.2L170.711 1155.85C168.961 1153.84 167.223 1151.82 165.497 1149.79L166.257 1149.14C164.532 1147.11 162.819 1145.08 161.118 1143.03L160.35 1143.67C158.647 1141.61 156.953 1139.56 155.273 1137.49L156.05 1136.86C154.372 1134.79 152.706 1132.72 151.052 1130.63L150.267 1131.26C148.61 1129.17 146.966 1127.07 145.333 1124.96L146.123 1124.35C144.491 1122.25 142.871 1120.14 141.264 1118.02L140.468 1118.62C138.858 1116.49 137.26 1114.36 135.675 1112.22L136.476 1111.62C134.893 1109.48 133.322 1107.34 131.763 1105.18L130.954 1105.76C129.393 1103.6 127.843 1101.44 126.307 1099.26L127.123 1098.68C125.588 1096.51 124.065 1094.33 122.556 1092.13L121.732 1092.7C120.22 1090.5 118.719 1088.3 117.232 1086.09H117.233L118.062 1085.53C116.577 1083.32 115.105 1081.11 113.645 1078.88L112.81 1079.43C111.349 1077.2 109.901 1074.96 108.465 1072.72L109.305 1072.18C107.871 1069.94 106.449 1067.69 105.041 1065.43L104.195 1065.96C102.785 1063.69 101.387 1061.43 100.003 1059.15L100.854 1058.63C99.4719 1056.36 98.1025 1054.07 96.746 1051.78L95.8876 1052.29C94.5291 1050 93.1827 1047.7 91.8505 1045.39L92.7157 1044.89C91.386 1042.58 90.0698 1040.27 88.7665 1037.95L87.8944 1038.44C86.5899 1036.12 85.3003 1033.79 84.0223 1031.45L84.8973 1030.97C83.6212 1028.63 82.3586 1026.29 81.1093 1023.94L80.2284 1024.41C78.9772 1022.05 77.7397 1019.69 76.5155 1017.33L77.4003 1016.87C76.1781 1014.5 74.9694 1012.13 73.7743 1009.75L72.8827 1010.2C71.6876 1007.82 70.5057 1005.43 69.3378 1003.04L70.2343 1002.6C69.0679 1000.21 67.9152 997.811 66.7762 995.405L65.8729 995.832C64.7323 993.423 63.605 991.007 62.4921 988.584L63.4012 988.168C62.2898 985.748 61.1919 983.321 60.1083 980.887L59.1962 981.292C58.1132 978.86 57.0452 976.42 55.9901 973.974L56.9061 973.58C55.853 971.138 54.8141 968.689 53.7889 966.233L52.868 966.617C51.8414 964.158 50.8283 961.692 49.83 959.22L50.7557 958.847C49.7589 956.378 48.7759 953.902 47.8075 951.42L46.8768 951.782C45.9085 949.3 44.9533 946.812 44.0135 944.317L44.9491 943.966C44.0122 941.479 43.0898 938.984 42.1815 936.484L41.243 936.825C40.3335 934.322 39.4392 931.811 38.5585 929.295L39.4999 928.966C38.6204 926.453 37.7557 923.933 36.9052 921.408L35.9598 921.726C35.1087 919.199 34.272 916.665 33.4501 914.126L34.3983 913.819C33.5805 911.293 32.7779 908.759 31.9891 906.221L31.035 906.517C30.245 903.974 29.4686 901.426 28.7079 898.871L29.6659 898.587C28.9064 896.036 28.1616 893.479 27.4315 890.917L26.4716 891.19C25.7403 888.624 25.0246 886.052 24.3231 883.474L25.286 883.213C24.5886 880.65 23.906 878.081 23.2382 875.507L22.2733 875.757C21.6052 873.182 20.9517 870.601 20.3134 868.015L21.2811 867.776C20.6437 865.194 20.0215 862.605 19.4139 860.012L18.4413 860.239C17.8328 857.642 17.2384 855.04 16.66 852.432L17.6356 852.216C17.0597 849.619 16.4988 847.017 15.953 844.409L14.9764 844.613C14.4318 842.012 13.9031 839.405 13.3885 836.793L14.3671 836.601C13.8533 833.993 13.3545 831.38 12.871 828.762L11.8905 828.942C11.4062 826.32 10.9362 823.693 10.4823 821.062L11.4657 820.893C11.0125 818.265 10.5748 815.632 10.1522 812.994L9.16394 813.151C8.74399 810.53 8.34068 807.904 7.95105 805.273L8.93933 805.128C8.55028 802.501 8.17587 799.87 7.81726 797.234L6.82898 797.368C6.46981 794.728 6.12622 792.084 5.79773 789.435L6.78796 789.312C6.45997 786.668 6.14668 784.018 5.84949 781.364L4.8573 781.475C4.56113 778.83 4.27803 776.181 4.01257 773.527L5.00867 773.428C4.7447 770.789 4.49595 768.146 4.26257 765.499L3.26843 765.586C3.03473 762.935 2.81801 760.28 2.61511 757.621L3.60828 757.546C3.40566 754.891 3.21843 752.231 3.04675 749.567L2.05164 749.631C1.87977 746.965 1.72167 744.294 1.58093 741.62L2.57898 741.568C2.43985 738.925 2.31541 736.277 2.20691 733.626L1.20789 733.666C1.09921 731.011 1.00641 728.351 0.928589 725.688L1.92761 725.66C1.84991 723.002 1.78784 720.339 1.74109 717.673L0.741089 717.689C0.694276 715.02 0.663959 712.346 0.648315 709.669L1.64734 709.664C1.63953 708.327 1.63562 706.99 1.63562 705.651C1.63562 704.313 1.63953 702.975 1.64734 701.639L0.648315 701.633C0.663965 698.956 0.69427 696.282 0.741089 693.612L1.74109 693.63C1.78784 690.964 1.8499 688.301 1.92761 685.643L0.928589 685.613C1.00641 682.951 1.09923 680.292 1.20789 677.637L2.20691 677.678C2.31541 675.027 2.43985 672.379 2.57898 669.735L1.58093 669.683C1.72167 667.008 1.87977 664.338 2.05164 661.672L3.04675 661.736C3.21843 659.073 3.40566 656.413 3.60828 653.758L2.61511 653.682C2.81801 651.023 3.03473 648.368 3.26843 645.717L4.26257 645.805C4.49594 643.158 4.74471 640.515 5.00867 637.876L4.01355 637.776L4.01257 637.775C4.27803 635.122 4.56112 632.473 4.8573 629.828L5.84949 629.939C6.14667 627.286 6.459 624.636 6.78699 621.991L5.79773 621.868C6.12623 619.219 6.46981 616.575 6.82898 613.935L7.81726 614.069C8.17586 611.434 8.55028 608.802 8.93933 606.176L7.95105 606.029C8.33891 603.411 8.74018 600.797 9.15808 598.188L9.16394 598.151L10.1512 598.31C10.5738 595.672 11.0125 593.039 11.4657 590.411L10.4823 590.241C10.9362 587.609 11.4052 584.982 11.8895 582.36L12.871 582.542C13.3545 579.924 13.8523 577.311 14.3661 574.703L13.3885 574.51C13.903 571.898 14.4319 569.292 14.9764 566.69L15.953 566.895C16.4988 564.287 17.0597 561.685 17.6356 559.088L16.66 558.871C17.2384 556.263 17.8319 553.661 18.4403 551.063L19.413 551.292C20.0205 548.699 20.6437 546.11 21.2811 543.527L20.3124 543.288C20.9508 540.702 21.6052 538.121 22.2733 535.546L23.2382 535.797C23.906 533.223 24.5886 530.654 25.286 528.091L24.3231 527.829C25.0246 525.251 25.7403 522.679 26.4716 520.112L27.4315 520.387C28.1616 517.824 28.9064 515.268 29.6659 512.717L28.7079 512.432C29.4686 509.877 30.245 507.329 31.035 504.786L31.9882 505.083C32.7769 502.544 33.5805 500.011 34.3983 497.484L33.4501 497.177C34.272 494.637 35.1087 492.104 35.9598 489.577L36.9052 489.896C37.7557 487.37 38.6204 484.851 39.4999 482.338L38.5585 482.009C39.4393 479.492 40.3334 476.981 41.243 474.478L42.1815 474.819C43.0898 472.319 44.0122 469.825 44.9491 467.338L44.0135 466.985C44.9533 464.49 45.9085 462.002 46.8768 459.521L47.8075 459.884C48.7759 457.402 49.7579 454.926 50.7548 452.457L49.83 452.083C50.8283 449.61 51.8414 447.145 52.868 444.686L53.788 445.07C54.8131 442.615 55.853 440.166 56.9061 437.724L55.9901 437.329C57.0452 434.883 58.1132 432.443 59.1962 430.011L60.1083 430.417C61.1919 427.983 62.2889 425.556 63.4003 423.136L62.4921 422.719C63.037 421.532 63.585 420.347 64.1366 419.164L65.8729 415.47L66.7762 415.898C67.9152 413.493 69.0679 411.094 70.2343 408.703L69.3368 408.265C70.5047 405.87 71.6875 403.484 72.8827 401.104L73.7743 401.552C74.9694 399.172 76.1781 396.8 77.4003 394.436L76.5155 393.978C77.7399 391.609 78.9771 389.247 80.2284 386.894L81.1093 387.362C82.3587 385.012 83.6211 382.669 84.8973 380.334L84.0214 379.854C85.2994 377.516 86.5898 375.185 87.8944 372.862L88.7665 373.353C90.0698 371.032 91.386 368.719 92.7157 366.414L91.8505 365.914C93.1826 363.605 94.5292 361.304 95.8876 359.011L96.746 359.52C98.1024 357.229 99.4719 354.947 100.854 352.673L100.002 352.154C101.386 349.877 102.785 347.608 104.195 345.347L105.041 345.874C106.449 343.616 107.871 341.367 109.305 339.125L108.464 338.587C109.9 336.341 111.349 334.104 112.81 331.875L113.645 332.423C115.105 330.197 116.577 327.98 118.062 325.771L117.232 325.213C118.72 323.001 120.22 320.798 121.732 318.603L122.556 319.17C124.065 316.978 125.588 314.795 127.123 312.62L126.307 312.044C127.844 309.867 129.393 307.699 130.954 305.539L131.763 306.123C133.321 303.966 134.893 301.819 136.476 299.68L135.675 299.087C137.26 296.944 138.858 294.81 140.468 292.686L141.264 293.288C142.871 291.167 144.49 289.054 146.122 286.95L145.333 286.338C146.966 284.232 148.61 282.135 150.267 280.047L151.051 280.669C152.705 278.585 154.371 276.51 156.049 274.444L155.273 273.815C156.954 271.747 158.647 269.687 160.35 267.637L161.118 268.274C162.819 266.227 164.532 264.189 166.257 262.16L165.496 261.515C167.222 259.484 168.96 257.462 170.71 255.45L171.463 256.104C173.208 254.097 174.965 252.099 176.733 250.11L175.986 249.447C177.757 247.456 179.538 245.473 181.331 243.501L182.071 244.174C183.862 242.204 185.663 240.244 187.476 238.294L186.744 237.613C188.56 235.66 190.388 233.719 192.225 231.785L192.949 232.473C194.781 230.545 196.625 228.627 198.479 226.719L197.764 226.023C199.62 224.113 201.488 222.213 203.366 220.322L204.073 221.025C205.949 219.137 207.836 217.259 209.733 215.391L209.033 214.681C210.933 212.81 212.843 210.948 214.765 209.098L215.457 209.816C217.373 207.971 219.3 206.135 221.237 204.31L220.552 203.582C222.49 201.756 224.439 199.941 226.398 198.135L227.076 198.869C229.032 197.066 230.999 195.272 232.976 193.489L232.307 192.748C234.287 190.963 236.278 189.188 238.278 187.423L238.938 188.172C240.935 186.411 242.942 184.659 244.959 182.919L244.307 182.164C246.323 180.425 248.347 178.696 250.383 176.979L251.027 177.74C253.06 176.025 255.103 174.32 257.155 172.625L256.518 171.854C258.574 170.157 260.639 168.471 262.715 166.795L263.343 167.573C265.415 165.9 267.498 164.237 269.59 162.585L268.971 161.802C271.06 160.152 273.16 158.513 275.268 156.885L275.878 157.675C277.982 156.05 280.096 154.435 282.22 152.831L281.618 152.035C283.745 150.429 285.881 148.834 288.026 147.25L288.619 148.054C290.762 146.472 292.914 144.9 295.075 143.341L294.49 142.53C296.65 140.971 298.82 139.424 300.999 137.887L301.575 138.703C303.747 137.171 305.929 135.65 308.119 134.141L307.552 133.318C309.745 131.806 311.948 130.306 314.159 128.816L314.717 129.645C316.925 128.157 319.142 126.681 321.368 125.216L320.819 124.383C323.047 122.917 325.284 121.461 327.529 120.018L328.069 120.857C330.304 119.421 332.548 117.996 334.8 116.582L334.268 115.734C336.523 114.319 338.787 112.916 341.059 111.523L341.582 112.375C343.851 110.984 346.13 109.605 348.416 108.237L347.903 107.381C350.193 106.011 352.491 104.654 354.797 103.308L355.3 104.169C357.595 102.829 359.9 101.5 362.212 100.184L361.718 99.3164C364.03 97.9993 366.351 96.693 368.68 95.3994L369.165 96.2725C371.491 94.9806 373.825 93.7008 376.167 92.4326L375.69 91.5547C378.035 90.2847 380.389 89.0274 382.75 87.7812L383.216 88.6641C385.57 87.4214 387.933 86.1904 390.303 84.9717L389.847 84.084C392.212 82.8676 394.585 81.6631 396.966 80.4707L397.412 81.3633C399.789 80.1725 402.175 78.9938 404.567 77.8271L404.13 76.9287C406.526 75.7604 408.929 74.604 411.34 73.46L411.768 74.3633C414.176 73.2208 416.592 72.0898 419.015 70.9717L418.596 70.0654C421.011 68.9508 423.433 67.8491 425.863 66.7588L426.271 67.6689C428.696 66.5811 431.128 65.5058 433.566 64.4424L433.168 63.5273C435.61 62.4625 438.058 61.4083 440.515 60.3682L440.904 61.2891C443.357 60.2503 445.817 59.2239 448.284 58.21L447.904 57.2852C450.369 56.2722 452.841 55.2723 455.319 54.2842L455.689 55.2119C458.156 54.2286 460.629 53.2573 463.109 52.2988L462.75 51.3691C465.233 50.4094 467.723 49.461 470.22 48.5264L470.569 49.4609C473.063 48.5275 475.563 47.6065 478.069 46.6982L477.728 45.7588C480.238 44.8494 482.755 43.9533 485.277 43.0693L485.608 44.0117C488.113 43.1339 490.625 42.2686 493.142 41.416L492.823 40.4717C495.343 39.6185 497.868 38.778 500.4 37.9502L500.71 38.8975C503.239 38.0707 505.774 37.2573 508.315 36.4561L508.015 35.5029C510.559 34.7006 513.109 33.9104 515.666 33.1338L515.956 34.0908C518.502 33.3174 521.055 32.5563 523.613 31.8086L523.333 30.8516C525.884 30.106 528.44 29.3732 531.003 28.6533L531.273 29.6133C533.832 28.8944 536.397 28.1882 538.968 27.4951L538.707 26.5312C541.281 25.8371 543.861 25.1545 546.446 24.4863L546.696 25.4551C549.278 24.7879 551.865 24.1332 554.458 23.4922L554.219 22.5234C556.799 21.8856 559.384 21.2613 561.974 20.6494L562.204 21.6201C564.788 21.0098 567.378 20.4124 569.973 19.8281L569.753 18.8545C572.351 18.2694 574.954 17.6965 577.563 17.1377L577.772 18.1152C580.378 17.5572 582.989 17.0122 585.604 16.4805L585.405 15.5029C588.019 14.9716 590.637 14.4531 593.261 13.9482L593.449 14.9277C596.053 14.4266 598.662 13.9388 601.276 13.4639L601.098 12.4814C603.715 12.0059 606.337 11.5429 608.964 11.0938L609.133 12.0781C611.756 11.6296 614.385 11.1945 617.017 10.7725L616.859 9.78809C619.496 9.36547 622.137 8.95648 624.783 8.56055L624.931 9.5459C627.558 9.15278 630.19 8.77288 632.826 8.40625L632.688 7.41699C635.319 7.05111 637.955 6.69876 640.595 6.35938L640.722 7.35059C643.358 7.01164 645.999 6.68539 648.644 6.37305L648.527 5.38281C651.176 5.07006 653.829 4.77034 656.486 4.48438L656.593 5.47656C659.246 5.19099 661.904 4.91883 664.566 4.66016L664.47 3.66504C667.11 3.4085 669.754 3.16747 672.402 2.9375L672.488 3.93066C675.132 3.70106 677.781 3.48518 680.432 3.28223L680.356 2.28711C683.012 2.0839 685.671 1.89221 688.334 1.71582L688.4 2.71387C691.06 2.53772 693.723 2.3748 696.391 2.22559L696.335 1.22949C698.998 1.0805 701.665 0.945279 704.336 0.823242L704.382 1.81934C707.028 1.69844 709.677 1.59037 712.33 1.49609L712.295 0.498047C714.951 0.403648 717.612 0.323459 720.275 0.255859L720.301 1.25391C722.961 1.1864 725.625 1.13241 728.292 1.0918L728.277 0.0947266C730.948 0.0540695 733.622 0.0253075 736.299 0.0117188L736.305 1.00977C737.641 1.00298 738.98 1 740.318 1C741.657 1 742.994 1.00298 744.331 1.00977L744.335 0.0117188C747.012 0.0253018 749.687 0.0540678 752.357 0.0947266L752.343 1.0918C755.01 1.1324 757.674 1.1864 760.334 1.25391L760.358 0.255859C763.022 0.323451 765.682 0.403656 768.339 0.498047L768.305 1.49609C770.958 1.59036 773.607 1.69844 776.253 1.81934L776.298 0.823242C778.968 0.945273 781.635 1.08051 784.299 1.22949L784.244 2.22559C786.911 2.3748 789.575 2.53675 792.234 2.71289L792.3 1.71582C794.963 1.8922 797.622 2.08391 800.277 2.28711L800.202 3.28223C802.854 3.48517 805.502 3.70107 808.146 3.93066L808.231 2.9375C810.879 3.16744 813.523 3.40854 816.163 3.66504L816.067 4.66016C818.729 4.91884 821.388 5.19098 824.042 5.47656L824.147 4.4834C826.805 4.76936 829.458 5.07006 832.106 5.38281L831.99 6.37305C834.635 6.68536 837.276 7.0107 839.912 7.34961L840.039 6.35938C842.679 6.69875 845.314 7.05015 847.945 7.41602L847.808 8.40625C850.445 8.77287 853.077 9.15279 855.704 9.5459L855.85 8.55957C858.496 8.95549 861.138 9.3645 863.774 9.78711L863.617 10.7725C866.25 11.1945 868.878 11.6296 871.502 12.0781L871.67 11.0938C874.297 11.5429 876.919 12.005 879.536 12.4805L879.358 13.4639C881.972 13.9387 884.581 14.4267 887.184 14.9277L887.373 13.9482C889.996 14.4531 892.615 14.9707 895.228 15.502L895.03 16.4795C897.646 17.0112 900.256 17.5562 902.861 18.1143L903.07 17.1367C905.679 17.6956 908.282 18.2694 910.881 18.8545L910.662 19.8281C913.257 20.4124 915.846 21.0098 918.431 21.6201L918.659 20.6494C921.25 21.2612 923.835 21.8856 926.415 22.5234L926.176 23.4922C928.769 24.1332 931.357 24.7869 933.938 25.4541L934.187 24.4863C936.773 25.1545 939.352 25.8371 941.927 26.5312L941.667 27.4951C944.237 28.1882 946.802 28.8944 949.361 29.6133L949.631 28.6533C952.193 29.3732 954.75 30.105 957.301 30.8506L957.021 31.8086C959.58 32.5563 962.132 33.3164 964.679 34.0898L964.968 33.1338C967.524 33.9104 970.075 34.7006 972.619 35.5029L972.319 36.4551C974.86 37.2563 977.396 38.0707 979.925 38.8975L980.234 37.9492C982.766 38.7769 985.291 39.6186 987.81 40.4717L987.492 41.416C990.01 42.2686 992.521 43.1339 995.026 44.0117L995.356 43.0684C997.879 43.9524 1000.4 44.8484 1002.91 45.7578L1002.57 46.6982C1005.07 47.6065 1007.57 48.5275 1010.07 49.4609L1010.41 48.5264C1012.91 49.4609 1015.4 50.4095 1017.88 51.3691L1017.53 52.2988C1020.01 53.2573 1022.48 54.2286 1024.95 55.2119L1025.31 54.2842C1027.79 55.2722 1030.26 56.2712 1032.73 57.2842L1032.35 58.209C1034.82 59.2229 1037.28 60.2494 1039.73 61.2881L1040.12 60.3682C1042.58 61.4083 1045.02 62.4625 1047.47 63.5273L1047.07 64.4414C1049.51 65.5048 1051.94 66.581 1054.36 67.6689L1054.77 66.7588C1057.2 67.8489 1059.62 68.9509 1062.04 70.0654L1061.62 70.9717C1064.04 72.0897 1066.46 73.2199 1068.87 74.3623L1069.29 73.459C1071.71 74.6031 1074.11 75.7603 1076.5 76.9287L1076.07 77.8262C1078.46 78.9929 1080.85 80.1715 1083.22 81.3623L1083.67 80.4707C1086.05 81.6631 1088.42 82.8676 1090.79 84.084L1090.33 84.9707C1092.7 86.1894 1095.06 87.4205 1097.42 88.6631L1097.88 87.7803C1100.25 89.0263 1102.6 90.2839 1104.94 91.5537L1104.47 92.4326C1106.81 93.7007 1109.14 94.9807 1111.47 96.2725L1111.95 95.3994C1114.28 96.6928 1116.6 97.9995 1118.92 99.3164L1118.42 100.184C1120.74 101.5 1123.04 102.829 1125.34 104.169L1125.84 103.308C1128.14 104.654 1130.44 106.011 1132.73 107.381L1132.22 108.237C1134.51 109.605 1136.78 110.984 1139.05 112.375L1139.57 111.522C1141.85 112.915 1144.11 114.319 1146.37 115.734H1146.37L1145.83 116.581C1148.09 117.995 1150.33 119.421 1152.57 120.857L1153.1 120.018C1155.35 121.461 1157.59 122.916 1159.82 124.382L1159.27 125.216C1161.49 126.681 1163.71 128.156 1165.92 129.644L1166.48 128.816C1168.69 130.306 1170.89 131.806 1173.08 133.318L1172.52 134.14C1174.71 135.65 1176.89 137.171 1179.06 138.703L1179.64 137.887C1181.81 139.424 1183.98 140.971 1186.14 142.53H1186.15L1185.56 143.341C1187.72 144.9 1189.87 146.471 1192.02 148.053L1192.61 147.25C1194.75 148.834 1196.89 150.429 1199.02 152.035L1198.41 152.831C1200.54 154.435 1202.65 156.05 1204.76 157.675L1205.37 156.885C1207.47 158.513 1209.57 160.152 1211.66 161.802L1211.05 162.585C1213.14 164.237 1215.22 165.899 1217.29 167.572L1217.92 166.795C1220 168.471 1222.06 170.157 1224.12 171.854L1223.48 172.625C1225.53 174.32 1227.58 176.025 1229.61 177.74L1230.25 176.978C1232.29 178.696 1234.31 180.425 1236.33 182.164L1235.68 182.919C1237.69 184.659 1239.7 186.411 1241.7 188.172L1242.36 187.423C1244.36 189.187 1246.35 190.962 1248.33 192.747L1247.66 193.489C1249.64 195.272 1251.6 197.066 1253.56 198.869L1254.24 198.134C1256.2 199.94 1258.15 201.755 1260.08 203.581V203.582L1259.4 204.31C1261.34 206.135 1263.26 207.971 1265.18 209.816L1265.87 209.098C1267.79 210.948 1269.7 212.81 1271.6 214.681L1270.9 215.391C1272.8 217.259 1274.69 219.137 1276.56 221.025L1277.27 220.322C1279.15 222.213 1281.01 224.113 1282.87 226.023L1282.16 226.719C1284.01 228.627 1285.85 230.545 1287.69 232.473L1288.41 231.784C1290.25 233.718 1292.07 235.66 1293.89 237.613L1293.16 238.294C1294.97 240.244 1296.77 242.204 1298.56 244.174L1299.3 243.501C1301.1 245.473 1302.88 247.456 1304.65 249.447L1303.9 250.11C1305.67 252.099 1307.43 254.096 1309.17 256.104L1309.92 255.449C1311.67 257.461 1313.41 259.483 1315.14 261.514L1314.38 262.16C1316.1 264.189 1317.82 266.227 1319.52 268.274L1320.28 267.637C1321.99 269.687 1323.68 271.746 1325.36 273.814L1324.59 274.444C1326.26 276.51 1327.93 278.585 1329.58 280.669L1330.37 280.047C1332.02 282.135 1333.67 284.232 1335.3 286.338L1334.51 286.95C1336.15 289.054 1337.76 291.167 1339.37 293.288L1340.17 292.685C1341.78 294.809 1343.37 296.944 1344.96 299.086L1344.16 299.68C1345.74 301.819 1347.31 303.966 1348.87 306.123L1349.68 305.539C1351.24 307.699 1352.79 309.867 1354.33 312.044L1353.51 312.62C1355.05 314.795 1356.57 316.978 1358.08 319.17L1358.9 318.603C1360.41 320.798 1361.91 323.001 1363.4 325.213H1363.4L1362.57 325.771C1364.06 327.98 1365.53 330.197 1366.99 332.423L1367.82 331.875C1369.29 334.104 1370.73 336.341 1372.17 338.587L1371.33 339.124C1372.76 341.366 1374.19 343.616 1375.59 345.874L1376.44 345.346C1377.85 347.607 1379.25 349.877 1380.63 352.154L1379.78 352.673C1381.16 354.947 1382.53 357.229 1383.89 359.52L1384.75 359.011C1386.11 361.304 1387.45 363.605 1388.78 365.914L1387.92 366.414C1389.25 368.719 1390.57 371.032 1391.87 373.353L1392.74 372.862C1394.04 375.185 1395.34 377.516 1396.61 379.854L1395.74 380.334C1397.01 382.669 1398.28 385.012 1399.53 387.362L1400.41 386.894C1401.66 389.247 1402.89 391.609 1404.12 393.978L1403.24 394.436C1404.46 396.8 1405.67 399.172 1406.86 401.552L1407.75 401.104C1408.95 403.483 1410.13 405.87 1411.3 408.265L1410.4 408.703C1411.57 411.094 1412.72 413.492 1413.86 415.897L1414.76 415.47C1415.9 417.879 1417.03 420.295 1418.14 422.719L1417.24 423.136C1418.35 425.555 1419.44 427.982 1420.53 430.416L1421.44 430.011C1422.52 432.443 1423.59 434.882 1424.64 437.328L1423.73 437.724C1424.78 440.165 1425.82 442.614 1426.85 445.069L1427.77 444.686C1428.79 447.145 1429.81 449.61 1430.8 452.083L1429.88 452.457C1430.88 454.926 1431.86 457.402 1432.83 459.884L1433.76 459.521C1434.73 462.002 1435.68 464.49 1436.62 466.985H1436.62L1435.69 467.338C1436.62 469.825 1437.55 472.318 1438.45 474.818L1439.39 474.478C1440.3 476.981 1441.2 479.492 1442.08 482.009L1441.14 482.338C1442.02 484.851 1442.88 487.37 1443.73 489.896L1444.67 489.577C1445.53 492.104 1446.36 494.637 1447.18 497.177L1446.24 497.483C1447.06 500.01 1447.86 502.543 1448.65 505.082L1449.6 504.785C1450.39 507.328 1451.17 509.877 1451.93 512.432H1451.93L1450.97 512.717C1451.73 515.267 1452.47 517.824 1453.2 520.387L1454.16 520.112C1454.89 522.678 1455.61 525.25 1456.31 527.828L1455.35 528.091C1456.05 530.654 1456.73 533.222 1457.4 535.796L1458.36 535.545C1459.03 538.12 1459.68 540.701 1460.32 543.288L1459.35 543.527C1459.99 546.11 1460.61 548.698 1461.22 551.291L1462.19 551.063C1462.8 553.661 1463.4 556.263 1463.97 558.871L1463 559.088C1463.58 561.685 1464.14 564.287 1464.68 566.895L1465.66 566.689C1466.2 569.291 1466.73 571.898 1467.25 574.51L1466.27 574.703C1466.78 577.311 1467.28 579.924 1467.76 582.542L1468.74 582.36C1469.23 584.982 1469.7 587.609 1470.15 590.241L1469.17 590.411C1469.62 593.039 1470.06 595.671 1470.48 598.309L1471.47 598.15C1471.89 600.771 1472.29 603.398 1472.68 606.028L1471.7 606.175C1472.09 608.802 1472.46 611.433 1472.82 614.069L1473.81 613.935C1474.16 616.575 1474.51 619.219 1474.84 621.868L1473.85 621.991C1474.18 624.636 1474.49 627.286 1474.79 629.939L1475.78 629.828C1476.07 632.473 1476.36 635.121 1476.62 637.774V637.775L1475.63 637.875C1475.89 640.514 1476.14 643.157 1476.37 645.804L1477.37 645.716C1477.6 648.367 1477.82 651.022 1478.02 653.682L1477.03 653.758C1477.23 656.413 1477.42 659.073 1477.59 661.736L1478.58 661.672C1478.75 664.338 1478.91 667.008 1479.05 669.683H1479.06L1478.06 669.734C1478.2 672.378 1478.32 675.026 1478.43 677.678L1479.43 677.637Z" stroke="#E0E0E0" stroke-width="2" stroke-dasharray="8 8"/>
</svg>
