<svg width="741" height="729" viewBox="0 0 741 729" fill="none" xmlns="http://www.w3.org/2000/svg">
<path d="M739.079 336.342C739.284 339.003 739.461 341.671 739.608 344.348L738.611 344.402C738.756 347.048 738.874 349.7 738.961 352.36L739.959 352.327C740.047 354.99 740.106 357.661 740.135 360.338L739.137 360.349C739.152 361.683 739.16 363.02 739.16 364.358C739.16 365.697 739.152 367.033 739.137 368.368L740.135 368.378C740.106 371.055 740.047 373.726 739.959 376.389L738.961 376.356C738.874 379.016 738.756 381.669 738.611 384.314L739.608 384.368C739.461 387.045 739.284 389.713 739.079 392.374L738.083 392.298C737.877 394.951 737.643 397.597 737.38 400.233L738.373 400.331C738.107 402.997 737.815 405.654 737.491 408.303L736.499 408.181C736.175 410.825 735.823 413.461 735.442 416.088L736.429 416.23C736.046 418.876 735.635 421.513 735.194 424.141L734.208 423.976C733.767 426.605 733.296 429.226 732.797 431.836L733.778 432.022C733.277 434.645 732.749 437.258 732.191 439.86L731.213 439.651C730.654 442.26 730.066 444.859 729.451 447.446L730.421 447.677C729.804 450.272 729.161 452.857 728.487 455.431L727.519 455.178C726.843 457.76 726.14 460.33 725.408 462.89L726.368 463.163C725.634 465.73 724.872 468.285 724.083 470.828L723.129 470.532C722.339 473.078 721.521 475.613 720.676 478.135L721.623 478.451C720.774 480.983 719.898 483.503 718.995 486.011L718.055 485.673C717.152 488.179 716.223 490.672 715.266 493.152L716.197 493.512C715.235 496.004 714.247 498.483 713.232 500.949L712.309 500.569C711.296 503.031 710.255 505.479 709.189 507.913L710.104 508.313C709.032 510.761 707.934 513.194 706.809 515.613L705.903 515.193C704.781 517.606 703.634 520.005 702.46 522.39L703.355 522.83C702.175 525.227 700.97 527.61 699.739 529.978L698.853 529.517C697.625 531.877 696.371 534.223 695.092 536.554L695.967 537.034C694.683 539.376 693.373 541.702 692.038 544.013L691.173 543.513C689.842 545.817 688.485 548.107 687.104 550.38L687.958 550.897C686.571 553.179 685.16 555.444 683.724 557.693L682.883 557.156C681.451 559.4 679.994 561.627 678.514 563.838L679.344 564.394C677.859 566.611 676.349 568.812 674.816 570.995L674 570.422C672.47 572.601 670.917 574.762 669.34 576.905L670.145 577.497C668.564 579.647 666.96 581.779 665.333 583.894L664.542 583.285C662.918 585.394 661.273 587.486 659.604 589.559L660.381 590.185C658.708 592.263 657.012 594.324 655.294 596.365L654.531 595.723C652.817 597.759 651.081 599.776 649.324 601.774L650.074 602.435C648.311 604.438 646.527 606.423 644.721 608.388L643.986 607.713C642.186 609.672 640.364 611.612 638.521 613.532L639.242 614.224C637.394 616.149 635.526 618.054 633.636 619.939L632.931 619.232C631.048 621.112 629.144 622.971 627.219 624.81L627.908 625.53C625.978 627.374 624.03 629.197 622.06 630.999L621.386 630.262C619.423 632.058 617.44 633.833 615.438 635.587L616.095 636.337C614.088 638.095 612.062 639.831 610.016 641.546L609.375 640.781C607.337 642.491 605.279 644.179 603.202 645.845L603.827 646.624C601.746 648.293 599.646 649.939 597.529 651.563L596.921 650.771C594.81 652.392 592.681 653.99 590.533 655.565L591.124 656.37C588.974 657.947 586.806 659.502 584.621 661.033L584.048 660.216C581.869 661.743 579.672 663.248 577.458 664.729L578.012 665.559C575.797 667.041 573.565 668.501 571.315 669.938L570.778 669.096C568.535 670.527 566.276 671.935 564 673.319L564.519 674.173C562.241 675.559 559.947 676.92 557.636 678.258L557.137 677.395C554.836 678.728 552.518 680.036 550.185 681.321L550.667 682.196C548.331 683.483 545.979 684.744 543.613 685.981L543.15 685.098C540.794 686.329 538.423 687.537 536.038 688.72L536.481 689.614C534.091 690.799 531.686 691.959 529.266 693.094L528.842 692.19C526.437 693.319 524.017 694.423 521.583 695.501L521.988 696.413C519.548 697.494 517.093 698.55 514.625 699.58L514.242 698.659C511.791 699.682 509.327 700.679 506.85 701.651L507.214 702.581C504.731 703.555 502.235 704.505 499.726 705.428L499.381 704.489C496.888 705.406 494.382 706.296 491.864 707.161L492.187 708.105C489.666 708.971 487.132 709.812 484.586 710.625L484.284 709.673C481.752 710.482 479.207 711.265 476.651 712.021L476.934 712.977C474.38 713.732 471.815 714.463 469.238 715.165L468.975 714.201C466.408 714.901 463.83 715.574 461.241 716.22L461.482 717.188C458.901 717.831 456.309 718.45 453.707 719.04L453.486 718.065C450.89 718.654 448.284 719.217 445.667 719.751L445.867 720.729C443.261 721.261 440.646 721.768 438.021 722.246L437.842 721.262C435.227 721.738 432.601 722.188 429.966 722.609L430.124 723.595C427.494 724.015 424.856 724.41 422.208 724.775L422.073 723.786C419.443 724.15 416.803 724.485 414.156 724.794L414.271 725.784C411.622 726.093 408.964 726.376 406.298 726.629L406.205 725.635C403.566 725.885 400.919 726.109 398.264 726.305L398.336 727.301C395.675 727.497 393.005 727.664 390.328 727.805L390.276 726.809C387.631 726.947 384.978 727.059 382.319 727.143L382.35 728.142C379.687 728.225 377.016 728.28 374.338 728.308L374.329 727.31C372.993 727.324 371.656 727.331 370.318 727.331C368.979 727.331 367.642 727.324 366.307 727.31L366.297 728.308C363.62 728.28 360.949 728.225 358.285 728.142H358.286L358.318 727.143C355.658 727.059 353.005 726.947 350.36 726.809L350.307 727.805C347.63 727.664 344.96 727.497 342.298 727.301L342.372 726.305C339.717 726.109 337.07 725.885 334.431 725.635L334.336 726.629C331.671 726.376 329.014 726.093 326.365 725.784L326.48 724.794C323.832 724.485 321.193 724.149 318.563 723.785L318.426 724.775C315.779 724.41 313.14 724.014 310.511 723.594L310.669 722.608C308.035 722.187 305.409 721.738 302.793 721.262L302.615 722.246H302.614C299.989 721.768 297.374 721.261 294.768 720.729L294.968 719.751C292.352 719.217 289.746 718.654 287.15 718.065L286.929 719.04C284.326 718.45 281.734 717.832 279.153 717.188L279.395 716.22C276.806 715.574 274.228 714.901 271.661 714.201L271.397 715.165C268.82 714.463 266.255 713.732 263.701 712.977L263.985 712.021C261.429 711.265 258.885 710.482 256.353 709.673L256.048 710.625H256.047C253.502 709.812 250.969 708.971 248.448 708.105L248.772 707.161C246.254 706.297 243.747 705.406 241.254 704.489L240.91 705.427C238.4 704.504 235.904 703.554 233.42 702.58L233.786 701.651C231.309 700.68 228.845 699.682 226.395 698.659L226.009 699.58C223.541 698.55 221.087 697.494 218.647 696.413L219.052 695.501C216.619 694.423 214.199 693.319 211.793 692.19L211.37 693.094C208.95 691.959 206.544 690.799 204.154 689.614L204.598 688.72C202.212 687.537 199.841 686.329 197.486 685.098L197.023 685.981C194.656 684.744 192.304 683.483 189.968 682.196L190.451 681.321C188.118 680.036 185.8 678.728 183.499 677.395L182.999 678.258C180.688 676.92 178.394 675.558 176.116 674.172L176.636 673.319C174.36 671.935 172.101 670.526 169.858 669.095L169.32 669.937C167.07 668.501 164.838 667.041 162.623 665.559L163.179 664.729C160.965 663.248 158.768 661.743 156.588 660.216L156.014 661.033C153.829 659.502 151.662 657.947 149.512 656.37L150.103 655.565C147.955 653.99 145.826 652.392 143.714 650.771L143.107 651.563C140.989 649.939 138.889 648.293 136.809 646.624L137.435 645.845C135.358 644.179 133.299 642.491 131.26 640.781L130.619 641.546C128.573 639.831 126.546 638.095 124.54 636.338L125.199 635.587C123.196 633.833 121.213 632.058 119.25 630.262L118.575 630.998C116.605 629.196 114.656 627.374 112.727 625.531L113.417 624.81C111.493 622.971 109.589 621.112 107.706 619.232L107 619.939C105.11 618.054 103.242 616.148 101.394 614.223L102.115 613.532C100.272 611.612 98.4501 609.672 96.6499 607.713L95.9146 608.387C94.1091 606.422 92.3241 604.438 90.562 602.435L91.313 601.774C89.5555 599.776 87.8195 597.759 86.106 595.723L85.3413 596.365C83.6232 594.324 81.9268 592.263 80.2534 590.185L81.0327 589.559C79.3641 587.486 77.7175 585.395 76.0942 583.285L75.3013 583.895C73.6741 581.78 72.0716 579.646 70.4907 577.496L71.2954 576.905C69.7193 574.762 68.1665 572.6 66.6372 570.422L65.8188 570.995C64.2861 568.812 62.7767 566.611 61.2915 564.394L62.1216 563.838C60.6413 561.628 59.1855 559.4 57.7534 557.156L56.9106 557.692C55.4754 555.444 54.0645 553.179 52.6782 550.897L53.5317 550.379C52.1507 548.106 50.794 545.817 49.4624 543.513L48.5972 544.012C47.2622 541.701 45.9531 539.375 44.6685 537.033L45.5435 536.554C44.2649 534.223 43.0116 531.877 41.7837 529.517L40.895 529.978C39.6637 527.61 38.4596 525.227 37.2798 522.83L38.1763 522.389C37.0027 520.004 35.8546 517.605 34.7329 515.192L33.8267 515.613C32.702 513.194 31.6028 510.761 30.5308 508.313L31.4468 507.913C30.3805 505.479 29.3409 503.031 28.3276 500.569L27.4038 500.948C26.3887 498.482 25.3984 496.004 24.437 493.512L25.3706 493.152C24.4138 490.672 23.4833 488.179 22.5806 485.673L21.6401 486.011C20.7369 483.504 19.8618 480.983 19.0132 478.451L19.9604 478.135C19.1152 475.613 18.2975 473.078 17.5073 470.532L16.5522 470.827C15.763 468.284 15.0019 465.729 14.2681 463.163L15.228 462.889C14.4963 460.33 13.7925 457.759 13.1167 455.178L12.1489 455.431C11.4752 452.857 10.831 450.272 10.2134 447.677L11.1851 447.446C10.5693 444.859 9.98155 442.26 9.42236 439.651L8.44482 439.86C7.88698 437.258 7.35892 434.645 6.85791 432.022L7.83838 431.835C7.33977 429.225 6.86973 426.605 6.42822 423.976L5.44189 424.14C5.00076 421.512 4.58919 418.875 4.20557 416.229L5.19385 416.088C4.81301 413.461 4.46058 410.825 4.13721 408.181L3.14502 408.301C2.82124 405.653 2.52789 402.996 2.26221 400.331L3.25537 400.232C2.99252 397.596 2.75843 394.951 2.55322 392.298L1.55518 392.374C1.34938 389.713 1.17518 387.045 1.02783 384.368L2.0249 384.314C1.87926 381.669 1.7621 379.016 1.67432 376.356L0.675293 376.388C0.58743 373.725 0.529923 371.055 0.500488 368.378L1.49951 368.368C1.49217 367.701 1.48659 367.033 1.48291 366.364L1.47705 364.358C1.47705 363.02 1.48483 361.683 1.49951 360.349L0.500488 360.337C0.529934 357.66 0.587419 354.99 0.675293 352.327L1.67432 352.36C1.7621 349.7 1.87927 347.047 2.0249 344.402L1.02783 344.347C1.17494 341.675 1.34982 339.011 1.55518 336.354L1.55615 336.342L2.55322 336.419C2.75845 333.766 2.99249 331.12 3.25537 328.483L2.26221 328.384C2.5279 325.719 2.82123 323.062 3.14502 320.414L4.13818 320.535C4.46153 317.891 4.81304 315.255 5.19385 312.629L4.20557 312.485C4.5892 309.839 5.00075 307.202 5.44189 304.575L6.42822 304.74C6.86973 302.111 7.33977 299.491 7.83838 296.881L6.85791 296.693C7.22113 294.792 7.59758 292.896 7.99072 291.005L8.44482 288.855L9.42236 289.064C9.98155 286.456 10.5693 283.857 11.1851 281.27L10.2134 281.038C10.831 278.443 11.4752 275.858 12.1489 273.284L12.1499 273.285L13.1167 273.539C13.7926 270.957 14.4972 268.386 15.229 265.827L14.2681 265.552C14.9657 263.112 15.6873 260.682 16.4351 258.264L16.5522 257.888L17.5073 258.184C18.2975 255.638 19.1153 253.104 19.9604 250.582L19.0132 250.264C19.8617 247.732 20.737 245.212 21.6401 242.705L22.5806 243.044C23.4834 240.538 24.4138 238.044 25.3706 235.563L24.438 235.204L24.437 235.203C25.3984 232.711 26.3887 230.232 27.4038 227.767L28.3276 228.147C29.341 225.686 30.3804 223.237 31.4468 220.803L30.5317 220.401C31.6037 217.954 32.7021 215.521 33.8267 213.102L34.7329 213.523C35.8547 211.11 37.0027 208.711 38.1763 206.327L37.2798 205.886C38.4597 203.489 39.6646 201.106 40.896 198.738L41.7837 199.2C43.0117 196.839 44.2648 194.493 45.5435 192.162L44.6675 191.682C45.9523 189.34 47.263 187.014 48.5981 184.703L49.4624 185.203C50.794 182.899 52.1507 180.61 53.5317 178.337L52.6782 177.817C54.0647 175.536 55.4762 173.27 56.9116 171.021L57.7534 171.56C59.1855 169.316 60.6423 167.088 62.1226 164.878L61.2915 164.322C62.7767 162.105 64.2861 159.904 65.8188 157.721L66.6372 158.295C68.1667 156.116 69.7192 153.954 71.2954 151.811L70.4907 151.219C72.0716 149.069 73.6741 146.935 75.3013 144.82L75.3022 144.821L76.0942 145.432C77.7175 143.322 79.364 141.23 81.0327 139.157L80.2544 138.531C81.9276 136.453 83.6233 134.392 85.3413 132.351L86.106 132.994C87.8195 130.958 89.5555 128.94 91.313 126.941L90.562 126.281L90.561 126.28C92.3233 124.277 94.109 122.293 95.9146 120.328L96.6499 121.004C98.4501 119.045 100.272 117.105 102.115 115.185L101.393 114.492C102.81 113.015 104.24 111.55 105.682 110.097L107 108.776L107.706 109.484C109.589 107.605 111.493 105.746 113.417 103.907L112.727 103.185C114.656 101.341 116.605 99.5185 118.575 97.7168L119.25 98.4551C121.213 96.6592 123.196 94.8838 125.199 93.1299L124.54 92.3779C126.546 90.6205 128.572 88.8846 130.618 87.1699L131.26 87.9355C133.299 86.2261 135.358 84.5372 137.435 82.8711L136.809 82.0918L136.808 82.0908C138.888 80.4221 140.988 78.7761 143.106 77.1514L143.714 77.9443C145.826 76.3242 147.956 74.7269 150.104 73.1514L149.512 72.3457C151.662 70.7689 153.829 69.2142 156.014 67.6826L156.588 68.501C158.768 66.9736 160.965 65.4689 163.179 63.9873L162.623 63.1572C164.838 61.6747 167.07 60.2144 169.32 58.7783L169.858 59.6211C172.101 58.1895 174.36 56.7811 176.636 55.3965L176.117 54.543C178.394 53.1575 180.688 51.7959 182.998 50.458L183.5 51.3223C185.801 49.9894 188.118 48.6803 190.451 47.3955L189.968 46.5195C192.304 45.233 194.656 43.9711 197.023 42.7334L197.486 43.6191C199.841 42.3874 202.213 41.1797 204.598 39.9971L204.155 39.1006C206.545 37.9157 208.95 36.7561 211.37 35.6211L211.794 36.5254C214.199 35.3971 216.619 34.294 219.052 33.2158L218.647 32.3027C221.087 31.2215 223.541 30.165 226.009 29.1348L226.395 30.0566C228.845 29.0338 231.309 28.0363 233.786 27.0645L233.42 26.1348C235.904 25.1604 238.4 24.2107 240.91 23.2881L241.255 24.2266C243.748 23.31 246.255 22.4193 248.773 21.5547L248.448 20.6104C250.969 19.7447 253.502 18.904 256.048 18.0908L256.353 19.043C258.885 18.2343 261.429 17.4522 263.985 16.6963L263.702 15.7383C266.256 14.9829 268.821 14.253 271.398 13.5508L271.661 14.5156C274.228 13.8161 276.806 13.143 279.395 12.4971L279.153 11.5283C281.69 10.8954 284.237 10.2871 286.794 9.70605L286.929 9.67578L287.151 10.6504C289.746 10.0618 292.352 9.5002 294.968 8.96582L294.768 7.9873C297.374 7.45509 299.989 6.94768 302.614 6.46973L302.615 6.4707L302.794 7.4541C305.41 6.97794 308.035 6.52897 310.669 6.10742L310.512 5.12109C313.141 4.70045 315.779 4.30622 318.426 3.94043L318.563 4.93066C321.193 4.56724 323.832 4.23139 326.48 3.92285L326.365 2.93066C329.014 2.62199 331.671 2.34019 334.336 2.08691L334.431 3.08203C337.07 2.83129 339.718 2.60783 342.373 2.41211L342.298 1.41504C344.96 1.21879 347.631 1.05162 350.308 0.911133L350.36 1.9082C353.005 1.7694 355.658 1.65788 358.318 1.57422L358.287 0.574219C360.95 0.490451 363.62 0.436268 366.297 0.408203L366.308 1.40723C367.643 1.39323 368.98 1.38574 370.318 1.38574C371.656 1.38574 372.993 1.39323 374.329 1.40723L374.338 0.408203C377.016 0.436267 379.687 0.490438 382.35 0.574219V0.575195L382.319 1.57422C384.979 1.65788 387.632 1.7694 390.277 1.9082L390.328 0.911133C393.005 1.05162 395.675 1.21879 398.337 1.41504L398.264 2.41211C400.919 2.60783 403.567 2.83129 406.206 3.08203L406.299 2.08691C408.965 2.34019 411.622 2.62199 414.271 2.93066L414.156 3.92285C416.803 4.23139 419.443 4.56724 422.073 4.93066L422.209 3.94043C424.857 4.30622 427.495 4.70045 430.124 5.12109L429.966 6.10742C432.601 6.52899 435.227 6.97791 437.842 7.4541L438.021 6.4707C440.646 6.9487 443.262 7.45504 445.868 7.9873L445.668 8.96582C448.285 9.50021 450.89 10.0618 453.486 10.6504L453.707 9.67578C456.309 10.266 458.901 10.8844 461.482 11.5283L461.242 12.4971C463.831 13.143 466.409 13.8161 468.976 14.5156L469.238 13.5508C471.815 14.253 474.38 14.9829 476.934 15.7383L476.652 16.6963C479.208 17.4522 481.752 18.2352 484.284 19.0439L484.587 18.0908C487.133 18.9039 489.667 19.7447 492.188 20.6104L491.864 21.5547C494.382 22.4194 496.888 23.3109 499.381 24.2275L499.726 23.2881C502.235 24.2106 504.731 25.1605 507.214 26.1348L506.85 27.0645C509.327 28.0364 511.791 29.0347 514.242 30.0576L514.625 29.1348C517.094 30.165 519.548 31.2215 521.988 32.3027L521.584 33.2158C524.018 34.294 526.437 35.3981 528.842 36.5264L529.266 35.6221C531.685 36.7571 534.091 37.9157 536.481 39.1006L536.038 39.9971C538.423 41.1798 540.794 42.3873 543.15 43.6191L543.612 42.7344C545.979 43.972 548.331 45.2331 550.667 46.5195L550.185 47.3955C552.518 48.6804 554.836 49.9893 557.137 51.3223L557.637 50.458C559.947 51.796 562.241 53.1573 564.519 54.543L564 55.3965C566.276 56.781 568.535 58.1896 570.778 59.6211L571.315 58.7783C573.565 60.2145 575.797 61.6746 578.013 63.1572L577.458 63.9873C579.672 65.4689 581.869 66.9736 584.048 68.501L584.621 67.6816C586.806 69.2134 588.974 70.7687 591.124 72.3457L590.533 73.1514C592.68 74.7267 594.81 76.3244 596.921 77.9443L597.53 77.1514C599.647 78.7761 601.747 80.422 603.828 82.0908V82.0918L603.202 82.8721C605.279 84.5381 607.337 86.2262 609.375 87.9355L610.017 87.1689C612.063 88.8839 614.089 90.6202 616.096 92.3779L615.438 93.1299C617.441 94.8838 619.423 96.6592 621.386 98.4551L622.06 97.7168C624.03 99.5187 625.978 101.342 627.908 103.186L627.219 103.907C629.144 105.746 631.048 107.605 632.931 109.484L633.636 108.776C635.526 110.662 637.394 112.567 639.242 114.492L638.522 115.185C640.365 117.105 642.186 119.045 643.986 121.004L644.72 120.327C646.526 122.293 648.311 124.277 650.074 126.281L649.324 126.941C651.081 128.94 652.817 130.958 654.531 132.994L655.293 132.35C657.011 134.391 658.707 136.452 660.38 138.53L659.604 139.157C661.273 141.23 662.918 143.322 664.542 145.432L665.333 144.821C666.961 146.936 668.564 149.069 670.145 151.219L669.341 151.811C670.918 153.954 672.47 156.116 674 158.295L674.816 157.721C676.349 159.904 677.859 162.104 679.344 164.322H679.345L678.514 164.879C679.994 167.089 681.451 169.316 682.883 171.56L683.724 171.022C685.159 173.271 686.571 175.536 687.958 177.817L687.105 178.337C688.486 180.61 689.843 182.899 691.174 185.203L692.038 184.703C693.373 187.014 694.683 189.34 695.967 191.682L695.092 192.162C696.371 194.493 697.625 196.839 698.853 199.2L699.739 198.738C700.97 201.106 702.176 203.489 703.356 205.886L702.46 206.327C703.634 208.711 704.782 211.11 705.904 213.523L706.809 213.103C707.934 215.522 709.032 217.955 710.104 220.402L709.189 220.803C710.255 223.237 711.296 225.686 712.309 228.147L713.232 227.767C714.247 230.233 715.236 232.712 716.198 235.204L715.266 235.564C716.223 238.045 717.152 240.538 718.055 243.044L718.995 242.705C719.898 245.212 720.774 247.732 721.623 250.265L720.676 250.582C721.521 253.104 722.339 255.638 723.129 258.185L724.083 257.888C724.872 260.431 725.634 262.986 726.368 265.553L725.408 265.827C726.14 268.386 726.843 270.957 727.519 273.539L728.487 273.286V273.285C729.161 275.859 729.804 278.444 730.421 281.039L729.451 281.271C730.066 283.858 730.654 286.457 731.213 289.065L732.191 288.855C732.749 291.458 733.277 294.071 733.778 296.693L732.797 296.881C733.296 299.491 733.767 302.112 734.208 304.741L735.194 304.575C735.635 307.202 736.046 309.839 736.429 312.485L735.442 312.629C735.823 315.256 736.175 317.892 736.499 320.536L737.491 320.414V320.413C737.815 323.062 738.107 325.719 738.373 328.385L737.38 328.483C737.643 331.12 737.877 333.766 738.083 336.419L739.079 336.342Z" stroke="#E0E0E0" stroke-width="2" stroke-dasharray="8 8"/>
</svg>
