<svg width="1111" height="1051" viewBox="0 0 1111 1051" fill="none" xmlns="http://www.w3.org/2000/svg">
<path d="M1108.16 481.569C1108.39 484.222 1108.6 486.88 1108.79 489.544L1107.8 489.616C1107.99 492.275 1108.16 494.939 1108.3 497.608L1109.3 497.553C1109.45 500.203 1109.57 502.859 1109.68 505.52L1108.68 505.56C1108.79 508.212 1108.87 510.869 1108.94 513.531L1109.93 513.507C1110 516.175 1110.04 518.847 1110.06 521.524L1109.06 521.532C1109.07 522.868 1109.08 524.205 1109.08 525.543C1109.08 526.881 1109.07 528.218 1109.06 529.554L1110.06 529.561C1110.04 532.238 1110 534.91 1109.93 537.578L1108.94 537.555C1108.87 540.217 1108.79 542.874 1108.68 545.526L1109.68 545.565C1109.57 548.226 1109.45 550.882 1109.3 553.532L1108.3 553.478C1108.16 556.147 1107.99 558.811 1107.8 561.47L1108.79 561.54C1108.6 564.204 1108.39 566.863 1108.16 569.516L1107.16 569.43C1106.93 572.077 1106.68 574.719 1106.4 577.355L1107.39 577.457C1107.12 580.117 1106.82 582.772 1106.5 585.42L1105.51 585.302C1105.19 587.95 1104.85 590.592 1104.49 593.228L1105.48 593.362C1105.12 596.003 1104.74 598.638 1104.34 601.267L1103.35 601.117C1102.95 603.75 1102.53 606.376 1102.08 608.996L1103.07 609.162C1102.62 611.798 1102.15 614.427 1101.66 617.05L1100.68 616.868C1100.2 619.485 1099.69 622.096 1099.16 624.699L1100.14 624.897C1099.61 627.509 1099.06 630.114 1098.49 632.712L1097.52 632.499C1096.94 635.105 1096.35 637.704 1095.74 640.296L1096.71 640.524C1096.1 643.122 1095.46 645.711 1094.8 648.294L1093.84 648.049C1093.18 650.626 1092.51 653.196 1091.82 655.758L1092.78 656.019C1092.08 658.598 1091.36 661.17 1090.62 663.733L1089.67 663.458C1088.93 666.018 1088.17 668.569 1087.39 671.113L1088.35 671.405C1087.57 673.954 1086.77 676.495 1085.95 679.028L1085 678.722C1084.18 681.256 1083.35 683.783 1082.49 686.302L1083.43 686.623C1082.57 689.15 1081.69 691.668 1080.79 694.178L1079.85 693.841C1078.95 696.345 1078.03 698.842 1077.1 701.329L1078.03 701.682C1077.09 704.177 1076.13 706.665 1075.15 709.143L1074.22 708.775C1073.24 711.253 1072.24 713.722 1071.23 716.182L1072.15 716.562C1071.13 719.026 1070.09 721.483 1069.03 723.929L1068.12 723.532C1067.06 725.975 1065.99 728.408 1064.89 730.832L1065.8 731.242C1064.7 733.674 1063.59 736.098 1062.45 738.511L1061.55 738.087C1060.42 740.496 1059.26 742.895 1058.09 745.284L1058.99 745.722C1057.82 748.116 1056.63 750.502 1055.42 752.876L1054.53 752.423C1053.32 754.796 1052.09 757.158 1050.85 759.511L1051.73 759.977C1050.48 762.334 1049.22 764.682 1047.93 767.019L1047.06 766.538C1045.78 768.87 1044.48 771.193 1043.16 773.505L1044.03 773.998C1042.71 776.315 1041.37 778.622 1040.02 780.918L1039.16 780.411C1037.8 782.703 1036.43 784.984 1035.04 787.255L1035.89 787.774C1034.5 790.049 1033.09 792.314 1031.67 794.567L1030.82 794.033C1029.4 796.282 1027.96 798.52 1026.5 800.746L1027.34 801.292C1025.88 803.523 1024.4 805.743 1022.9 807.951L1022.08 807.392C1020.59 809.596 1019.08 811.788 1017.55 813.97L1018.37 814.541C1016.84 816.726 1015.3 818.9 1013.73 821.062L1012.93 820.478C1011.37 822.634 1009.79 824.78 1008.2 826.913L1009 827.509C1007.41 829.646 1005.8 831.772 1004.17 833.886L1003.38 833.277C1001.76 835.387 1000.12 837.485 998.461 839.57L999.242 840.189C997.585 842.277 995.912 844.352 994.223 846.415L993.451 845.783C991.765 847.842 990.064 849.889 988.346 851.923L989.108 852.565C987.387 854.604 985.651 856.629 983.899 858.643L983.147 857.988C981.401 859.994 979.64 861.988 977.863 863.969L978.606 864.635C976.827 866.619 975.031 868.59 973.221 870.549L972.489 869.872C970.682 871.827 968.86 873.77 967.023 875.699L967.747 876.388C965.909 878.318 964.056 880.234 962.189 882.138L961.476 881.439C959.614 883.338 957.737 885.225 955.845 887.098L956.549 887.807C954.653 889.683 952.743 891.545 950.819 893.395L950.128 892.676C948.209 894.52 946.277 896.35 944.33 898.167L945.011 898.897C943.064 900.715 941.101 902.517 939.126 904.308L938.456 903.569C936.484 905.356 934.498 907.13 932.499 908.89L933.158 909.64C931.156 911.401 929.139 913.148 927.11 914.882L926.462 914.124C924.441 915.85 922.407 917.563 920.359 919.262L920.997 920.03C918.945 921.732 916.879 923.419 914.801 925.093L914.176 924.315C912.101 925.986 910.013 927.642 907.913 929.284L908.528 930.07C906.43 931.71 904.319 933.335 902.196 934.945L901.594 934.15C899.474 935.758 897.342 937.35 895.198 938.929L895.79 939.732C893.641 941.314 891.48 942.881 889.306 944.433L888.727 943.62C886.564 945.165 884.387 946.695 882.199 948.211L882.766 949.031C880.577 950.548 878.376 952.05 876.162 953.536L875.605 952.708C873.395 954.192 871.173 955.661 868.939 957.115L869.483 957.95C867.249 959.404 865.004 960.845 862.747 962.269L862.215 961.424C859.967 962.841 857.707 964.244 855.436 965.631L855.956 966.481C853.681 967.871 851.396 969.247 849.098 970.605L848.59 969.747C846.298 971.103 843.994 972.443 841.679 973.768L842.175 974.633C839.865 975.954 837.546 977.261 835.215 978.552L834.731 977.679C832.404 978.967 830.067 980.24 827.719 981.497L828.189 982.377C825.837 983.636 823.473 984.879 821.099 986.106L820.641 985.221C818.281 986.441 815.911 987.645 813.53 988.834L813.976 989.728C811.594 990.917 809.2 992.09 806.798 993.247L806.365 992.349C803.966 993.504 801.557 994.643 799.138 995.767L799.558 996.672C797.142 997.794 794.716 998.9 792.28 999.99L791.873 999.079C789.448 1000.16 787.013 1001.23 784.569 1002.29L784.964 1003.2C782.515 1004.25 780.057 1005.29 777.59 1006.32L777.208 1005.39C774.747 1006.41 772.277 1007.41 769.798 1008.4L770.166 1009.33C767.695 1010.31 765.215 1011.27 762.726 1012.22L762.371 1011.29C759.886 1012.24 757.393 1013.17 754.89 1014.08L755.232 1015.02C752.726 1015.94 750.21 1016.84 747.686 1017.72L747.357 1016.78C744.85 1017.65 742.335 1018.51 739.811 1019.36L740.127 1020.3C737.602 1021.15 735.069 1021.97 732.528 1022.78L732.225 1021.83C729.689 1022.64 727.144 1023.43 724.591 1024.21L724.88 1025.16C722.329 1025.93 719.771 1026.69 717.205 1027.43L716.929 1026.47C714.379 1027.21 711.82 1027.92 709.254 1028.62L709.516 1029.59C706.946 1030.29 704.367 1030.97 701.781 1031.64L701.532 1030.67C698.951 1031.34 696.362 1031.99 693.765 1032.62L694.001 1033.59C691.42 1034.22 688.832 1034.83 686.237 1035.42L686.015 1034.45C683.425 1035.04 680.827 1035.62 678.222 1036.18L678.431 1037.15C675.822 1037.71 673.206 1038.26 670.583 1038.78L670.387 1037.8C667.782 1038.32 665.169 1038.82 662.55 1039.31L662.731 1040.29C660.117 1040.77 657.497 1041.24 654.87 1041.69L654.702 1040.71C652.079 1041.16 649.45 1041.59 646.814 1042L646.969 1042.99C644.332 1043.41 641.688 1043.8 639.038 1044.18L638.897 1043.19C636.274 1043.57 633.644 1043.93 631.009 1044.27L631.136 1045.26C628.496 1045.6 625.851 1045.92 623.199 1046.23L623.086 1045.24C620.439 1045.54 617.786 1045.83 615.128 1046.1L615.227 1047.09C612.581 1047.36 609.928 1047.61 607.27 1047.85L607.183 1046.85C604.541 1047.08 601.892 1047.3 599.239 1047.5L599.312 1048.49C596.654 1048.69 593.991 1048.87 591.323 1049.03L591.263 1048.03C588.602 1048.19 585.934 1048.34 583.262 1048.46L583.308 1049.46C580.659 1049.58 578.005 1049.69 575.346 1049.78L575.313 1048.78C572.659 1048.87 570 1048.94 567.336 1049L567.355 1050C564.687 1050.05 562.013 1050.09 559.336 1050.1L559.33 1049.11C557.993 1049.11 556.656 1049.12 555.317 1049.12C553.979 1049.12 552.641 1049.11 551.304 1049.11L551.298 1050.1C548.62 1050.09 545.947 1050.05 543.279 1050L543.299 1049C540.635 1048.94 537.975 1048.87 535.321 1048.78L535.288 1049.78C532.629 1049.69 529.974 1049.58 527.325 1049.46L527.372 1048.46C524.7 1048.34 522.033 1048.19 519.372 1048.03L519.311 1049.03C516.643 1048.87 513.979 1048.69 511.321 1048.49L511.395 1047.5C508.742 1047.3 506.094 1047.08 503.451 1046.85L503.364 1047.85C500.706 1047.61 498.053 1047.36 495.406 1047.09L495.508 1046.1C492.849 1045.83 490.196 1045.54 487.549 1045.24L487.434 1046.23C484.783 1045.92 482.137 1045.6 479.498 1045.26L479.626 1044.27C476.99 1043.93 474.36 1043.57 471.737 1043.19L471.595 1044.18C468.946 1043.8 466.302 1043.41 463.665 1042.99L463.82 1042C461.185 1041.59 458.556 1041.16 455.933 1040.71L455.764 1041.69C453.137 1041.24 450.516 1040.78 447.902 1040.29L448.085 1039.31C445.465 1038.82 442.853 1038.32 440.247 1037.8L440.051 1038.78C437.428 1038.26 434.812 1037.71 432.203 1037.15L432.412 1036.18C429.807 1035.62 427.21 1035.04 424.62 1034.45L424.396 1035.42C421.801 1034.83 419.213 1034.22 416.633 1033.59L416.869 1032.62C414.273 1031.99 411.684 1031.34 409.102 1030.67L408.852 1031.64C406.267 1030.97 403.688 1030.29 401.118 1029.59L401.381 1028.62C398.815 1027.92 396.256 1027.21 393.706 1026.47L393.428 1027.43C390.862 1026.69 388.304 1025.93 385.754 1025.16L386.044 1024.21C383.491 1023.43 380.946 1022.64 378.409 1021.83L378.105 1022.78C375.564 1021.97 373.031 1021.15 370.507 1020.3L370.824 1019.36C368.3 1018.51 365.784 1017.65 363.277 1016.78L362.948 1017.72C360.424 1016.84 357.908 1015.94 355.401 1015.02L355.744 1014.08C353.242 1013.17 350.748 1012.24 348.263 1011.29L347.907 1012.22C345.418 1011.27 342.938 1010.31 340.468 1009.33L340.837 1008.4C338.357 1007.41 335.887 1006.41 333.427 1005.39L333.044 1006.32C330.576 1005.29 328.118 1004.25 325.67 1003.2L326.065 1002.29C323.621 1001.23 321.187 1000.16 318.762 999.079L318.353 999.99C315.917 998.9 313.491 997.794 311.075 996.672L311.496 995.767C309.077 994.643 306.668 993.504 304.269 992.349L303.836 993.247C301.433 992.09 299.039 990.917 296.657 989.728L297.104 988.834C294.724 987.645 292.353 986.441 289.993 985.221L289.535 986.106C287.161 984.879 284.797 983.637 282.444 982.378L282.916 981.497C280.568 980.24 278.23 978.968 275.903 977.68L275.419 978.552C273.088 977.261 270.768 975.954 268.459 974.633L268.955 973.768C266.64 972.443 264.337 971.103 262.045 969.747L261.535 970.605C259.238 969.247 256.952 967.872 254.677 966.482L255.198 965.631C252.927 964.244 250.667 962.841 248.42 961.424L247.886 962.269C245.629 960.845 243.384 959.404 241.15 957.95L241.695 957.115C239.461 955.661 237.239 954.192 235.029 952.708L234.471 953.536C232.258 952.05 230.056 950.548 227.867 949.031L228.435 948.212C226.247 946.696 224.071 945.166 221.907 943.621L221.326 944.433C219.153 942.881 216.992 941.315 214.844 939.733L215.436 938.93C213.292 937.351 211.16 935.758 209.041 934.15L208.437 934.945C206.314 933.335 204.203 931.71 202.105 930.07L202.721 929.284C200.621 927.642 198.533 925.986 196.459 924.315L195.833 925.093C193.755 923.419 191.689 921.732 189.637 920.03L190.275 919.262C188.228 917.563 186.193 915.85 184.173 914.124L183.524 914.883C181.494 913.149 179.478 911.402 177.475 909.64L178.135 908.89C176.136 907.13 174.15 905.356 172.178 903.569L171.508 904.309C169.532 902.518 167.569 900.715 165.622 898.897L166.304 898.167C164.358 896.35 162.425 894.52 160.507 892.676L159.815 893.395C157.891 891.545 155.981 889.683 154.086 887.807L154.789 887.098C152.897 885.225 151.02 883.339 149.158 881.44L148.445 882.139C146.578 880.235 144.725 878.318 142.887 876.388L143.611 875.699C141.774 873.77 139.953 871.828 138.146 869.873L137.412 870.55C135.602 868.591 133.808 866.619 132.028 864.635L132.771 863.969C130.995 861.988 129.233 859.994 127.487 857.988L126.734 858.643C124.982 856.63 123.246 854.604 121.525 852.566L122.289 851.923C120.571 849.889 118.869 847.842 117.183 845.783L116.411 846.415C114.722 844.352 113.049 842.277 111.392 840.19L112.174 839.57C110.518 837.485 108.878 835.388 107.255 833.278L106.463 833.887C104.836 831.773 103.226 829.647 101.633 827.51L102.432 826.913C100.841 824.78 99.2676 822.634 97.7097 820.478L96.8992 821.062C95.3374 818.9 93.7937 816.726 92.2654 814.541L93.0837 813.97C91.5581 811.788 90.0483 809.596 88.5564 807.392L87.7283 807.951C86.2337 805.743 84.758 803.522 83.2976 801.292L84.1326 800.746C82.6748 798.52 81.2336 796.282 79.8103 794.033L78.9656 794.567C77.5395 792.314 76.1322 790.049 74.741 787.774L75.5925 787.255C74.204 784.984 72.8326 782.703 71.4792 780.411L70.6179 780.92C69.262 778.624 67.9265 776.315 66.6062 773.998L67.4734 773.505C66.1563 771.193 64.8562 768.871 63.575 766.539L62.699 767.02C61.4152 764.683 60.1516 762.334 58.9041 759.977L59.7859 759.511C58.5409 757.158 57.3137 754.795 56.1052 752.423L55.2136 752.877C54.0043 750.503 52.8158 748.117 51.6433 745.723L52.5398 745.284C51.3697 742.895 50.2177 740.496 49.0847 738.087L48.1794 738.512C47.0443 736.098 45.9294 733.675 44.8318 731.242L45.7419 730.832C44.6483 728.408 43.5732 725.975 42.5173 723.533L41.5994 723.929C40.5418 721.483 39.5056 719.026 38.4861 716.562L39.408 716.182C38.3905 713.722 37.3919 711.254 36.4128 708.776L35.4832 709.143C34.5039 706.665 33.5458 704.177 32.6052 701.682L33.5388 701.33C32.6013 698.843 31.6836 696.346 30.7849 693.842L29.8435 694.178C28.943 691.668 28.0631 689.15 27.2019 686.623L28.1472 686.302C27.2888 683.783 26.4496 681.256 25.6306 678.722L24.6804 679.028C23.8621 676.495 23.0637 673.954 22.2849 671.405L23.24 671.114C22.4628 668.57 21.7049 666.018 20.9675 663.458L20.0085 663.733C19.27 661.17 18.5515 658.598 17.8533 656.019L18.8171 655.759C18.1236 653.197 17.45 650.627 16.7966 648.05L15.8289 648.294C15.1741 645.712 14.5378 643.122 13.9236 640.525L14.8962 640.296C14.2833 637.704 13.691 635.105 13.1189 632.499L12.1443 632.713C11.5739 630.115 11.0215 627.51 10.4919 624.897L11.4724 624.699C10.9446 622.096 10.4368 619.485 9.94995 616.868L8.96948 617.05C8.48156 614.427 8.01271 611.798 7.56616 609.162L8.55151 608.996C8.10769 606.376 7.68453 603.75 7.28198 601.117L6.29468 601.268C5.89272 598.639 5.51169 596.004 5.15112 593.362L6.14038 593.229C5.78055 590.593 5.44101 587.95 5.1228 585.302L4.13062 585.421C3.81237 582.773 3.51637 580.118 3.23999 577.458L4.23218 577.355C3.95829 574.719 3.70576 572.077 3.47339 569.43L2.47729 569.517C2.24445 566.864 2.03444 564.205 1.84351 561.541L2.83862 561.471C2.64807 558.812 2.47825 556.148 2.32983 553.479L1.33374 553.533C1.18636 550.882 1.05849 548.226 0.952881 545.565L1.95093 545.527C1.84567 542.875 1.76138 540.218 1.698 537.556L0.700928 537.578C0.637425 534.911 0.594239 532.239 0.572998 529.562L1.57104 529.555C1.56044 528.219 1.55542 526.881 1.55542 525.543C1.55542 524.205 1.56045 522.868 1.57104 521.532L0.572998 521.524C0.59424 518.847 0.637424 516.175 0.700928 513.508L1.698 513.531C1.76138 510.869 1.84567 508.212 1.95093 505.56L0.952881 505.521C1.05849 502.859 1.18636 500.204 1.33374 497.553L2.32983 497.608C2.47825 494.939 2.64807 492.275 2.83862 489.616L1.84351 489.545C2.0276 486.976 2.22884 484.413 2.4519 481.854L2.47729 481.569L3.47339 481.657C3.70576 479.01 3.9583 476.368 4.23218 473.731L3.23999 473.628C3.51636 470.968 3.81237 468.313 4.13062 465.665L5.1228 465.784C5.441 463.136 5.78057 460.494 6.14038 457.858L5.15112 457.724C5.51169 455.082 5.89272 452.447 6.29468 449.818L7.28101 449.97C7.68358 447.337 8.10766 444.71 8.55151 442.09L7.56616 441.923C8.01272 439.287 8.48156 436.658 8.96948 434.035L9.94995 434.219C10.4369 431.602 10.9445 428.99 11.4724 426.387L10.4919 426.188C11.0215 423.576 11.5739 420.971 12.1443 418.373L13.1189 418.588C13.691 415.982 14.2833 413.383 14.8962 410.791L13.9236 410.561C14.5378 407.963 15.174 405.374 15.8289 402.791L16.7966 403.037C17.4501 400.46 18.1236 397.89 18.8171 395.328L17.8533 395.066C18.5515 392.487 19.27 389.915 20.0085 387.352L20.9675 387.629C21.7049 385.069 22.4628 382.517 23.24 379.973L22.2839 379.681C23.0627 377.132 23.862 374.591 24.6804 372.058L25.6306 372.364C26.4495 369.83 27.2889 367.303 28.1472 364.785L27.2019 364.462C28.0632 361.935 28.944 359.417 29.8445 356.907L30.7839 357.245C31.6826 354.74 32.6013 352.244 33.5388 349.757L32.6052 349.404C33.5458 346.909 34.5039 344.421 35.4832 341.943L36.4128 342.311C37.3919 339.833 38.3905 337.365 39.408 334.905L38.4861 334.523C39.4916 332.093 40.5138 329.67 41.5564 327.257L41.5994 327.157L42.5173 327.554C43.5732 325.111 44.6483 322.679 45.7419 320.255L44.8318 319.844C45.9294 317.411 47.0443 314.988 48.1794 312.574L49.0847 313C50.2177 310.591 51.3696 308.192 52.5398 305.803L51.6433 305.362C52.8156 302.968 54.0044 300.583 55.2136 298.209L55.2146 298.21L56.1052 298.664C57.3137 296.291 58.5408 293.928 59.7859 291.575L58.9041 291.108C60.1515 288.751 61.4153 286.403 62.699 284.066L63.575 284.548C64.8561 282.216 66.1554 279.894 67.4724 277.582L66.6062 277.088C67.9264 274.771 69.2621 272.463 70.6179 270.167L71.4792 270.676C72.8326 268.384 74.204 266.102 75.5925 263.832L74.741 263.312C76.1322 261.037 77.5395 258.772 78.9656 256.519L79.8103 257.053C81.2336 254.804 82.6748 252.566 84.1326 250.34L83.2966 249.794C84.7574 247.563 86.2343 245.342 87.7292 243.134L88.5564 243.694C90.0483 241.49 91.5571 239.298 93.0828 237.116L92.2654 236.544C93.7935 234.359 95.3376 232.185 96.8992 230.023L97.7087 230.608C99.2666 228.452 100.841 226.307 102.432 224.174L101.633 223.576C103.226 221.439 104.836 219.313 106.463 217.199L107.255 217.809C108.878 215.699 110.518 213.602 112.174 211.517L111.391 210.896C113.048 208.808 114.721 206.733 116.41 204.67L117.183 205.304C118.869 203.245 120.571 201.198 122.288 199.164L121.525 198.52C123.246 196.481 124.982 194.456 126.734 192.442L127.487 193.099C129.233 191.093 130.995 189.098 132.771 187.117L132.027 186.451C133.807 184.467 135.602 182.495 137.412 180.536L138.145 181.214C139.952 179.259 141.774 177.316 143.611 175.387L142.887 174.698C144.725 172.768 146.577 170.851 148.444 168.947L149.157 169.646C151.019 167.747 152.897 165.862 154.789 163.989L154.085 163.278C155.98 161.402 157.89 159.54 159.814 157.69L160.507 158.41C162.425 156.566 164.358 154.736 166.304 152.919L165.622 152.188C167.569 150.371 169.532 148.568 171.508 146.777L172.177 147.517C174.149 145.729 176.136 143.956 178.135 142.196L177.474 141.446C179.477 139.684 181.494 137.937 183.523 136.203L184.172 136.963C186.193 135.236 188.227 133.523 190.275 131.824L189.636 131.055C191.688 129.353 193.754 127.667 195.832 125.994L196.459 126.771C198.533 125.1 200.62 123.444 202.72 121.803L202.105 121.015C204.203 119.375 206.314 117.751 208.437 116.141L209.041 116.937C211.16 115.329 213.292 113.736 215.436 112.157L214.844 111.353C216.992 109.772 219.153 108.205 221.326 106.653L221.907 107.466C224.071 105.921 226.247 104.391 228.435 102.875L227.867 102.054C230.056 100.537 232.258 99.0354 234.471 97.5488L235.029 98.3779C237.239 96.894 239.461 95.4256 241.695 93.9717L241.15 93.1348C242.478 92.2706 243.808 91.4101 245.144 90.5566L247.886 88.8164L248.42 89.6621C250.667 88.2445 252.927 86.8423 255.198 85.4551L254.677 84.6035C256.952 83.2139 259.238 81.8383 261.535 80.4795L262.044 81.3398C264.336 79.9841 266.64 78.6431 268.955 77.3184L268.458 76.4521C270.767 75.1303 273.087 73.8239 275.419 72.5332L275.902 73.4072C278.229 72.1189 280.567 70.8458 282.916 69.5889L282.444 68.708C284.797 67.4488 287.161 66.207 289.535 64.9795L289.993 65.8662C292.353 64.6459 294.724 63.4415 297.104 62.2529L296.657 61.3574C299.04 60.1678 301.434 58.9965 303.837 57.8389L304.269 58.7383C306.668 57.5828 309.077 56.4426 311.496 55.3193L311.074 54.4141C313.491 53.2918 315.917 52.1856 318.353 51.0957L318.761 52.0078C321.186 50.923 323.621 49.8541 326.065 48.8018L325.67 47.8848C328.118 46.8304 330.576 45.7911 333.044 44.7695L333.426 45.6934C335.886 44.6747 338.357 43.6722 340.837 42.6865L340.467 41.7598C342.938 40.7773 345.418 39.8108 347.907 38.8613L348.263 39.7939C350.748 38.8463 353.242 37.9154 355.744 37.001L355.4 36.0625C357.907 35.1465 360.423 34.2487 362.947 33.3662L363.277 34.3076C365.784 33.4312 368.299 32.5714 370.823 31.7285L370.507 30.7812C373.031 29.9381 375.564 29.1122 378.105 28.3027L378.409 29.2539C380.946 28.4459 383.491 27.655 386.044 26.8809L385.754 25.9258C388.304 25.1525 390.861 24.3935 393.427 23.6543L393.428 23.6553L393.705 24.6162C396.256 23.8815 398.814 23.1636 401.381 22.4629L401.117 21.5C403.688 20.798 406.266 20.1129 408.852 19.4453L409.102 20.4121C411.684 19.7457 414.273 19.0967 416.869 18.4648L416.633 17.4932L416.632 17.4922C419.212 16.8641 421.801 16.2558 424.396 15.6621L424.619 16.6348C427.209 16.0421 429.807 15.4672 432.412 14.9092L432.202 13.9326C434.811 13.3736 437.427 12.8298 440.05 12.3057L440.051 12.3066L440.246 13.2871C442.852 12.7664 445.465 12.2623 448.085 11.7764L447.902 10.7949C450.516 10.31 453.137 9.84362 455.763 9.39355L455.932 10.377C458.555 9.92764 461.184 9.49531 463.819 9.08105L463.664 8.09375C466.301 7.67911 468.945 7.28264 471.595 6.90332L471.737 7.89258C474.36 7.5171 476.99 7.15891 479.625 6.81836L479.497 5.82812C482.137 5.48696 484.783 5.16333 487.434 4.85742L487.549 5.84961C490.195 5.54425 492.848 5.25625 495.507 4.98633L495.406 3.99219C498.053 3.72344 500.705 3.47365 503.363 3.24023L503.451 4.23438C506.094 4.00229 508.742 3.78767 511.395 3.59082L511.321 2.59473C513.979 2.39754 516.642 2.2173 519.31 2.05566L519.371 3.05273C522.033 2.89149 524.7 2.74861 527.372 2.62305L527.325 1.625C529.974 1.50051 532.628 1.39489 535.287 1.30566L535.321 2.30273C537.975 2.21366 540.635 2.14249 543.299 2.08887L543.278 1.09082C545.947 1.0371 548.62 0.999413 551.298 0.981445L551.304 1.98145C552.641 1.97248 553.978 1.96777 555.317 1.96777C556.656 1.96777 557.993 1.97248 559.33 1.98145L559.336 0.981445C562.013 0.999406 564.686 1.03711 567.354 1.09082L567.335 2.08887C569.999 2.14249 572.659 2.21366 575.313 2.30273L575.345 1.30566C578.005 1.39489 580.659 1.5005 583.308 1.625L583.262 2.62305C585.934 2.7486 588.601 2.89151 591.262 3.05273L591.322 2.05566C593.99 2.21729 596.653 2.39755 599.311 2.59473L599.239 3.59082C601.892 3.78767 604.541 4.00229 607.183 4.23438L607.269 3.24023C609.927 3.47367 612.58 3.72341 615.227 3.99219L615.127 4.98633C617.785 5.25624 620.438 5.54328 623.085 5.84863L623.199 4.85742C625.85 5.16329 628.496 5.48701 631.135 5.82812L631.009 6.81836C633.644 7.15892 636.274 7.51708 638.897 7.89258L639.038 6.90332C641.688 7.28258 644.331 7.67917 646.969 8.09375L646.814 9.08105C649.449 9.49531 652.078 9.92764 654.701 10.377L654.869 9.39258C657.496 9.8427 660.117 10.3099 662.731 10.7949L662.55 11.7764C665.169 12.2623 667.782 12.7664 670.387 13.2871L670.584 12.3066V12.3057C673.206 12.8297 675.822 13.3737 678.43 13.9326L678.222 14.9092C680.827 15.4672 683.424 16.0422 686.014 16.6348L686.237 15.6621C688.832 16.2558 691.421 16.8641 694.002 17.4922V17.4932L693.765 18.4648C696.362 19.0967 698.951 19.7457 701.532 20.4121L701.781 19.4453C704.367 20.1128 706.945 20.7972 709.515 21.499L709.254 22.4629C711.82 23.1635 714.378 23.8815 716.928 24.6162L717.206 23.6553V23.6543C719.772 24.3935 722.329 25.1525 724.88 25.9258L724.59 26.8809C727.143 27.655 729.689 28.4458 732.225 29.2539L732.527 28.3027C735.069 29.1123 737.602 29.938 740.127 30.7812L739.81 31.7285C742.334 32.5714 744.85 33.4313 747.356 34.3076L747.685 33.3652C750.21 34.2477 752.725 35.1464 755.232 36.0625L754.89 37.001C757.393 37.9154 759.886 38.8463 762.371 39.7939L762.726 38.8613C765.215 39.8106 767.695 40.7765 770.166 41.7588L769.798 42.6865C772.277 43.6722 774.747 44.6747 777.208 45.6934L777.59 44.7695C780.057 45.7909 782.514 46.8296 784.963 47.8838L784.568 48.8018C787.012 49.854 789.447 50.9221 791.872 52.0068L792.28 51.0957C794.716 52.1854 797.142 53.291 799.558 54.4131L799.138 55.3193C801.557 56.4426 803.965 57.5828 806.364 58.7383L806.797 57.8389C809.2 58.9964 811.594 60.1669 813.976 61.3564V61.3574L813.53 62.252C815.911 63.4405 818.281 64.645 820.641 65.8652L821.098 64.9795C823.472 66.207 825.837 67.4488 828.189 68.708L827.719 69.5889C830.067 70.8458 832.404 72.119 834.731 73.4072L835.215 72.5332C837.546 73.8238 839.865 75.1305 842.175 76.4521L841.679 77.3184C843.994 78.6431 846.297 79.9841 848.59 81.3398L849.097 80.4785C851.395 81.8376 853.681 83.2137 855.956 84.6035L855.436 85.4551C857.707 86.8422 859.966 88.2446 862.214 89.6621L862.747 88.8164C865.004 90.2402 867.249 91.6807 869.483 93.1348L868.939 93.9717C871.173 95.4256 873.395 96.894 875.605 98.3779L876.161 97.5479C878.375 99.0346 880.576 100.537 882.766 102.054L882.198 102.875C884.386 104.39 886.563 105.921 888.726 107.466L889.306 106.653C891.48 108.205 893.641 109.771 895.789 111.353L895.198 112.157C897.342 113.736 899.475 115.328 901.594 116.936L902.195 116.141C904.319 117.751 906.43 119.375 908.528 121.015L907.913 121.803C910.013 123.444 912.101 125.1 914.176 126.771L914.801 125.993C916.879 127.667 918.944 129.353 920.996 131.055L920.359 131.824C922.407 133.523 924.441 135.235 926.462 136.962L927.109 136.203C929.139 137.937 931.156 139.684 933.158 141.445L932.499 142.196C934.498 143.956 936.484 145.73 938.456 147.517L939.125 146.777C941.1 148.568 943.063 150.371 945.01 152.188L944.33 152.919C946.277 154.736 948.209 156.566 950.128 158.41L950.818 157.69C952.742 159.54 954.652 161.402 956.548 163.278L955.845 163.988C957.737 165.861 959.614 167.747 961.476 169.646L962.188 168.947C964.055 170.851 965.909 172.767 967.746 174.697L967.023 175.387C968.86 177.316 970.681 179.259 972.488 181.214L973.22 180.536C975.03 182.495 976.826 184.466 978.605 186.45L977.863 187.117C979.64 189.098 981.401 191.092 983.146 193.098L983.899 192.442C985.651 194.456 987.387 196.481 989.108 198.52L988.345 199.163C990.063 201.197 991.765 203.244 993.451 205.303L994.223 204.67C995.912 206.733 997.585 208.808 999.242 210.896L998.461 211.516C1000.12 213.601 1001.76 215.699 1003.38 217.809L1004.17 217.199C1005.8 219.313 1007.41 221.439 1009 223.576L1008.2 224.173C1009.79 226.306 1011.37 228.452 1012.92 230.608L1013.73 230.022C1015.3 232.185 1016.84 234.359 1018.37 236.544L1017.55 237.116C1019.08 239.297 1020.59 241.49 1022.08 243.694L1022.9 243.134C1024.4 245.342 1025.88 247.562 1027.34 249.793L1026.5 250.34C1027.96 252.566 1029.4 254.804 1030.82 257.053L1031.67 256.518C1033.09 258.771 1034.5 261.036 1035.89 263.311L1035.04 263.832C1036.43 266.102 1037.8 268.383 1039.16 270.675L1040.01 270.167C1041.37 272.463 1042.71 274.77 1044.03 277.087L1043.16 277.581C1044.48 279.893 1045.78 282.215 1047.06 284.548L1047.93 284.066C1049.22 286.403 1050.48 288.751 1051.73 291.108L1050.85 291.575C1052.09 293.928 1053.32 296.29 1054.53 298.663L1055.42 298.21C1056.63 300.584 1057.82 302.969 1058.99 305.363L1058.09 305.802C1059.26 308.191 1060.42 310.591 1061.55 313L1062.45 312.574V312.573C1063.59 314.987 1064.7 317.41 1065.8 319.843L1064.89 320.254C1065.99 322.678 1067.06 325.111 1068.12 327.554L1069.03 327.156C1070.09 329.602 1071.13 332.059 1072.15 334.523L1071.23 334.904C1072.24 337.364 1073.24 339.833 1074.22 342.311L1075.15 341.942C1076.13 344.42 1077.09 346.908 1078.03 349.403L1077.1 349.757C1078.03 352.244 1078.95 354.741 1079.85 357.245L1080.79 356.907C1081.69 359.417 1082.57 361.935 1083.43 364.462L1082.49 364.784C1083.35 367.302 1084.18 369.829 1085 372.364L1085.95 372.057C1086.77 374.59 1087.57 377.131 1088.35 379.681L1087.39 379.973C1088.17 382.517 1088.93 385.068 1089.67 387.628L1090.62 387.352C1091.36 389.915 1092.08 392.487 1092.78 395.066L1091.82 395.328C1092.51 397.89 1093.18 400.46 1093.84 403.037L1094.8 402.791C1095.46 405.374 1096.1 407.963 1096.71 410.561L1095.74 410.79C1096.35 413.382 1096.94 415.981 1097.52 418.587L1098.49 418.373C1099.06 420.971 1099.61 423.576 1100.14 426.188H1100.14L1099.16 426.387C1099.69 428.99 1100.2 431.601 1100.68 434.218L1101.66 434.035C1102.15 436.658 1102.62 439.287 1103.07 441.923L1102.08 442.09C1102.53 444.71 1102.95 447.336 1103.35 449.969L1104.34 449.818C1104.74 452.447 1105.12 455.082 1105.48 457.723L1104.49 457.858C1104.85 460.494 1105.19 463.136 1105.51 465.784L1106.5 465.665C1106.82 468.313 1107.12 470.967 1107.39 473.627L1106.4 473.73C1106.68 476.367 1106.93 479.009 1107.16 481.656L1108.16 481.569Z" stroke="#E0E0E0" stroke-width="2" stroke-dasharray="8 8"/>
</svg>
