<svg width="71" height="47" viewBox="0 0 71 47" fill="none" xmlns="http://www.w3.org/2000/svg">
<g filter="url(#filter0_d_149_255)">
<rect x="9.22852" y="7.04883" width="52.7024" height="28.2079" rx="7" fill="white"/>
</g>
<path d="M25.1003 20.928H20.4773C20.2729 20.928 20.0769 21.008 19.9324 21.1505C19.7879 21.293 19.7068 21.4862 19.7068 21.6876C19.7068 21.8891 19.7879 22.0823 19.9324 22.2248C20.0769 22.3672 20.2729 22.4473 20.4773 22.4473H25.1003C25.3046 22.4473 25.5006 22.3672 25.6451 22.2248C25.7896 22.0823 25.8708 21.8891 25.8708 21.6876C25.8708 21.4862 25.7896 21.293 25.6451 21.1505C25.5006 21.008 25.3046 20.928 25.1003 20.928ZM28.1823 17.8895H20.4773C20.2729 17.8895 20.0769 17.9695 19.9324 18.112C19.7879 18.2544 19.7068 18.4476 19.7068 18.6491C19.7068 18.8506 19.7879 19.0438 19.9324 19.1863C20.0769 19.3287 20.2729 19.4087 20.4773 19.4087H28.1823C28.3866 19.4087 28.5826 19.3287 28.7271 19.1863C28.8716 19.0438 28.9528 18.8506 28.9528 18.6491C28.9528 18.4476 28.8716 18.2544 28.7271 18.112C28.5826 17.9695 28.3866 17.8895 28.1823 17.8895ZM29.7233 14.0913H18.9363C18.3232 14.0913 17.7353 14.3314 17.3018 14.7588C16.8683 15.1862 16.6248 15.7658 16.6248 16.3702V23.9665C16.6248 24.5709 16.8683 25.1506 17.3018 25.578C17.7353 26.0054 18.3232 26.2454 18.9363 26.2454H27.8664L30.7172 29.0637C30.7892 29.1341 30.8746 29.1898 30.9685 29.2276C31.0624 29.2654 31.1629 29.2846 31.2643 29.284C31.3654 29.2866 31.4656 29.2657 31.5571 29.2232C31.6978 29.1662 31.8182 29.0694 31.9033 28.9451C31.9883 28.8207 32.034 28.6743 32.0348 28.5243V16.3702C32.0348 15.7658 31.7913 15.1862 31.3578 14.7588C30.9243 14.3314 30.3363 14.0913 29.7233 14.0913ZM30.4938 26.6936L28.7293 24.9465C28.6574 24.8761 28.572 24.8204 28.4781 24.7826C28.3842 24.7448 28.2837 24.7256 28.1823 24.7262H18.9363C18.7319 24.7262 18.5359 24.6461 18.3914 24.5037C18.2469 24.3612 18.1658 24.168 18.1658 23.9665V16.3702C18.1658 16.1687 18.2469 15.9755 18.3914 15.8331C18.5359 15.6906 18.7319 15.6106 18.9363 15.6106H29.7233C29.9276 15.6106 30.1236 15.6906 30.2681 15.8331C30.4126 15.9755 30.4938 16.1687 30.4938 16.3702V26.6936Z" fill="#0D99FF"/>
<path d="M42.2494 25.9386C41.4601 25.9386 40.6868 25.8266 39.9294 25.6026C39.1828 25.3679 38.5534 25.0479 38.0414 24.6426L38.9374 23.0266C39.3428 23.3572 39.8334 23.6239 40.4094 23.8266C40.9854 24.0292 41.5881 24.1306 42.2174 24.1306C42.9641 24.1306 43.5454 23.9812 43.9614 23.6826C44.3774 23.3732 44.5854 22.9572 44.5854 22.4346C44.5854 21.9226 44.3934 21.5172 44.0094 21.2186C43.6254 20.9199 43.0068 20.7706 42.1534 20.7706H41.1294V19.3466L44.3294 15.5386L44.6014 16.3226H38.5854V14.5786H46.2174V15.9706L43.0174 19.7786L41.9294 19.1386H42.5534C43.9294 19.1386 44.9588 19.4479 45.6414 20.0666C46.3348 20.6746 46.6814 21.4586 46.6814 22.4186C46.6814 23.0479 46.5214 23.6292 46.2014 24.1626C45.8814 24.6959 45.3908 25.1279 44.7294 25.4586C44.0788 25.7786 43.2521 25.9386 42.2494 25.9386ZM50.2339 25.7786V15.3786L51.1459 16.3226H47.8659V14.5786H52.3139V25.7786H50.2339Z" fill="#939393"/>
<defs>
<filter id="filter0_d_149_255" x="0.228516" y="0.0488281" width="70.7024" height="46.2078" filterUnits="userSpaceOnUse" color-interpolation-filters="sRGB">
<feFlood flood-opacity="0" result="BackgroundImageFix"/>
<feColorMatrix in="SourceAlpha" type="matrix" values="0 0 0 0 0 0 0 0 0 0 0 0 0 0 0 0 0 0 127 0" result="hardAlpha"/>
<feOffset dy="2"/>
<feGaussianBlur stdDeviation="4.5"/>
<feComposite in2="hardAlpha" operator="out"/>
<feColorMatrix type="matrix" values="0 0 0 0 0 0 0 0 0 0 0 0 0 0 0 0 0 0 0.25 0"/>
<feBlend mode="normal" in2="BackgroundImageFix" result="effect1_dropShadow_149_255"/>
<feBlend mode="normal" in="SourceGraphic" in2="effect1_dropShadow_149_255" result="shape"/>
</filter>
</defs>
</svg>
