<svg width="71" height="47" viewBox="0 0 71 47" fill="none" xmlns="http://www.w3.org/2000/svg">
<g filter="url(#filter0_d_149_259)">
<rect x="9.17834" y="7.55225" width="52.7024" height="28.2079" rx="7" fill="white"/>
</g>
<path d="M25.0501 21.3499H20.4271C20.2227 21.3499 20.0268 21.4299 19.8823 21.5724C19.7378 21.7148 19.6566 21.9081 19.6566 22.1095C19.6566 22.311 19.7378 22.5042 19.8823 22.6467C20.0268 22.7891 20.2227 22.8692 20.4271 22.8692H25.0501C25.2545 22.8692 25.4504 22.7891 25.5949 22.6467C25.7394 22.5042 25.8206 22.311 25.8206 22.1095C25.8206 21.9081 25.7394 21.7148 25.5949 21.5724C25.4504 21.4299 25.2545 21.3499 25.0501 21.3499ZM28.1321 18.3114H20.4271C20.2227 18.3114 20.0268 18.3914 19.8823 18.5338C19.7378 18.6763 19.6566 18.8695 19.6566 19.071C19.6566 19.2725 19.7378 19.4657 19.8823 19.6081C20.0268 19.7506 20.2227 19.8306 20.4271 19.8306H28.1321C28.3365 19.8306 28.5324 19.7506 28.6769 19.6081C28.8214 19.4657 28.9026 19.2725 28.9026 19.071C28.9026 18.8695 28.8214 18.6763 28.6769 18.5338C28.5324 18.3914 28.3365 18.3114 28.1321 18.3114ZM29.6731 14.5132H18.8861C18.273 14.5132 17.6851 14.7533 17.2516 15.1807C16.8181 15.608 16.5746 16.1877 16.5746 16.7921V24.3884C16.5746 24.9928 16.8181 25.5725 17.2516 25.9998C17.6851 26.4272 18.273 26.6673 18.8861 26.6673H27.8162L30.6671 29.4856C30.7391 29.556 30.8245 29.6117 30.9183 29.6495C31.0122 29.6873 31.1127 29.7064 31.2141 29.7059C31.3152 29.7084 31.4155 29.6876 31.5069 29.6451C31.6476 29.5881 31.7681 29.4913 31.8531 29.367C31.9381 29.2426 31.9839 29.0962 31.9846 28.9462V16.7921C31.9846 16.1877 31.7411 15.608 31.3076 15.1807C30.8741 14.7533 30.2862 14.5132 29.6731 14.5132ZM30.4436 27.1155L28.6792 25.3684C28.6072 25.2979 28.5218 25.2422 28.4279 25.2044C28.334 25.1666 28.2335 25.1475 28.1321 25.1481H18.8861C18.6817 25.1481 18.4858 25.068 18.3413 24.9256C18.1968 24.7831 18.1156 24.5899 18.1156 24.3884V16.7921C18.1156 16.5906 18.1968 16.3974 18.3413 16.2549C18.4858 16.1125 18.6817 16.0325 18.8861 16.0325H29.6731C29.8775 16.0325 30.0735 16.1125 30.218 16.2549C30.3624 16.3974 30.4436 16.5906 30.4436 16.7921V27.1155Z" fill="#F4CE9B"/>
<path d="M39.8374 26.2822V15.8822L40.7494 16.8262H37.4694V15.0822H41.9174V26.2822H39.8374ZM49.2111 26.4422C48.3258 26.4422 47.5258 26.2182 46.8111 25.7702C46.1071 25.3222 45.5524 24.6716 45.1471 23.8182C44.7418 22.9542 44.5391 21.9089 44.5391 20.6822C44.5391 19.4556 44.7418 18.4156 45.1471 17.5622C45.5524 16.6982 46.1071 16.0422 46.8111 15.5942C47.5258 15.1462 48.3258 14.9222 49.2111 14.9222C50.1071 14.9222 50.9071 15.1462 51.6111 15.5942C52.3151 16.0422 52.8698 16.6982 53.2751 17.5622C53.6911 18.4156 53.8991 19.4556 53.8991 20.6822C53.8991 21.9089 53.6911 22.9542 53.2751 23.8182C52.8698 24.6716 52.3151 25.3222 51.6111 25.7702C50.9071 26.2182 50.1071 26.4422 49.2111 26.4422ZM49.2111 24.6342C49.7338 24.6342 50.1871 24.4956 50.5711 24.2182C50.9551 23.9302 51.2538 23.4929 51.4671 22.9062C51.6911 22.3196 51.8031 21.5782 51.8031 20.6822C51.8031 19.7756 51.6911 19.0342 51.4671 18.4582C51.2538 17.8716 50.9551 17.4396 50.5711 17.1622C50.1871 16.8742 49.7338 16.7302 49.2111 16.7302C48.7098 16.7302 48.2618 16.8742 47.8671 17.1622C47.4831 17.4396 47.1791 17.8716 46.9551 18.4582C46.7418 19.0342 46.6351 19.7756 46.6351 20.6822C46.6351 21.5782 46.7418 22.3196 46.9551 22.9062C47.1791 23.4929 47.4831 23.9302 47.8671 24.2182C48.2618 24.4956 48.7098 24.6342 49.2111 24.6342Z" fill="#939393"/>
<defs>
<filter id="filter0_d_149_259" x="0.178345" y="0.552246" width="70.7024" height="46.2078" filterUnits="userSpaceOnUse" color-interpolation-filters="sRGB">
<feFlood flood-opacity="0" result="BackgroundImageFix"/>
<feColorMatrix in="SourceAlpha" type="matrix" values="0 0 0 0 0 0 0 0 0 0 0 0 0 0 0 0 0 0 127 0" result="hardAlpha"/>
<feOffset dy="2"/>
<feGaussianBlur stdDeviation="4.5"/>
<feComposite in2="hardAlpha" operator="out"/>
<feColorMatrix type="matrix" values="0 0 0 0 0 0 0 0 0 0 0 0 0 0 0 0 0 0 0.25 0"/>
<feBlend mode="normal" in2="BackgroundImageFix" result="effect1_dropShadow_149_259"/>
<feBlend mode="normal" in="SourceGraphic" in2="effect1_dropShadow_149_259" result="shape"/>
</filter>
</defs>
</svg>
