<svg width="161" height="48" viewBox="0 0 161 48" fill="none" xmlns="http://www.w3.org/2000/svg">
<g filter="url(#filter0_d_149_179)">
<rect x="9.70361" y="7.82031" width="141.464" height="28.2079" rx="14.1039" fill="#EFFFF3"/>
<rect x="10.2036" y="8.32031" width="140.464" height="27.2079" rx="13.6039" stroke="#228439"/>
</g>
<path d="M25.4224 14.7964C21.1847 14.7964 17.7174 18.2086 17.7174 22.3791C17.7174 26.5497 21.1847 29.9619 25.4224 29.9619C29.6602 29.9619 33.1275 26.5497 33.1275 22.3791C33.1275 18.2086 29.6602 14.7964 25.4224 14.7964ZM23.8814 26.1705L20.0289 22.3791L21.1153 21.31L23.8814 24.0246L29.7295 18.2693L30.8159 19.346L23.8814 26.1705Z" fill="#228439"/>
<path d="M56.3243 18.9997C55.8977 18.9997 55.5003 18.9303 55.1323 18.7917C54.7697 18.6477 54.4523 18.4477 54.1803 18.1917C53.9137 17.9303 53.7057 17.6237 53.5563 17.2717C53.407 16.9197 53.3323 16.5357 53.3323 16.1197C53.3323 15.7037 53.407 15.3197 53.5563 14.9677C53.7057 14.6157 53.9163 14.3117 54.1883 14.0557C54.4603 13.7943 54.7777 13.5943 55.1403 13.4557C55.503 13.3117 55.9003 13.2397 56.3323 13.2397C56.791 13.2397 57.2097 13.3197 57.5883 13.4797C57.967 13.6343 58.287 13.8663 58.5483 14.1757L57.8763 14.8077C57.6737 14.589 57.447 14.4263 57.1963 14.3197C56.9457 14.2077 56.6737 14.1517 56.3803 14.1517C56.087 14.1517 55.8177 14.1997 55.5723 14.2957C55.3323 14.3917 55.1217 14.5277 54.9403 14.7037C54.7643 14.8797 54.6257 15.0877 54.5243 15.3277C54.4283 15.5677 54.3803 15.8317 54.3803 16.1197C54.3803 16.4077 54.4283 16.6717 54.5243 16.9117C54.6257 17.1517 54.7643 17.3597 54.9403 17.5357C55.1217 17.7117 55.3323 17.8477 55.5723 17.9437C55.8177 18.0397 56.087 18.0877 56.3803 18.0877C56.6737 18.0877 56.9457 18.0343 57.1963 17.9277C57.447 17.8157 57.6737 17.6477 57.8763 17.4237L58.5483 18.0637C58.287 18.3677 57.967 18.5997 57.5883 18.7597C57.2097 18.9197 56.7883 18.9997 56.3243 18.9997ZM61.4048 18.9757C60.9674 18.9757 60.5781 18.8823 60.2368 18.6957C59.8954 18.5037 59.6261 18.2423 59.4288 17.9117C59.2314 17.581 59.1328 17.205 59.1328 16.7837C59.1328 16.357 59.2314 15.981 59.4288 15.6557C59.6261 15.325 59.8954 15.0663 60.2368 14.8797C60.5781 14.693 60.9674 14.5997 61.4048 14.5997C61.8474 14.5997 62.2394 14.693 62.5808 14.8797C62.9274 15.0663 63.1968 15.3223 63.3888 15.6477C63.5861 15.973 63.6848 16.3517 63.6848 16.7837C63.6848 17.205 63.5861 17.581 63.3888 17.9117C63.1968 18.2423 62.9274 18.5037 62.5808 18.6957C62.2394 18.8823 61.8474 18.9757 61.4048 18.9757ZM61.4048 18.1197C61.6501 18.1197 61.8688 18.0663 62.0608 17.9597C62.2528 17.853 62.4021 17.6983 62.5088 17.4957C62.6208 17.293 62.6768 17.0557 62.6768 16.7837C62.6768 16.5063 62.6208 16.269 62.5088 16.0717C62.4021 15.869 62.2528 15.7143 62.0608 15.6077C61.8688 15.501 61.6528 15.4477 61.4128 15.4477C61.1674 15.4477 60.9488 15.501 60.7568 15.6077C60.5701 15.7143 60.4208 15.869 60.3088 16.0717C60.1968 16.269 60.1408 16.5063 60.1408 16.7837C60.1408 17.0557 60.1968 17.293 60.3088 17.4957C60.4208 17.6983 60.5701 17.853 60.7568 17.9597C60.9488 18.0663 61.1648 18.1197 61.4048 18.1197ZM67.265 14.5997C67.6064 14.5997 67.9104 14.6663 68.177 14.7997C68.449 14.933 68.6624 15.1383 68.817 15.4157C68.9717 15.6877 69.049 16.0397 69.049 16.4717V18.9197H68.049V16.5997C68.049 16.221 67.9584 15.9383 67.777 15.7517C67.601 15.565 67.353 15.4717 67.033 15.4717C66.7984 15.4717 66.5904 15.5197 66.409 15.6157C66.2277 15.7117 66.0864 15.8557 65.985 16.0477C65.889 16.2343 65.841 16.4717 65.841 16.7597V18.9197H64.841V14.6477H65.793V15.7997L65.625 15.4477C65.7744 15.1757 65.9904 14.9677 66.273 14.8237C66.561 14.6743 66.8917 14.5997 67.265 14.5997ZM72.9416 14.5997C73.2829 14.5997 73.5869 14.6663 73.8536 14.7997C74.1256 14.933 74.3389 15.1383 74.4936 15.4157C74.6482 15.6877 74.7256 16.0397 74.7256 16.4717V18.9197H73.7256V16.5997C73.7256 16.221 73.6349 15.9383 73.4536 15.7517C73.2776 15.565 73.0296 15.4717 72.7096 15.4717C72.4749 15.4717 72.2669 15.5197 72.0856 15.6157C71.9042 15.7117 71.7629 15.8557 71.6616 16.0477C71.5656 16.2343 71.5176 16.4717 71.5176 16.7597V18.9197H70.5176V14.6477H71.4696V15.7997L71.3016 15.4477C71.4509 15.1757 71.6669 14.9677 71.9496 14.8237C72.2376 14.6743 72.5682 14.5997 72.9416 14.5997ZM78.21 18.9757C77.7353 18.9757 77.3193 18.8823 76.962 18.6957C76.61 18.5037 76.3353 18.2423 76.138 17.9117C75.946 17.581 75.85 17.205 75.85 16.7837C75.85 16.357 75.9433 15.981 76.13 15.6557C76.322 15.325 76.5833 15.0663 76.914 14.8797C77.25 14.693 77.6313 14.5997 78.058 14.5997C78.474 14.5997 78.8446 14.6903 79.17 14.8717C79.4953 15.053 79.7513 15.309 79.938 15.6397C80.1246 15.9703 80.218 16.3597 80.218 16.8077C80.218 16.8503 80.2153 16.8983 80.21 16.9517C80.21 17.005 80.2073 17.0557 80.202 17.1037H76.642V16.4397H79.674L79.282 16.6477C79.2873 16.4023 79.2366 16.1863 79.13 15.9997C79.0233 15.813 78.8766 15.6663 78.69 15.5597C78.5086 15.453 78.298 15.3997 78.058 15.3997C77.8126 15.3997 77.5966 15.453 77.41 15.5597C77.2286 15.6663 77.0846 15.8157 76.978 16.0077C76.8766 16.1943 76.826 16.4157 76.826 16.6717V16.8317C76.826 17.0877 76.8846 17.3143 77.002 17.5117C77.1193 17.709 77.2846 17.861 77.498 17.9677C77.7113 18.0743 77.9566 18.1277 78.234 18.1277C78.474 18.1277 78.69 18.0903 78.882 18.0157C79.074 17.941 79.2446 17.8237 79.394 17.6637L79.93 18.2797C79.738 18.5037 79.4953 18.677 79.202 18.7997C78.914 18.917 78.5833 18.9757 78.21 18.9757ZM83.3385 18.9757C82.8905 18.9757 82.4905 18.8823 82.1385 18.6957C81.7919 18.5037 81.5199 18.2423 81.3225 17.9117C81.1252 17.581 81.0265 17.205 81.0265 16.7837C81.0265 16.357 81.1252 15.981 81.3225 15.6557C81.5199 15.325 81.7919 15.0663 82.1385 14.8797C82.4905 14.693 82.8905 14.5997 83.3385 14.5997C83.7545 14.5997 84.1199 14.685 84.4345 14.8557C84.7545 15.021 84.9972 15.2663 85.1625 15.5917L84.3945 16.0397C84.2665 15.837 84.1092 15.6877 83.9225 15.5917C83.7412 15.4957 83.5439 15.4477 83.3305 15.4477C83.0852 15.4477 82.8639 15.501 82.6665 15.6077C82.4692 15.7143 82.3145 15.869 82.2025 16.0717C82.0905 16.269 82.0345 16.5063 82.0345 16.7837C82.0345 17.061 82.0905 17.301 82.2025 17.5037C82.3145 17.701 82.4692 17.853 82.6665 17.9597C82.8639 18.0663 83.0852 18.1197 83.3305 18.1197C83.5439 18.1197 83.7412 18.0717 83.9225 17.9757C84.1092 17.8797 84.2665 17.7303 84.3945 17.5277L85.1625 17.9757C84.9972 18.2957 84.7545 18.5437 84.4345 18.7197C84.1199 18.8903 83.7545 18.9757 83.3385 18.9757ZM87.8896 18.9757C87.4203 18.9757 87.0576 18.8557 86.8016 18.6157C86.5456 18.3703 86.4176 18.0103 86.4176 17.5357V13.7037H87.4176V17.5117C87.4176 17.7143 87.4683 17.8717 87.5696 17.9837C87.6763 18.0957 87.823 18.1517 88.0096 18.1517C88.2336 18.1517 88.4203 18.093 88.5696 17.9757L88.8496 18.6877C88.7323 18.7837 88.5883 18.8557 88.4176 18.9037C88.247 18.9517 88.071 18.9757 87.8896 18.9757ZM85.7136 15.4797V14.6797H88.5616V15.4797H85.7136ZM91.7396 18.9757C91.265 18.9757 90.849 18.8823 90.4916 18.6957C90.1396 18.5037 89.865 18.2423 89.6676 17.9117C89.4756 17.581 89.3796 17.205 89.3796 16.7837C89.3796 16.357 89.473 15.981 89.6596 15.6557C89.8516 15.325 90.113 15.0663 90.4436 14.8797C90.7796 14.693 91.161 14.5997 91.5876 14.5997C92.0036 14.5997 92.3743 14.6903 92.6996 14.8717C93.025 15.053 93.281 15.309 93.4676 15.6397C93.6543 15.9703 93.7476 16.3597 93.7476 16.8077C93.7476 16.8503 93.745 16.8983 93.7396 16.9517C93.7396 17.005 93.737 17.0557 93.7316 17.1037H90.1716V16.4397H93.2036L92.8116 16.6477C92.817 16.4023 92.7663 16.1863 92.6596 15.9997C92.553 15.813 92.4063 15.6663 92.2196 15.5597C92.0383 15.453 91.8276 15.3997 91.5876 15.3997C91.3423 15.3997 91.1263 15.453 90.9396 15.5597C90.7583 15.6663 90.6143 15.8157 90.5076 16.0077C90.4063 16.1943 90.3556 16.4157 90.3556 16.6717V16.8317C90.3556 17.0877 90.4143 17.3143 90.5316 17.5117C90.649 17.709 90.8143 17.861 91.0276 17.9677C91.241 18.0743 91.4863 18.1277 91.7636 18.1277C92.0036 18.1277 92.2196 18.0903 92.4116 18.0157C92.6036 17.941 92.7743 17.8237 92.9236 17.6637L93.4596 18.2797C93.2676 18.5037 93.025 18.677 92.7316 18.7997C92.4436 18.917 92.113 18.9757 91.7396 18.9757ZM96.7162 18.9757C96.3055 18.9757 95.9349 18.885 95.6042 18.7037C95.2789 18.517 95.0229 18.261 94.8362 17.9357C94.6495 17.6103 94.5562 17.2263 94.5562 16.7837C94.5562 16.341 94.6495 15.957 94.8362 15.6317C95.0229 15.3063 95.2789 15.053 95.6042 14.8717C95.9349 14.6903 96.3055 14.5997 96.7162 14.5997C97.0735 14.5997 97.3935 14.6797 97.6762 14.8397C97.9589 14.9943 98.1829 15.2317 98.3482 15.5517C98.5135 15.8717 98.5962 16.2823 98.5962 16.7837C98.5962 17.2797 98.5162 17.6903 98.3562 18.0157C98.1962 18.3357 97.9749 18.5757 97.6922 18.7357C97.4095 18.8957 97.0842 18.9757 96.7162 18.9757ZM96.8362 18.1197C97.0762 18.1197 97.2895 18.0663 97.4762 17.9597C97.6682 17.853 97.8202 17.6983 97.9322 17.4957C98.0495 17.293 98.1082 17.0557 98.1082 16.7837C98.1082 16.5063 98.0495 16.269 97.9322 16.0717C97.8202 15.869 97.6682 15.7143 97.4762 15.6077C97.2895 15.501 97.0762 15.4477 96.8362 15.4477C96.5962 15.4477 96.3802 15.501 96.1882 15.6077C96.0015 15.7143 95.8495 15.869 95.7322 16.0717C95.6202 16.269 95.5642 16.5063 95.5642 16.7837C95.5642 17.0557 95.6202 17.293 95.7322 17.4957C95.8495 17.6983 96.0015 17.853 96.1882 17.9597C96.3802 18.0663 96.5962 18.1197 96.8362 18.1197ZM98.1322 18.9197V17.9117L98.1722 16.7757L98.0922 15.6397V12.9837H99.0842V18.9197H98.1322ZM103.955 18.9197L102.387 14.6477H103.331L104.675 18.4157H104.227L105.635 14.6477H106.475L107.843 18.4157H107.403L108.787 14.6477H109.675L108.099 18.9197H107.139L105.891 15.5837H106.187L104.915 18.9197H103.955ZM110.563 18.9197V14.6477H111.563V18.9197H110.563ZM111.067 13.9437C110.88 13.9437 110.726 13.885 110.603 13.7677C110.486 13.6503 110.427 13.509 110.427 13.3437C110.427 13.173 110.486 13.0317 110.603 12.9197C110.726 12.8023 110.88 12.7437 111.067 12.7437C111.254 12.7437 111.406 12.7997 111.523 12.9117C111.646 13.0183 111.707 13.1543 111.707 13.3197C111.707 13.4957 111.648 13.645 111.531 13.7677C111.414 13.885 111.259 13.9437 111.067 13.9437ZM114.683 18.9757C114.214 18.9757 113.851 18.8557 113.595 18.6157C113.339 18.3703 113.211 18.0103 113.211 17.5357V13.7037H114.211V17.5117C114.211 17.7143 114.262 17.8717 114.363 17.9837C114.47 18.0957 114.617 18.1517 114.803 18.1517C115.027 18.1517 115.214 18.093 115.363 17.9757L115.643 18.6877C115.526 18.7837 115.382 18.8557 115.211 18.9037C115.041 18.9517 114.865 18.9757 114.683 18.9757ZM112.507 15.4797V14.6797H115.355V15.4797H112.507ZM119.09 14.5997C119.431 14.5997 119.735 14.6663 120.002 14.7997C120.274 14.933 120.487 15.1383 120.642 15.4157C120.797 15.6877 120.874 16.0397 120.874 16.4717V18.9197H119.874V16.5997C119.874 16.221 119.783 15.9383 119.602 15.7517C119.426 15.565 119.178 15.4717 118.858 15.4717C118.623 15.4717 118.415 15.5197 118.234 15.6157C118.053 15.7117 117.911 15.8557 117.81 16.0477C117.714 16.2343 117.666 16.4717 117.666 16.7597V18.9197H116.666V12.9837H117.666V15.7997L117.45 15.4477C117.599 15.1757 117.815 14.9677 118.098 14.8237C118.386 14.6743 118.717 14.5997 119.09 14.5997ZM127.386 18.9197V18.0557L127.33 17.8717V16.3597C127.33 16.0663 127.242 15.8397 127.066 15.6797C126.89 15.5143 126.623 15.4317 126.266 15.4317C126.026 15.4317 125.788 15.469 125.554 15.5437C125.324 15.6183 125.13 15.7223 124.97 15.8557L124.578 15.1277C124.807 14.9517 125.079 14.821 125.394 14.7357C125.714 14.645 126.044 14.5997 126.386 14.5997C127.004 14.5997 127.482 14.749 127.818 15.0477C128.159 15.341 128.33 15.797 128.33 16.4157V18.9197H127.386ZM126.042 18.9757C125.722 18.9757 125.442 18.9223 125.202 18.8157C124.962 18.7037 124.775 18.5517 124.642 18.3597C124.514 18.1623 124.45 17.941 124.45 17.6957C124.45 17.4557 124.506 17.2397 124.618 17.0477C124.735 16.8557 124.924 16.7037 125.186 16.5917C125.447 16.4797 125.794 16.4237 126.226 16.4237H127.466V17.0877H126.298C125.956 17.0877 125.727 17.1437 125.61 17.2557C125.492 17.3623 125.434 17.4957 125.434 17.6557C125.434 17.837 125.506 17.981 125.65 18.0877C125.794 18.1943 125.994 18.2477 126.25 18.2477C126.495 18.2477 126.714 18.1917 126.906 18.0797C127.103 17.9677 127.244 17.8023 127.33 17.5837L127.498 18.1837C127.402 18.4343 127.228 18.629 126.978 18.7677C126.732 18.9063 126.42 18.9757 126.042 18.9757ZM78.7924 26.5997C79.1337 26.5997 79.4351 26.6663 79.6964 26.7997C79.9631 26.933 80.1711 27.1383 80.3204 27.4157C80.4697 27.6877 80.5444 28.0397 80.5444 28.4717V30.9197H79.5444V28.5997C79.5444 28.221 79.4617 27.9383 79.2964 27.7517C79.1311 27.565 78.8937 27.4717 78.5844 27.4717C78.3657 27.4717 78.1711 27.5197 78.0004 27.6157C77.8351 27.7117 77.7044 27.853 77.6084 28.0397C77.5177 28.2263 77.4724 28.4637 77.4724 28.7517V30.9197H76.4724V28.5997C76.4724 28.221 76.3897 27.9383 76.2244 27.7517C76.0591 27.565 75.8217 27.4717 75.5124 27.4717C75.2937 27.4717 75.0991 27.5197 74.9284 27.6157C74.7631 27.7117 74.6324 27.853 74.5364 28.0397C74.4457 28.2263 74.4004 28.4637 74.4004 28.7517V30.9197H73.4004V26.6477H74.3524V27.7837L74.1844 27.4477C74.3284 27.1703 74.5364 26.9597 74.8084 26.8157C75.0857 26.6717 75.4004 26.5997 75.7524 26.5997C76.1524 26.5997 76.4991 26.6983 76.7924 26.8957C77.0911 27.093 77.2884 27.3917 77.3844 27.7917L76.9924 27.6557C77.1311 27.3357 77.3604 27.0797 77.6804 26.8877C78.0004 26.6957 78.3711 26.5997 78.7924 26.5997ZM84.0381 30.9757C83.5634 30.9757 83.1474 30.8823 82.7901 30.6957C82.4381 30.5037 82.1634 30.2423 81.9661 29.9117C81.7741 29.581 81.6781 29.205 81.6781 28.7837C81.6781 28.357 81.7714 27.981 81.9581 27.6557C82.1501 27.325 82.4114 27.0663 82.7421 26.8797C83.0781 26.693 83.4594 26.5997 83.8861 26.5997C84.3021 26.5997 84.6727 26.6903 84.9981 26.8717C85.3234 27.053 85.5794 27.309 85.7661 27.6397C85.9527 27.9703 86.0461 28.3597 86.0461 28.8077C86.0461 28.8503 86.0434 28.8983 86.0381 28.9517C86.0381 29.005 86.0354 29.0557 86.0301 29.1037H82.4701V28.4397H85.5021L85.1101 28.6477C85.1154 28.4023 85.0647 28.1863 84.9581 27.9997C84.8514 27.813 84.7047 27.6663 84.5181 27.5597C84.3367 27.453 84.1261 27.3997 83.8861 27.3997C83.6407 27.3997 83.4247 27.453 83.2381 27.5597C83.0567 27.6663 82.9127 27.8157 82.8061 28.0077C82.7047 28.1943 82.6541 28.4157 82.6541 28.6717V28.8317C82.6541 29.0877 82.7127 29.3143 82.8301 29.5117C82.9474 29.709 83.1127 29.861 83.3261 29.9677C83.5394 30.0743 83.7847 30.1277 84.0621 30.1277C84.3021 30.1277 84.5181 30.0903 84.7101 30.0157C84.9021 29.941 85.0727 29.8237 85.2221 29.6637L85.7581 30.2797C85.5661 30.5037 85.3234 30.677 85.0301 30.7997C84.7421 30.917 84.4114 30.9757 84.0381 30.9757ZM92.5986 26.5997C92.94 26.5997 93.2413 26.6663 93.5026 26.7997C93.7693 26.933 93.9773 27.1383 94.1266 27.4157C94.276 27.6877 94.3506 28.0397 94.3506 28.4717V30.9197H93.3506V28.5997C93.3506 28.221 93.268 27.9383 93.1026 27.7517C92.9373 27.565 92.7 27.4717 92.3906 27.4717C92.172 27.4717 91.9773 27.5197 91.8066 27.6157C91.6413 27.7117 91.5106 27.853 91.4146 28.0397C91.324 28.2263 91.2786 28.4637 91.2786 28.7517V30.9197H90.2786V28.5997C90.2786 28.221 90.196 27.9383 90.0306 27.7517C89.8653 27.565 89.628 27.4717 89.3186 27.4717C89.1 27.4717 88.9053 27.5197 88.7346 27.6157C88.5693 27.7117 88.4386 27.853 88.3426 28.0397C88.252 28.2263 88.2066 28.4637 88.2066 28.7517V30.9197H87.2066V26.6477H88.1586V27.7837L87.9906 27.4477C88.1346 27.1703 88.3426 26.9597 88.6146 26.8157C88.892 26.6717 89.2066 26.5997 89.5586 26.5997C89.9586 26.5997 90.3053 26.6983 90.5986 26.8957C90.8973 27.093 91.0946 27.3917 91.1906 27.7917L90.7986 27.6557C90.9373 27.3357 91.1666 27.0797 91.4866 26.8877C91.8066 26.6957 92.1773 26.5997 92.5986 26.5997ZM98.1965 30.9757C97.8338 30.9757 97.5112 30.8957 97.2285 30.7357C96.9458 30.5757 96.7218 30.3357 96.5565 30.0157C96.3965 29.6903 96.3165 29.2797 96.3165 28.7837C96.3165 28.2823 96.3992 27.8717 96.5645 27.5517C96.7352 27.2317 96.9618 26.9943 97.2445 26.8397C97.5325 26.6797 97.8498 26.5997 98.1965 26.5997C98.6178 26.5997 98.9885 26.6903 99.3085 26.8717C99.6338 27.053 99.8898 27.3063 100.077 27.6317C100.269 27.957 100.365 28.341 100.365 28.7837C100.365 29.2263 100.269 29.6103 100.077 29.9357C99.8898 30.261 99.6338 30.517 99.3085 30.7037C98.9885 30.885 98.6178 30.9757 98.1965 30.9757ZM95.8285 30.9197V24.9837H96.8285V27.6397L96.7485 28.7757L96.7805 29.9117V30.9197H95.8285ZM98.0845 30.1197C98.3245 30.1197 98.5378 30.0663 98.7245 29.9597C98.9165 29.853 99.0685 29.6983 99.1805 29.4957C99.2925 29.293 99.3485 29.0557 99.3485 28.7837C99.3485 28.5063 99.2925 28.269 99.1805 28.0717C99.0685 27.869 98.9165 27.7143 98.7245 27.6077C98.5378 27.501 98.3245 27.4477 98.0845 27.4477C97.8445 27.4477 97.6285 27.501 97.4365 27.6077C97.2445 27.7143 97.0925 27.869 96.9805 28.0717C96.8685 28.269 96.8125 28.5063 96.8125 28.7837C96.8125 29.0557 96.8685 29.293 96.9805 29.4957C97.0925 29.6983 97.2445 29.853 97.4365 29.9597C97.6285 30.0663 97.8445 30.1197 98.0845 30.1197ZM103.521 30.9757C103.046 30.9757 102.63 30.8823 102.273 30.6957C101.921 30.5037 101.646 30.2423 101.449 29.9117C101.257 29.581 101.161 29.205 101.161 28.7837C101.161 28.357 101.254 27.981 101.441 27.6557C101.633 27.325 101.894 27.0663 102.225 26.8797C102.561 26.693 102.942 26.5997 103.369 26.5997C103.785 26.5997 104.156 26.6903 104.481 26.8717C104.806 27.053 105.062 27.309 105.249 27.6397C105.436 27.9703 105.529 28.3597 105.529 28.8077C105.529 28.8503 105.526 28.8983 105.521 28.9517C105.521 29.005 105.518 29.0557 105.513 29.1037H101.953V28.4397H104.985L104.593 28.6477C104.598 28.4023 104.548 28.1863 104.441 27.9997C104.334 27.813 104.188 27.6663 104.001 27.5597C103.82 27.453 103.609 27.3997 103.369 27.3997C103.124 27.3997 102.908 27.453 102.721 27.5597C102.54 27.6663 102.396 27.8157 102.289 28.0077C102.188 28.1943 102.137 28.4157 102.137 28.6717V28.8317C102.137 29.0877 102.196 29.3143 102.313 29.5117C102.43 29.709 102.596 29.861 102.809 29.9677C103.022 30.0743 103.268 30.1277 103.545 30.1277C103.785 30.1277 104.001 30.0903 104.193 30.0157C104.385 29.941 104.556 29.8237 104.705 29.6637L105.241 30.2797C105.049 30.5037 104.806 30.677 104.513 30.7997C104.225 30.917 103.894 30.9757 103.521 30.9757ZM106.689 30.9197V26.6477H107.641V27.8237L107.529 27.4797C107.657 27.1917 107.857 26.973 108.129 26.8237C108.407 26.6743 108.751 26.5997 109.161 26.5997V27.5517C109.119 27.541 109.079 27.5357 109.041 27.5357C109.004 27.5303 108.967 27.5277 108.929 27.5277C108.551 27.5277 108.249 27.6397 108.025 27.8637C107.801 28.0823 107.689 28.4103 107.689 28.8477V30.9197H106.689Z" fill="#228439"/>
<defs>
<filter id="filter0_d_149_179" x="0.703613" y="0.820312" width="159.464" height="46.2078" filterUnits="userSpaceOnUse" color-interpolation-filters="sRGB">
<feFlood flood-opacity="0" result="BackgroundImageFix"/>
<feColorMatrix in="SourceAlpha" type="matrix" values="0 0 0 0 0 0 0 0 0 0 0 0 0 0 0 0 0 0 127 0" result="hardAlpha"/>
<feOffset dy="2"/>
<feGaussianBlur stdDeviation="4.5"/>
<feComposite in2="hardAlpha" operator="out"/>
<feColorMatrix type="matrix" values="0 0 0 0 0 0 0 0 0 0 0 0 0 0 0 0 0 0 0.25 0"/>
<feBlend mode="normal" in2="BackgroundImageFix" result="effect1_dropShadow_149_179"/>
<feBlend mode="normal" in="SourceGraphic" in2="effect1_dropShadow_149_179" result="shape"/>
</filter>
</defs>
</svg>
