<svg width="110" height="92" viewBox="0 0 110 92" fill="none" xmlns="http://www.w3.org/2000/svg">
<ellipse cx="35.5433" cy="34.1224" rx="34.6726" ry="34.1224" fill="#EBECF0"/>
<g filter="url(#filter0_d_149_200)">
<rect x="39.7051" y="52.7759" width="61.0238" height="28.2079" rx="7" fill="white"/>
</g>
<path d="M69.1114 61.2045C69.6682 61.2083 70.2098 61.3068 70.7364 61.5C71.2667 61.6894 71.7439 62 72.1682 62.4318C72.5924 62.8598 72.9295 63.4337 73.1795 64.1534C73.4295 64.8731 73.5545 65.7633 73.5545 66.8239C73.5583 67.8239 73.4523 68.7178 73.2364 69.5057C73.0242 70.2898 72.7193 70.9527 72.3216 71.4943C71.9239 72.036 71.4447 72.4489 70.8841 72.733C70.3235 73.017 69.6928 73.1591 68.992 73.1591C68.2572 73.1591 67.6057 73.0152 67.0375 72.7273C66.4731 72.4394 66.0167 72.0455 65.6682 71.5455C65.3197 71.0455 65.1057 70.4735 65.0261 69.8295H67.1C67.2061 70.2917 67.422 70.6591 67.7477 70.9318C68.0773 71.2008 68.492 71.3352 68.992 71.3352C69.7989 71.3352 70.4201 70.9848 70.8557 70.2841C71.2913 69.5833 71.5091 68.6098 71.5091 67.3636H71.4295C71.2439 67.697 71.0034 67.9848 70.708 68.2273C70.4125 68.4659 70.0773 68.6496 69.7023 68.7784C69.3311 68.9072 68.9371 68.9716 68.5205 68.9716C67.8386 68.9716 67.225 68.8087 66.6795 68.483C66.1379 68.1572 65.708 67.7102 65.3898 67.142C65.0754 66.5739 64.9163 65.9242 64.9125 65.1932C64.9125 64.4356 65.0867 63.7557 65.4352 63.1534C65.7875 62.5473 66.278 62.0701 66.9068 61.7216C67.5356 61.3693 68.2705 61.197 69.1114 61.2045ZM69.117 62.9091C68.708 62.9091 68.3386 63.0095 68.0091 63.2102C67.6833 63.4072 67.4258 63.6761 67.2364 64.017C67.0508 64.3542 66.958 64.7311 66.958 65.1477C66.9617 65.5606 67.0545 65.9356 67.2364 66.2727C67.422 66.6098 67.6739 66.8769 67.992 67.0739C68.314 67.2708 68.6814 67.3693 69.0943 67.3693C69.4011 67.3693 69.6871 67.3106 69.9523 67.1932C70.2174 67.0758 70.4485 66.9129 70.6455 66.7045C70.8462 66.4924 71.0015 66.2519 71.1114 65.983C71.225 65.714 71.2799 65.4299 71.2761 65.1307C71.2761 64.733 71.1814 64.3655 70.992 64.0284C70.8064 63.6913 70.5508 63.4205 70.225 63.2159C69.903 63.0114 69.5337 62.9091 69.117 62.9091ZM79.8864 61.2045C80.4432 61.2083 80.9848 61.3068 81.5114 61.5C82.0417 61.6894 82.5189 62 82.9432 62.4318C83.3674 62.8598 83.7045 63.4337 83.9545 64.1534C84.2045 64.8731 84.3295 65.7633 84.3295 66.8239C84.3333 67.8239 84.2273 68.7178 84.0114 69.5057C83.7992 70.2898 83.4943 70.9527 83.0966 71.4943C82.6989 72.036 82.2197 72.4489 81.6591 72.733C81.0985 73.017 80.4678 73.1591 79.767 73.1591C79.0322 73.1591 78.3807 73.0152 77.8125 72.7273C77.2481 72.4394 76.7917 72.0455 76.4432 71.5455C76.0947 71.0455 75.8807 70.4735 75.8011 69.8295H77.875C77.9811 70.2917 78.197 70.6591 78.5227 70.9318C78.8523 71.2008 79.267 71.3352 79.767 71.3352C80.5739 71.3352 81.1951 70.9848 81.6307 70.2841C82.0663 69.5833 82.2841 68.6098 82.2841 67.3636H82.2045C82.0189 67.697 81.7784 67.9848 81.483 68.2273C81.1875 68.4659 80.8523 68.6496 80.4773 68.7784C80.1061 68.9072 79.7121 68.9716 79.2955 68.9716C78.6136 68.9716 78 68.8087 77.4545 68.483C76.9129 68.1572 76.483 67.7102 76.1648 67.142C75.8504 66.5739 75.6913 65.9242 75.6875 65.1932C75.6875 64.4356 75.8617 63.7557 76.2102 63.1534C76.5625 62.5473 77.053 62.0701 77.6818 61.7216C78.3106 61.3693 79.0455 61.197 79.8864 61.2045ZM79.892 62.9091C79.483 62.9091 79.1136 63.0095 78.7841 63.2102C78.4583 63.4072 78.2008 63.6761 78.0114 64.017C77.8258 64.3542 77.733 64.7311 77.733 65.1477C77.7367 65.5606 77.8295 65.9356 78.0114 66.2727C78.197 66.6098 78.4489 66.8769 78.767 67.0739C79.089 67.2708 79.4564 67.3693 79.8693 67.3693C80.1761 67.3693 80.4621 67.3106 80.7273 67.1932C80.9924 67.0758 81.2235 66.9129 81.4205 66.7045C81.6212 66.4924 81.7765 66.2519 81.8864 65.983C82 65.714 82.0549 65.4299 82.0511 65.1307C82.0511 64.733 81.9564 64.3655 81.767 64.0284C81.5814 63.6913 81.3258 63.4205 81 63.2159C80.678 63.0114 80.3087 62.9091 79.892 62.9091ZM90.6614 61.2045C91.2182 61.2083 91.7598 61.3068 92.2864 61.5C92.8167 61.6894 93.2939 62 93.7182 62.4318C94.1424 62.8598 94.4795 63.4337 94.7295 64.1534C94.9795 64.8731 95.1045 65.7633 95.1045 66.8239C95.1083 67.8239 95.0023 68.7178 94.7864 69.5057C94.5742 70.2898 94.2693 70.9527 93.8716 71.4943C93.4739 72.036 92.9947 72.4489 92.4341 72.733C91.8735 73.017 91.2428 73.1591 90.542 73.1591C89.8072 73.1591 89.1557 73.0152 88.5875 72.7273C88.0231 72.4394 87.5667 72.0455 87.2182 71.5455C86.8697 71.0455 86.6557 70.4735 86.5761 69.8295H88.65C88.7561 70.2917 88.972 70.6591 89.2977 70.9318C89.6273 71.2008 90.042 71.3352 90.542 71.3352C91.3489 71.3352 91.9701 70.9848 92.4057 70.2841C92.8413 69.5833 93.0591 68.6098 93.0591 67.3636H92.9795C92.7939 67.697 92.5534 67.9848 92.258 68.2273C91.9625 68.4659 91.6273 68.6496 91.2523 68.7784C90.8811 68.9072 90.4871 68.9716 90.0705 68.9716C89.3886 68.9716 88.775 68.8087 88.2295 68.483C87.6879 68.1572 87.258 67.7102 86.9398 67.142C86.6254 66.5739 86.4663 65.9242 86.4625 65.1932C86.4625 64.4356 86.6367 63.7557 86.9852 63.1534C87.3375 62.5473 87.828 62.0701 88.4568 61.7216C89.0856 61.3693 89.8205 61.197 90.6614 61.2045ZM90.667 62.9091C90.258 62.9091 89.8886 63.0095 89.5591 63.2102C89.2333 63.4072 88.9758 63.6761 88.7864 64.017C88.6008 64.3542 88.508 64.7311 88.508 65.1477C88.5117 65.5606 88.6045 65.9356 88.7864 66.2727C88.972 66.6098 89.2239 66.8769 89.542 67.0739C89.864 67.2708 90.2314 67.3693 90.6443 67.3693C90.9511 67.3693 91.2371 67.3106 91.5023 67.1932C91.7674 67.0758 91.9985 66.9129 92.1955 66.7045C92.3962 66.4924 92.5515 66.2519 92.6614 65.983C92.775 65.714 92.8299 65.4299 92.8261 65.1307C92.8261 64.733 92.7314 64.3655 92.542 64.0284C92.3564 63.6913 92.1008 63.4205 91.775 63.2159C91.453 63.0114 91.0837 62.9091 90.667 62.9091Z" fill="#939393"/>
<defs>
<filter id="filter0_d_149_200" x="30.7051" y="45.7759" width="79.0238" height="46.2078" filterUnits="userSpaceOnUse" color-interpolation-filters="sRGB">
<feFlood flood-opacity="0" result="BackgroundImageFix"/>
<feColorMatrix in="SourceAlpha" type="matrix" values="0 0 0 0 0 0 0 0 0 0 0 0 0 0 0 0 0 0 127 0" result="hardAlpha"/>
<feOffset dy="2"/>
<feGaussianBlur stdDeviation="4.5"/>
<feComposite in2="hardAlpha" operator="out"/>
<feColorMatrix type="matrix" values="0 0 0 0 0 0 0 0 0 0 0 0 0 0 0 0 0 0 0.25 0"/>
<feBlend mode="normal" in2="BackgroundImageFix" result="effect1_dropShadow_149_200"/>
<feBlend mode="normal" in="SourceGraphic" in2="effect1_dropShadow_149_200" result="shape"/>
</filter>
</defs>
</svg>
