<svg width="70" height="69" viewBox="0 0 70 69" fill="none" xmlns="http://www.w3.org/2000/svg">
<ellipse cx="35.2305" cy="34.1224" rx="34.6726" ry="34.1224" fill="#EBECF0"/>
<path d="M42.2615 42.5782C41.6834 43.1906 41.0243 43.7438 40.3002 44.2247C38.3005 45.558 35.798 46.3494 33.0808 46.3494C31.1836 46.3494 29.391 45.9639 27.8026 45.2773C25.5505 47.5354 21.9529 47.3297 21.9529 47.3297L24.7813 43.4121C22.5856 41.5479 21.2241 38.9507 21.2241 36.0764C21.2241 33.52 22.3012 31.1822 24.0835 29.3846C24.7143 28.749 25.4337 28.1801 26.2246 27.6936C25.7443 28.8833 25.4827 30.162 25.4827 31.4935C25.4827 37.8415 31.4218 42.9868 38.7468 42.9868C39.9642 42.9868 41.142 42.8451 42.2615 42.5782Z" fill="#2A94F4"/>
<path d="M44.9372 36.0764C44.9372 38.5439 43.9345 40.8076 42.2615 42.5782C41.142 42.8451 39.9642 42.9869 38.7468 42.9869C31.4218 42.9869 25.4827 37.8416 25.4827 31.4935C25.4827 30.1621 25.7443 28.8834 26.2246 27.6937C28.1603 26.5039 30.5254 25.8035 33.0807 25.8035C39.6289 25.8034 44.9372 30.402 44.9372 36.0764V36.0764Z" fill="url(#paint0_linear_149_245)"/>
<path d="M48.0329 39.7003L51.1974 44.0839C51.1974 44.0839 47.1714 44.3136 44.6529 41.7878C43.8809 42.1199 43.0807 42.3844 42.2615 42.5782C41.142 42.8451 39.9642 42.9868 38.7468 42.9868C31.4218 42.9868 25.4827 37.8415 25.4827 31.4935C25.4827 30.1621 25.7443 28.8834 26.2246 27.6936C28.035 23.2127 32.9583 20.0002 38.7467 20.0002C46.0726 20.0002 52.0117 25.1446 52.0117 31.4935C52.0117 34.7088 50.4893 37.6146 48.0329 39.7003V39.7003Z" fill="#CCE9FF"/>
<path d="M33.7944 34.0597C34.8428 34.0597 35.6927 33.2233 35.6927 32.1916C35.6927 31.1599 34.8428 30.3235 33.7944 30.3235C32.7461 30.3235 31.8962 31.1599 31.8962 32.1916C31.8962 33.2233 32.7461 34.0597 33.7944 34.0597Z" fill="#2A94F4"/>
<path d="M38.9356 34.0597C39.9839 34.0597 40.8338 33.2233 40.8338 32.1916C40.8338 31.1599 39.9839 30.3235 38.9356 30.3235C37.8872 30.3235 37.0374 31.1599 37.0374 32.1916C37.0374 33.2233 37.8872 34.0597 38.9356 34.0597Z" fill="#2A94F4"/>
<path d="M44.0767 34.0597C45.125 34.0597 45.9749 33.2233 45.9749 32.1916C45.9749 31.1599 45.125 30.3235 44.0767 30.3235C43.0283 30.3235 42.1785 31.1599 42.1785 32.1916C42.1785 33.2233 43.0283 34.0597 44.0767 34.0597Z" fill="#2A94F4"/>
<defs>
<linearGradient id="paint0_linear_149_245" x1="35.21" y1="25.8034" x2="35.21" y2="42.9868" gradientUnits="userSpaceOnUse">
<stop offset="0.394" stop-color="#80E8BE"/>
<stop offset="1" stop-color="#00C278"/>
</linearGradient>
</defs>
</svg>
