<svg width="168" height="93" viewBox="0 0 168 93" fill="none" xmlns="http://www.w3.org/2000/svg">
<ellipse cx="34.843" cy="34.2821" rx="34.6726" ry="34.1224" fill="#EBECF0"/>
<g filter="url(#filter0_d_149_230)">
<rect x="39.0024" y="52.9355" width="119.274" height="28.2079" rx="7" fill="white"/>
</g>
<path d="M53.6851 73.1588C52.8404 73.1588 52.0904 73.0168 51.4351 72.7327C50.7835 72.4486 50.2722 72.0604 49.901 71.5679C49.5335 71.0717 49.3517 70.5092 49.3555 69.8804C49.3517 69.3918 49.4578 68.9429 49.6737 68.5338C49.8896 68.1248 50.1813 67.7838 50.5487 67.5111C50.9199 67.2346 51.3328 67.0585 51.7873 66.9827V66.9032C51.1888 66.7706 50.704 66.4657 50.3328 65.9884C49.9654 65.5073 49.7835 64.9524 49.7873 64.3236C49.7835 63.7251 49.9502 63.191 50.2873 62.7213C50.6244 62.2516 51.0866 61.8823 51.6737 61.6134C52.2608 61.3407 52.9313 61.2043 53.6851 61.2043C54.4313 61.2043 55.096 61.3407 55.6794 61.6134C56.2665 61.8823 56.7286 62.2516 57.0657 62.7213C57.4066 63.191 57.5771 63.7251 57.5771 64.3236C57.5771 64.9524 57.3896 65.5073 57.0146 65.9884C56.6434 66.4657 56.1642 66.7706 55.5771 66.9032V66.9827C56.0316 67.0585 56.4407 67.2346 56.8044 67.5111C57.1718 67.7838 57.4635 68.1248 57.6794 68.5338C57.8991 68.9429 58.0089 69.3918 58.0089 69.8804C58.0089 70.5092 57.8233 71.0717 57.4521 71.5679C57.0809 72.0604 56.5695 72.4486 55.918 72.7327C55.2703 73.0168 54.526 73.1588 53.6851 73.1588ZM53.6851 71.5338C54.1207 71.5338 54.4994 71.46 54.8214 71.3123C55.1434 71.1607 55.3934 70.9486 55.5714 70.6759C55.7494 70.4032 55.8404 70.0888 55.8441 69.7327C55.8404 69.3615 55.7438 69.0338 55.5544 68.7498C55.3688 68.4619 55.1131 68.2365 54.7873 68.0736C54.4654 67.9107 54.0979 67.8293 53.6851 67.8293C53.2684 67.8293 52.8972 67.9107 52.5714 68.0736C52.2457 68.2365 51.9881 68.4619 51.7987 68.7498C51.6131 69.0338 51.5222 69.3615 51.526 69.7327C51.5222 70.0888 51.6093 70.4032 51.7873 70.6759C51.9654 70.9448 52.2154 71.1551 52.5373 71.3066C52.8631 71.4581 53.2457 71.5338 53.6851 71.5338ZM53.6851 66.2327C54.0411 66.2327 54.3555 66.1607 54.6282 66.0168C54.9048 65.8729 55.1226 65.6721 55.2816 65.4145C55.4407 65.157 55.5222 64.8596 55.526 64.5225C55.5222 64.1891 55.4426 63.8975 55.2873 63.6475C55.132 63.3937 54.9161 63.1986 54.6396 63.0623C54.3631 62.9221 54.0449 62.852 53.6851 62.852C53.3176 62.852 52.9938 62.9221 52.7135 63.0623C52.4369 63.1986 52.221 63.3937 52.0657 63.6475C51.9142 63.8975 51.8404 64.1891 51.8441 64.5225C51.8404 64.8596 51.9161 65.157 52.0714 65.4145C52.2305 65.6683 52.4483 65.8691 52.7248 66.0168C53.0051 66.1607 53.3252 66.2327 53.6851 66.2327ZM74.7194 65.2895H72.5944C72.5338 64.941 72.4221 64.6323 72.2592 64.3634C72.0963 64.0907 71.8937 63.8596 71.6512 63.6702C71.4088 63.4808 71.1323 63.3388 70.8217 63.2441C70.5149 63.1456 70.1834 63.0963 69.8274 63.0963C69.1948 63.0963 68.6342 63.2554 68.1456 63.5736C67.6569 63.888 67.2744 64.3501 66.9978 64.96C66.7213 65.566 66.5831 66.3066 66.5831 67.1816C66.5831 68.0717 66.7213 68.8217 66.9978 69.4316C67.2781 70.0376 67.6607 70.496 68.1456 70.8066C68.6342 71.1134 69.1929 71.2668 69.8217 71.2668C70.1702 71.2668 70.4959 71.2213 70.799 71.1304C71.1058 71.0357 71.3804 70.8975 71.6228 70.7157C71.8691 70.5338 72.0755 70.3104 72.2422 70.0452C72.4126 69.7801 72.53 69.477 72.5944 69.1361L74.7194 69.1475C74.6399 69.7005 74.4675 70.2195 74.2024 70.7043C73.941 71.1891 73.5982 71.6172 73.174 71.9884C72.7497 72.3558 72.2535 72.6437 71.6853 72.852C71.1172 73.0566 70.4865 73.1588 69.7933 73.1588C68.7706 73.1588 67.8577 72.9221 67.0547 72.4486C66.2516 71.9751 65.619 71.2914 65.1569 70.3975C64.6948 69.5035 64.4637 68.4316 64.4637 67.1816C64.4637 65.9278 64.6967 64.8558 65.1626 63.9657C65.6285 63.0717 66.263 62.388 67.066 61.9145C67.869 61.441 68.7781 61.2043 69.7933 61.2043C70.441 61.2043 71.0433 61.2952 71.6001 61.477C72.1569 61.6588 72.6531 61.9259 73.0887 62.2782C73.5244 62.6266 73.8823 63.0547 74.1626 63.5623C74.4467 64.066 74.6323 64.6418 74.7194 65.2895ZM80.7657 73.1702C79.9135 73.1702 79.1748 72.9827 78.5498 72.6077C77.9248 72.2327 77.44 71.7081 77.0953 71.0338C76.7544 70.3596 76.5839 69.5717 76.5839 68.6702C76.5839 67.7687 76.7544 66.9789 77.0953 66.3009C77.44 65.6229 77.9248 65.0963 78.5498 64.7213C79.1748 64.3463 79.9135 64.1588 80.7657 64.1588C81.618 64.1588 82.3566 64.3463 82.9816 64.7213C83.6066 65.0963 84.0896 65.6229 84.4305 66.3009C84.7752 66.9789 84.9476 67.7687 84.9476 68.6702C84.9476 69.5717 84.7752 70.3596 84.4305 71.0338C84.0896 71.7081 83.6066 72.2327 82.9816 72.6077C82.3566 72.9827 81.618 73.1702 80.7657 73.1702ZM80.7771 71.5225C81.2392 71.5225 81.6256 71.3956 81.9362 71.1418C82.2468 70.8842 82.4779 70.5395 82.6294 70.1077C82.7847 69.6759 82.8623 69.1948 82.8623 68.6645C82.8623 68.1304 82.7847 67.6475 82.6294 67.2157C82.4779 66.7801 82.2468 66.4335 81.9362 66.1759C81.6256 65.9183 81.2392 65.7895 80.7771 65.7895C80.3036 65.7895 79.9097 65.9183 79.5953 66.1759C79.2847 66.4335 79.0517 66.7801 78.8964 67.2157C78.7449 67.6475 78.6691 68.1304 78.6691 68.6645C78.6691 69.1948 78.7449 69.6759 78.8964 70.1077C79.0517 70.5395 79.2847 70.8842 79.5953 71.1418C79.9097 71.3956 80.3036 71.5225 80.7771 71.5225ZM90.9001 73.1702C90.0478 73.1702 89.3092 72.9827 88.6842 72.6077C88.0592 72.2327 87.5744 71.7081 87.2297 71.0338C86.8887 70.3596 86.7183 69.5717 86.7183 68.6702C86.7183 67.7687 86.8887 66.9789 87.2297 66.3009C87.5744 65.6229 88.0592 65.0963 88.6842 64.7213C89.3092 64.3463 90.0478 64.1588 90.9001 64.1588C91.7524 64.1588 92.491 64.3463 93.116 64.7213C93.741 65.0963 94.224 65.6229 94.5649 66.3009C94.9096 66.9789 95.0819 67.7687 95.0819 68.6702C95.0819 69.5717 94.9096 70.3596 94.5649 71.0338C94.224 71.7081 93.741 72.2327 93.116 72.6077C92.491 72.9827 91.7524 73.1702 90.9001 73.1702ZM90.9115 71.5225C91.3736 71.5225 91.76 71.3956 92.0706 71.1418C92.3812 70.8842 92.6122 70.5395 92.7637 70.1077C92.919 69.6759 92.9967 69.1948 92.9967 68.6645C92.9967 68.1304 92.919 67.6475 92.7637 67.2157C92.6122 66.7801 92.3812 66.4335 92.0706 66.1759C91.76 65.9183 91.3736 65.7895 90.9115 65.7895C90.438 65.7895 90.044 65.9183 89.7297 66.1759C89.419 66.4335 89.1861 66.7801 89.0308 67.2157C88.8793 67.6475 88.8035 68.1304 88.8035 68.6645C88.8035 69.1948 88.8793 69.6759 89.0308 70.1077C89.1861 70.5395 89.419 70.8842 89.7297 71.1418C90.044 71.3956 90.438 71.5225 90.9115 71.5225ZM99.2845 61.3634V72.9998H97.2277V61.3634H99.2845ZM108.367 61.3634V72.9998H106.259V61.3634H108.367ZM114.198 73.1532C113.512 73.1532 112.898 72.977 112.357 72.6248C111.815 72.2725 111.387 71.7611 111.073 71.0907C110.758 70.4202 110.601 69.6058 110.601 68.6475C110.601 67.6778 110.76 66.8596 111.078 66.1929C111.4 65.5225 111.834 65.0168 112.379 64.6759C112.925 64.3312 113.533 64.1588 114.203 64.1588C114.715 64.1588 115.135 64.246 115.465 64.4202C115.794 64.5907 116.056 64.7971 116.249 65.0395C116.442 65.2782 116.591 65.5035 116.698 65.7157H116.783V61.3634H118.845V72.9998H116.823V71.6248H116.698C116.591 71.8369 116.438 72.0623 116.237 72.3009C116.037 72.5357 115.771 72.7365 115.442 72.9032C115.112 73.0698 114.698 73.1532 114.198 73.1532ZM114.771 71.4657C115.207 71.4657 115.578 71.3482 115.885 71.1134C116.192 70.8748 116.425 70.5433 116.584 70.1191C116.743 69.6948 116.823 69.2005 116.823 68.6361C116.823 68.0717 116.743 67.5812 116.584 67.1645C116.429 66.7479 116.198 66.424 115.891 66.1929C115.588 65.9619 115.215 65.8463 114.771 65.8463C114.313 65.8463 113.931 65.9657 113.624 66.2043C113.317 66.4429 113.086 66.7725 112.931 67.1929C112.775 67.6134 112.698 68.0945 112.698 68.6361C112.698 69.1816 112.775 69.6683 112.931 70.0963C113.09 70.5206 113.323 70.8558 113.629 71.102C113.94 71.3445 114.321 71.4657 114.771 71.4657ZM125.301 73.1702C124.426 73.1702 123.67 72.9884 123.034 72.6248C122.401 72.2573 121.914 71.7384 121.573 71.0679C121.232 70.3937 121.062 69.6001 121.062 68.6873C121.062 67.7895 121.232 67.0016 121.573 66.3236C121.918 65.6418 122.399 65.1115 123.017 64.7327C123.634 64.3501 124.359 64.1588 125.193 64.1588C125.731 64.1588 126.238 64.246 126.715 64.4202C127.197 64.5907 127.621 64.8558 127.988 65.2157C128.359 65.5755 128.651 66.0338 128.863 66.5907C129.075 67.1437 129.181 67.8028 129.181 68.5679V69.1986H122.028V67.8123H127.21C127.206 67.4183 127.121 67.0679 126.954 66.7611C126.787 66.4505 126.554 66.2062 126.255 66.0282C125.96 65.8501 125.615 65.7611 125.221 65.7611C124.801 65.7611 124.431 65.8634 124.113 66.0679C123.795 66.2687 123.547 66.5338 123.369 66.8634C123.195 67.1891 123.106 67.5471 123.102 67.9373V69.1475C123.102 69.6551 123.195 70.0907 123.38 70.4543C123.566 70.8141 123.825 71.0907 124.159 71.2838C124.492 71.4732 124.882 71.5679 125.329 71.5679C125.628 71.5679 125.899 71.5263 126.142 71.4429C126.384 71.3558 126.594 71.2289 126.772 71.0623C126.95 70.8956 127.085 70.6891 127.176 70.4429L129.096 70.6588C128.975 71.1664 128.744 71.6096 128.403 71.9884C128.066 72.3634 127.634 72.6551 127.107 72.8634C126.581 73.0679 125.979 73.1702 125.301 73.1702ZM133.833 73.1759C133.28 73.1759 132.782 73.0774 132.338 72.8804C131.899 72.6797 131.551 72.3842 131.293 71.9941C131.039 71.6039 130.912 71.1229 130.912 70.5509C130.912 70.0585 131.003 69.6513 131.185 69.3293C131.367 69.0073 131.615 68.7498 131.929 68.5566C132.244 68.3634 132.598 68.2176 132.992 68.1191C133.39 68.0168 133.801 67.9429 134.225 67.8975C134.736 67.8445 135.151 67.7971 135.469 67.7554C135.787 67.71 136.018 67.6418 136.162 67.5509C136.31 67.4562 136.384 67.3104 136.384 67.1134V67.0793C136.384 66.6513 136.257 66.3198 136.003 66.085C135.749 65.8501 135.384 65.7327 134.907 65.7327C134.403 65.7327 134.003 65.8426 133.708 66.0623C133.416 66.282 133.219 66.5414 133.117 66.8407L131.196 66.5679C131.348 66.0376 131.598 65.5945 131.946 65.2384C132.295 64.8785 132.721 64.6096 133.225 64.4316C133.729 64.2498 134.285 64.1588 134.895 64.1588C135.316 64.1588 135.734 64.2081 136.151 64.3066C136.568 64.4051 136.948 64.5679 137.293 64.7952C137.638 65.0187 137.914 65.3236 138.123 65.71C138.335 66.0963 138.441 66.5793 138.441 67.1588V72.9998H136.463V71.8009H136.395C136.27 72.0433 136.094 72.2706 135.867 72.4827C135.643 72.691 135.361 72.8596 135.02 72.9884C134.683 73.1134 134.287 73.1759 133.833 73.1759ZM134.367 71.6645C134.78 71.6645 135.138 71.5831 135.441 71.4202C135.744 71.2535 135.977 71.0338 136.14 70.7611C136.306 70.4884 136.39 70.191 136.39 69.8691V68.8407C136.325 68.8937 136.215 68.9429 136.06 68.9884C135.909 69.0338 135.738 69.0736 135.549 69.1077C135.359 69.1418 135.172 69.1721 134.986 69.1986C134.801 69.2251 134.64 69.2479 134.503 69.2668C134.196 69.3085 133.922 69.3766 133.679 69.4713C133.437 69.566 133.246 69.6986 133.106 69.8691C132.965 70.0357 132.895 70.2516 132.895 70.5168C132.895 70.8956 133.034 71.1816 133.31 71.3748C133.587 71.5679 133.939 71.6645 134.367 71.6645ZM147.807 66.5793L145.932 66.7838C145.879 66.5945 145.786 66.4164 145.653 66.2498C145.524 66.0831 145.35 65.9486 145.131 65.8463C144.911 65.7441 144.642 65.6929 144.324 65.6929C143.896 65.6929 143.536 65.7857 143.244 65.9713C142.956 66.157 142.814 66.3975 142.818 66.6929C142.814 66.9467 142.907 67.1532 143.096 67.3123C143.29 67.4713 143.608 67.602 144.051 67.7043L145.54 68.0225C146.365 68.2005 146.979 68.4827 147.381 68.8691C147.786 69.2554 147.99 69.7611 147.994 70.3861C147.99 70.9354 147.829 71.4202 147.511 71.8407C147.197 72.2573 146.759 72.5831 146.199 72.8179C145.638 73.0528 144.994 73.1702 144.267 73.1702C143.199 73.1702 142.339 72.9467 141.687 72.4998C141.036 72.049 140.648 71.4221 140.523 70.6191L142.528 70.4259C142.619 70.8198 142.812 71.1172 143.108 71.3179C143.403 71.5187 143.788 71.6191 144.261 71.6191C144.75 71.6191 145.142 71.5187 145.437 71.3179C145.737 71.1172 145.886 70.8691 145.886 70.5736C145.886 70.3236 145.79 70.1172 145.596 69.9543C145.407 69.7914 145.112 69.6664 144.71 69.5793L143.221 69.2668C142.384 69.0926 141.765 68.799 141.363 68.3861C140.962 67.9695 140.763 67.4429 140.767 66.8066C140.763 66.2687 140.909 65.8028 141.204 65.4088C141.504 65.0111 141.918 64.7043 142.449 64.4884C142.983 64.2687 143.598 64.1588 144.295 64.1588C145.318 64.1588 146.123 64.3766 146.71 64.8123C147.301 65.2479 147.666 65.8369 147.807 66.5793Z" fill="#939393"/>
<path d="M46.0105 27.1798C46.0105 33.3472 41.1442 34.305 41.1442 40.0529C41.1442 43.0203 38.1046 43.2703 35.7912 43.2703C33.7931 43.2703 29.3813 42.5241 29.3813 40.051C29.3813 34.305 24.5986 33.3472 24.5986 27.1798C24.5986 21.4032 29.7423 16.7204 35.3853 16.7204C41.0303 16.7204 46.0105 21.4032 46.0105 27.1798Z" fill="#FFD983"/>
<path d="M39.3602 47.7156C39.3602 48.5086 37.186 50.1101 35.3046 50.1101C33.4233 50.1101 31.25 48.5086 31.25 47.7156C31.25 46.9225 33.4233 47.2366 35.3046 47.2366C37.186 47.2366 39.3602 46.9225 39.3602 47.7156Z" fill="#CCD6DD"/>
<path d="M39.8858 26.4452C39.7955 26.3561 39.6883 26.2855 39.5702 26.2373C39.4521 26.1891 39.3255 26.1643 39.1977 26.1643C39.0699 26.1643 38.9433 26.1891 38.8253 26.2373C38.7072 26.2855 38.5999 26.3561 38.5096 26.4452L35.3047 29.5993L32.0997 26.4452C32.0093 26.3562 31.9021 26.2857 31.784 26.2376C31.6659 26.1894 31.5394 26.1647 31.4116 26.1647C31.2838 26.1647 31.1573 26.1894 31.0392 26.2376C30.9211 26.2857 30.8139 26.3562 30.7235 26.4452C30.6331 26.5341 30.5615 26.6397 30.5126 26.7559C30.4636 26.8721 30.4385 26.9966 30.4385 27.1224C30.4385 27.2481 30.4636 27.3726 30.5126 27.4888C30.5615 27.605 30.6331 27.7106 30.7235 27.7995L34.3314 31.3502V41.4897C34.3314 41.7437 34.4339 41.9873 34.6165 42.167C34.799 42.3466 35.0465 42.4475 35.3047 42.4475C35.5628 42.4475 35.8103 42.3466 35.9929 42.167C36.1754 41.9873 36.2779 41.7437 36.2779 41.4897V31.3502L39.8858 27.7995C39.9763 27.7107 40.0481 27.6051 40.097 27.4889C40.146 27.3727 40.1712 27.2481 40.1712 27.1224C40.1712 26.9966 40.146 26.872 40.097 26.7558C40.0481 26.6396 39.9763 26.534 39.8858 26.4452" fill="#FFCC4D"/>
<path d="M41.144 46.2789C41.144 46.787 40.939 47.2742 40.5739 47.6335C40.2089 47.9928 39.7138 48.1946 39.1975 48.1946H31.4114C30.8951 48.1946 30.4 47.9928 30.035 47.6335C29.6699 47.2742 29.4648 46.787 29.4648 46.2789V40.532H41.144V46.2789Z" fill="#99AAB5"/>
<path d="M29.464 47.2366C29.2202 47.2359 28.9855 47.1452 28.8064 46.9825C28.6273 46.8197 28.5168 46.5967 28.4967 46.3576C28.4766 46.1185 28.5485 45.8806 28.6981 45.6911C28.8476 45.5017 29.064 45.3743 29.3044 45.3343L40.9846 43.4187C41.1107 43.3973 41.2398 43.4008 41.3646 43.4289C41.4893 43.457 41.6071 43.5092 41.7112 43.5824C41.8153 43.6556 41.9036 43.7485 41.971 43.8555C42.0384 43.9625 42.0835 44.0817 42.1038 44.206C42.1249 44.33 42.1209 44.4569 42.092 44.5794C42.0632 44.7019 42.0101 44.8177 41.9358 44.92C41.8615 45.0222 41.7674 45.1091 41.659 45.1756C41.5506 45.2421 41.4299 45.2869 41.3038 45.3075L29.6256 47.2232C29.5722 47.2323 29.5182 47.2368 29.464 47.2366" fill="#CCD6DD"/>
<path d="M29.464 43.4053C29.2202 43.4046 28.9855 43.3139 28.8064 43.1512C28.6273 42.9884 28.5168 42.7654 28.4967 42.5263C28.4766 42.2872 28.5485 42.0493 28.6981 41.8598C28.8476 41.6704 29.064 41.543 29.3044 41.503L40.9846 39.5874C41.1107 39.5662 41.2398 39.5697 41.3645 39.5979C41.4891 39.6261 41.6069 39.6782 41.711 39.7514C41.815 39.8247 41.9033 39.9174 41.9708 40.0244C42.0382 40.1314 42.0834 40.2504 42.1038 40.3747C42.1249 40.4987 42.1209 40.6256 42.092 40.7481C42.0632 40.8706 42.0101 40.9864 41.9358 41.0887C41.8615 41.191 41.7674 41.2778 41.659 41.3443C41.5506 41.4108 41.4299 41.4556 41.3038 41.4762L29.6256 43.3919C29.5722 43.401 29.5182 43.4055 29.464 43.4053" fill="#CCD6DD"/>
<defs>
<filter id="filter0_d_149_230" x="30.0024" y="45.9355" width="137.274" height="46.2078" filterUnits="userSpaceOnUse" color-interpolation-filters="sRGB">
<feFlood flood-opacity="0" result="BackgroundImageFix"/>
<feColorMatrix in="SourceAlpha" type="matrix" values="0 0 0 0 0 0 0 0 0 0 0 0 0 0 0 0 0 0 127 0" result="hardAlpha"/>
<feOffset dy="2"/>
<feGaussianBlur stdDeviation="4.5"/>
<feComposite in2="hardAlpha" operator="out"/>
<feColorMatrix type="matrix" values="0 0 0 0 0 0 0 0 0 0 0 0 0 0 0 0 0 0 0.25 0"/>
<feBlend mode="normal" in2="BackgroundImageFix" result="effect1_dropShadow_149_230"/>
<feBlend mode="normal" in="SourceGraphic" in2="effect1_dropShadow_149_230" result="shape"/>
</filter>
</defs>
</svg>
