<svg width="88" height="46" viewBox="0 0 88 46" fill="none" xmlns="http://www.w3.org/2000/svg">
<g filter="url(#filter0_d_149_219)">
<rect x="8.49951" y="5.63574" width="71.1944" height="29.1178" rx="5" fill="white"/>
<rect x="8.99951" y="6.13574" width="70.1944" height="28.1178" rx="4.5" stroke="#939393"/>
</g>
<path d="M40.7488 25.2754V23.8834L45.1968 19.6594C45.5701 19.3074 45.8475 18.9981 46.0288 18.7314C46.2101 18.4647 46.3275 18.2194 46.3808 17.9954C46.4448 17.7607 46.4768 17.5421 46.4768 17.3394C46.4768 16.8274 46.3008 16.4327 45.9488 16.1554C45.5968 15.8674 45.0795 15.7234 44.3968 15.7234C43.8528 15.7234 43.3568 15.8194 42.9088 16.0114C42.4715 16.2034 42.0928 16.4967 41.7728 16.8914L40.3168 15.7714C40.7541 15.1847 41.3408 14.7314 42.0768 14.4114C42.8235 14.0807 43.6555 13.9154 44.5728 13.9154C45.3835 13.9154 46.0875 14.0487 46.6848 14.3154C47.2928 14.5714 47.7568 14.9394 48.0768 15.4194C48.4075 15.8994 48.5728 16.4701 48.5728 17.1314C48.5728 17.4941 48.5248 17.8567 48.4288 18.2194C48.3328 18.5714 48.1515 18.9447 47.8848 19.3394C47.6181 19.7341 47.2288 20.1767 46.7168 20.6674L42.8928 24.2994L42.4608 23.5154H49.0048V25.2754H40.7488ZM55.2773 25.4354C54.392 25.4354 53.592 25.2114 52.8773 24.7634C52.1733 24.3154 51.6186 23.6647 51.2133 22.8114C50.808 21.9474 50.6053 20.9021 50.6053 19.6754C50.6053 18.4487 50.808 17.4087 51.2133 16.5554C51.6186 15.6914 52.1733 15.0354 52.8773 14.5874C53.592 14.1394 54.392 13.9154 55.2773 13.9154C56.1733 13.9154 56.9733 14.1394 57.6773 14.5874C58.3813 15.0354 58.936 15.6914 59.3413 16.5554C59.7573 17.4087 59.9653 18.4487 59.9653 19.6754C59.9653 20.9021 59.7573 21.9474 59.3413 22.8114C58.936 23.6647 58.3813 24.3154 57.6773 24.7634C56.9733 25.2114 56.1733 25.4354 55.2773 25.4354ZM55.2773 23.6274C55.8 23.6274 56.2533 23.4887 56.6373 23.2114C57.0213 22.9234 57.32 22.4861 57.5333 21.8994C57.7573 21.3127 57.8693 20.5714 57.8693 19.6754C57.8693 18.7687 57.7573 18.0274 57.5333 17.4514C57.32 16.8647 57.0213 16.4327 56.6373 16.1554C56.2533 15.8674 55.8 15.7234 55.2773 15.7234C54.776 15.7234 54.328 15.8674 53.9333 16.1554C53.5493 16.4327 53.2453 16.8647 53.0213 17.4514C52.808 18.0274 52.7013 18.7687 52.7013 19.6754C52.7013 20.5714 52.808 21.3127 53.0213 21.8994C53.2453 22.4861 53.5493 22.9234 53.9333 23.2114C54.328 23.4887 54.776 23.6274 55.2773 23.6274ZM66.4429 25.4354C65.5576 25.4354 64.7576 25.2114 64.0429 24.7634C63.3389 24.3154 62.7842 23.6647 62.3789 22.8114C61.9736 21.9474 61.7709 20.9021 61.7709 19.6754C61.7709 18.4487 61.9736 17.4087 62.3789 16.5554C62.7842 15.6914 63.3389 15.0354 64.0429 14.5874C64.7576 14.1394 65.5576 13.9154 66.4429 13.9154C67.3389 13.9154 68.1389 14.1394 68.8429 14.5874C69.5469 15.0354 70.1016 15.6914 70.5069 16.5554C70.9229 17.4087 71.1309 18.4487 71.1309 19.6754C71.1309 20.9021 70.9229 21.9474 70.5069 22.8114C70.1016 23.6647 69.5469 24.3154 68.8429 24.7634C68.1389 25.2114 67.3389 25.4354 66.4429 25.4354ZM66.4429 23.6274C66.9656 23.6274 67.4189 23.4887 67.8029 23.2114C68.1869 22.9234 68.4856 22.4861 68.6989 21.8994C68.9229 21.3127 69.0349 20.5714 69.0349 19.6754C69.0349 18.7687 68.9229 18.0274 68.6989 17.4514C68.4856 16.8647 68.1869 16.4327 67.8029 16.1554C67.4189 15.8674 66.9656 15.7234 66.4429 15.7234C65.9416 15.7234 65.4936 15.8674 65.0989 16.1554C64.7149 16.4327 64.4109 16.8647 64.1869 17.4514C63.9736 18.0274 63.8669 18.7687 63.8669 19.6754C63.8669 20.5714 63.9736 21.3127 64.1869 21.8994C64.4109 22.4861 64.7149 22.9234 65.0989 23.2114C65.4936 23.4887 65.9416 23.6274 66.4429 23.6274Z" fill="#939393"/>
<g clip-path="url(#clip0_149_219)">
<path d="M32.0763 16.5551H30.5353V23.3796H20.5188V24.8961C20.5188 25.3132 20.8655 25.6544 21.2893 25.6544H29.7648L32.8468 28.6875V17.3134C32.8468 16.8963 32.5001 16.5551 32.0763 16.5551ZM28.9943 21.1047V14.2802C28.9943 13.8632 28.6476 13.522 28.2238 13.522H18.2073C17.7835 13.522 17.4368 13.8632 17.4368 14.2802V24.8961L20.5188 21.863H28.2238C28.6476 21.863 28.9943 21.5218 28.9943 21.1047Z" fill="#9747FF"/>
</g>
<defs>
<filter id="filter0_d_149_219" x="0.499512" y="0.635742" width="87.1943" height="45.1179" filterUnits="userSpaceOnUse" color-interpolation-filters="sRGB">
<feFlood flood-opacity="0" result="BackgroundImageFix"/>
<feColorMatrix in="SourceAlpha" type="matrix" values="0 0 0 0 0 0 0 0 0 0 0 0 0 0 0 0 0 0 127 0" result="hardAlpha"/>
<feOffset dy="3"/>
<feGaussianBlur stdDeviation="4"/>
<feComposite in2="hardAlpha" operator="out"/>
<feColorMatrix type="matrix" values="0 0 0 0 0 0 0 0 0 0 0 0 0 0 0 0 0 0 0.25 0"/>
<feBlend mode="normal" in2="BackgroundImageFix" result="effect1_dropShadow_149_219"/>
<feBlend mode="normal" in="SourceGraphic" in2="effect1_dropShadow_149_219" result="shape"/>
</filter>
<clipPath id="clip0_149_219">
<rect width="18.4921" height="18.1986" fill="white" transform="translate(15.8958 12.0054)"/>
</clipPath>
</defs>
</svg>
