<svg width="18" height="16" viewBox="0 0 18 16" fill="none" xmlns="http://www.w3.org/2000/svg">
<path d="M6.18483 7.45475C6.85474 7.45475 7.50959 7.25926 8.06659 6.89299C8.6236 6.52671 9.05773 6.00612 9.31409 5.39703C9.57045 4.78795 9.63752 4.11772 9.50683 3.47112C9.37614 2.82452 9.05355 2.23057 8.57986 1.7644C8.10617 1.29822 7.50265 0.980754 6.84562 0.852136C6.18859 0.723519 5.50756 0.78953 4.88866 1.04182C4.26975 1.29411 3.74076 1.72136 3.36858 2.26952C2.9964 2.81768 2.79776 3.46215 2.79776 4.12142C2.79776 5.00548 3.15461 5.85332 3.78981 6.47844C4.42501 7.10356 5.28653 7.45475 6.18483 7.45475ZM12.959 9.12142C13.4614 9.12142 13.9526 8.9748 14.3703 8.70009C14.7881 8.42539 15.1137 8.03494 15.3059 7.57813C15.4982 7.12131 15.5485 6.61865 15.4505 6.13369C15.3525 5.64874 15.1105 5.20329 14.7553 4.85365C14.4 4.50402 13.9474 4.26592 13.4546 4.16946C12.9618 4.07299 12.451 4.1225 11.9869 4.31172C11.5227 4.50094 11.1259 4.82137 10.8468 5.2325C10.5677 5.64362 10.4187 6.12697 10.4187 6.62142C10.4187 7.28446 10.6863 7.92035 11.1627 8.38919C11.6391 8.85803 12.2853 9.12142 12.959 9.12142ZM16.3461 14.9548C16.5706 14.9548 16.786 14.867 16.9448 14.7107C17.1036 14.5544 17.1928 14.3424 17.1928 14.1214C17.1922 13.3426 16.9697 12.5795 16.5507 11.9188C16.1316 11.2581 15.5328 10.7262 14.8222 10.3835C14.1115 10.0407 13.3175 9.90087 12.5302 9.97975C11.7429 10.0586 10.9938 10.3531 10.3679 10.8298C9.53848 10.0167 8.48302 9.46358 7.3346 9.24011C6.18618 9.01663 4.99624 9.13283 3.91484 9.57403C2.83343 10.0152 1.909 10.7617 1.25811 11.7193C0.607221 12.6769 0.25903 13.8027 0.257446 14.9548C0.257446 15.1758 0.346659 15.3877 0.505459 15.544C0.66426 15.7003 0.879639 15.7881 1.10422 15.7881H11.2655C11.49 15.7881 11.7054 15.7003 11.8642 15.544C12.023 15.3877 12.1122 15.1758 12.1122 14.9548" fill="#9747FF"/>
</svg>
