<svg width="18" height="18" viewBox="0 0 18 18" fill="none" xmlns="http://www.w3.org/2000/svg">
<path d="M12.458 0.966888C12.3778 0.95812 12.2976 0.949352 12.2174 0.940584C12.066 0.931816 11.9323 0.923048 11.772 0.923048C11.4245 0.896744 11.0592 0.87044 10.6672 0.87044C10.5336 0.861672 10.391 0.844136 10.2396 0.852904C10.1416 0.844136 10.0525 0.844136 9.94555 0.844136C9.66936 0.835368 9.40208 0.835368 9.15262 0.817832C8.99225 0.817832 8.84079 0.809064 8.70715 0.800296C8.33296 0.78276 7.9855 0.756456 7.66476 0.721384C7.5133 0.712617 7.37075 0.69508 7.2282 0.677545C7.0411 0.651241 6.87183 0.624937 6.70255 0.598633C6.53327 0.642473 6.35508 0.69508 6.1769 0.765224C6.05217 0.800296 5.91852 0.844136 5.8027 0.887976C5.90071 0.91428 6.00762 0.931816 6.13235 0.949352C6.44418 1.01073 6.80055 1.06334 7.16583 1.10718C7.30838 1.12471 7.45093 1.14225 7.59348 1.15978C7.94095 1.18609 8.29732 1.22116 8.67152 1.2387C8.81407 1.2387 8.95662 1.25623 9.11698 1.25623C9.37536 1.265 9.66046 1.28254 9.94555 1.28254C10.0346 1.28254 10.1416 1.28254 10.2217 1.2913C10.3821 1.2913 10.5247 1.2913 10.6583 1.30007C11.0592 1.30884 11.4334 1.32638 11.7809 1.35268C11.9502 1.36145 12.0927 1.37898 12.2353 1.37898C12.6451 1.41406 13.0193 1.44913 13.3757 1.50174C13.438 1.5105 13.4915 1.5105 13.5538 1.51927C13.4915 1.47543 13.438 1.44036 13.3667 1.42282L12.458 0.966888ZM15.4426 3.00979C15.5852 3.15005 15.7099 3.29037 15.8257 3.43946L15.8346 3.44819C15.8881 3.50085 15.9504 3.56217 15.9861 3.63228C15.9594 3.606 15.9237 3.606 15.8792 3.59728C15.7188 3.54468 15.5585 3.49207 15.3802 3.45696C14.9972 3.36053 14.5784 3.26404 14.124 3.18516C13.9726 3.15888 13.8211 3.13255 13.6608 3.115C13.2865 3.04489 12.8857 3.00101 12.4491 2.95718C12.2976 2.94846 12.1373 2.93085 11.9769 2.91335C11.6116 2.88708 11.2106 2.86075 10.8008 2.84319C10.6494 2.83447 10.5068 2.83447 10.3554 2.82564C10.1149 2.81692 9.85646 2.80814 9.58913 2.80814C9.44666 2.80814 9.313 2.79936 9.18826 2.79936C9.0279 2.79942 8.87645 2.79059 8.74279 2.78181C8.33294 2.76431 7.9499 2.73798 7.58458 2.71165C7.44206 2.69415 7.29056 2.68538 7.14803 2.66788C6.7471 2.62405 6.35509 2.57144 5.99869 2.50123C5.83833 2.48373 5.69575 2.46618 5.55322 2.43112C5.16121 2.36097 4.78703 2.27325 4.45739 2.17682C4.29703 2.14177 4.1545 2.08916 4.00306 2.04533C3.94063 2.019 3.86934 2.0015 3.80702 1.97517C3.8694 1.91379 3.95847 1.86124 4.0297 1.80858C4.10099 1.75597 4.17228 1.72092 4.24357 1.66831C4.32378 1.69459 4.40394 1.72092 4.49301 1.73847C4.80487 1.83485 5.16121 1.92257 5.55322 1.99273C5.68689 2.01905 5.82941 2.05411 5.98977 2.07161C6.33725 2.13304 6.71148 2.18559 7.11236 2.22948C7.24602 2.23825 7.38855 2.25575 7.55788 2.26453C7.91423 2.29958 8.29732 2.32586 8.68933 2.34347C8.84078 2.35219 8.98336 2.35219 9.14372 2.35224C9.28625 2.36974 9.42883 2.36974 9.58913 2.36974C9.8297 2.37852 10.0614 2.37852 10.293 2.39607C10.4534 2.39602 10.596 2.39602 10.7385 2.41357C11.1483 2.41357 11.5403 2.44862 11.9057 2.47495C12.0749 2.48373 12.2175 2.50128 12.3689 2.51001C12.7876 2.55389 13.1886 2.59772 13.5538 2.6591C13.7231 2.66788 13.8746 2.69415 14.0171 2.72921C14.4626 2.79936 14.8813 2.87825 15.2555 2.96596C15.3179 2.97468 15.3803 3.00106 15.4426 3.00979ZM16.9662 5.15796C17.0909 5.36843 17.18 5.5788 17.2691 5.80678C17.0552 5.68401 16.8236 5.5788 16.5563 5.47364C16.3781 5.40348 16.191 5.32455 15.995 5.25444C15.5941 5.12285 15.1486 5.00008 14.6497 4.87737C14.4893 4.84232 14.329 4.80727 14.1508 4.77221C13.7498 4.69328 13.3311 4.6319 12.8767 4.57052C12.7252 4.54419 12.5649 4.52669 12.4046 4.50913C12.0214 4.46525 11.6027 4.42147 11.1662 4.39514C11.0147 4.38637 10.8632 4.37764 10.7118 4.36881C10.3198 4.35132 9.92769 4.33376 9.50898 4.32499C9.41991 4.32499 9.33084 4.32499 9.24171 4.32504C9.17042 4.32499 9.1081 4.31621 9.05459 4.31621C8.62696 4.31621 8.23495 4.29871 7.85185 4.27243C7.70041 4.2636 7.54897 4.25488 7.40639 4.23733C6.96984 4.211 6.58674 4.16717 6.21256 4.11456C6.05214 4.09701 5.89178 4.07951 5.74034 4.05323C5.31271 3.98302 4.91172 3.90414 4.5376 3.81648C4.37718 3.78138 4.22574 3.73755 4.07429 3.69372C3.62883 3.57095 3.23681 3.43069 2.89825 3.29037C2.75573 3.23776 2.63985 3.17638 2.51516 3.12378C2.58639 3.01856 2.67552 2.93085 2.76459 2.84319L2.81804 2.79059C2.83588 2.79059 2.85372 2.80814 2.88047 2.81692C3.21006 2.96596 3.58429 3.10628 4.02079 3.23776C4.17228 3.28165 4.32373 3.32548 4.48409 3.36053C4.84049 3.44819 5.2325 3.5359 5.66013 3.606C5.81163 3.63233 5.97199 3.64983 6.12344 3.67622C6.48875 3.71999 6.88076 3.7726 7.30839 3.79015C7.442 3.81643 7.5935 3.8252 7.75386 3.82526C8.12804 3.86031 8.52006 3.87781 8.94769 3.87781C9.04568 3.88659 9.1348 3.88664 9.24171 3.88664C9.29516 3.88659 9.34862 3.88664 9.40207 3.88659C9.81187 3.90414 10.2039 3.90414 10.587 3.93042C10.7385 3.93925 10.8899 3.94797 11.0414 3.95674C11.478 3.98307 11.8878 4.01813 12.2709 4.06196C12.4313 4.07946 12.5827 4.08829 12.7342 4.11456C13.1797 4.16717 13.5983 4.22855 13.9904 4.29866C14.1597 4.32504 14.3201 4.36009 14.4715 4.38637C14.9526 4.49158 15.3892 4.60557 15.799 4.72833C15.9861 4.78971 16.1643 4.84232 16.3247 4.91248C16.5652 4.99136 16.7701 5.07024 16.9662 5.15796ZM17.7056 7.25352C17.7591 7.46394 17.7858 7.68314 17.8036 7.89356C17.7056 7.81468 17.5898 7.73574 17.4739 7.65681C17.278 7.53405 17.073 7.40256 16.8324 7.28857C16.4227 7.07815 15.9326 6.87645 15.3714 6.69235C15.1932 6.63975 15.015 6.58714 14.8278 6.54331C14.427 6.42932 13.9726 6.33289 13.4826 6.2364C13.3311 6.21012 13.1619 6.18385 12.9837 6.16624C12.5916 6.09614 12.164 6.04353 11.7096 5.99965C11.5493 5.98215 11.3888 5.96459 11.2196 5.95582C10.8454 5.92077 10.4356 5.90327 10.008 5.88571C9.85646 5.87694 9.68718 5.86821 9.52682 5.86816C9.32192 5.85938 9.09918 5.85061 8.88537 5.85061C8.68933 5.85066 8.51114 5.85061 8.32402 5.84188C8.17263 5.83311 8.01222 5.83311 7.86072 5.82433C7.42422 5.79805 7.02329 5.77167 6.63128 5.73662C6.47091 5.71912 6.30158 5.71034 6.15905 5.67529C5.70472 5.63146 5.28595 5.57008 4.90286 5.49114C4.73358 5.46487 4.58208 5.43854 4.42177 5.40343C3.94955 5.28944 3.53078 5.17551 3.15666 5.03519C2.97846 4.98258 2.8181 4.92998 2.6666 4.86865C2.23897 4.69323 1.87365 4.50913 1.56185 4.32504C1.63314 4.20222 1.72221 4.07946 1.81134 3.95674C2.03407 4.08829 2.27459 4.21977 2.56861 4.35126C2.71114 4.42142 2.88042 4.4828 3.0497 4.54419C3.40609 4.6845 3.81594 4.80721 4.29703 4.91248C4.43955 4.96509 4.59992 5.00014 4.7692 5.02641C5.15229 5.10535 5.56214 5.17551 6.02544 5.22806C6.16797 5.24567 6.31941 5.27194 6.48875 5.28072C6.87185 5.32455 7.27272 5.35088 7.70933 5.37715C7.85185 5.39465 8.0033 5.40348 8.17263 5.39471C8.40423 5.41221 8.6448 5.42098 8.89429 5.42098C9.05459 5.42098 9.22393 5.42976 9.37532 5.43854C9.54465 5.42976 9.70496 5.44731 9.85646 5.45609C10.2752 5.46481 10.685 5.48237 11.0681 5.50864C11.2285 5.5262 11.3888 5.54375 11.5403 5.55253C11.9947 5.59635 12.4134 5.64018 12.8144 5.70157C12.9925 5.71912 13.1619 5.74545 13.3044 5.7805C13.7855 5.85061 14.2131 5.93832 14.6141 6.03475C14.8011 6.07864 14.9883 6.12247 15.1486 6.17507C15.6832 6.31534 16.1554 6.48193 16.5741 6.66602C16.788 6.75373 16.9929 6.85017 17.1799 6.9466C17.367 7.04309 17.5452 7.14825 17.7056 7.25352ZM17.8838 9.16493C17.8927 9.36658 17.8838 9.56822 17.8571 9.76992C17.8214 9.73482 17.7858 9.69976 17.7324 9.66471C17.367 9.32275 16.8592 8.98084 16.1911 8.67393C16.0217 8.59504 15.8346 8.51611 15.6298 8.43717C15.2199 8.27936 14.7655 8.13026 14.2488 8.00755C14.0795 7.96372 13.9102 7.91989 13.7142 7.88479C13.7142 7.88479 13.7142 7.88479 13.7053 7.87601C13.3044 7.79713 12.8857 7.71819 12.4134 7.65686C12.2531 7.62181 12.0749 7.6042 11.8967 7.5867L11.8878 7.57793C11.4869 7.53405 11.086 7.49022 10.6316 7.46394C10.4712 7.44639 10.3019 7.43766 10.1326 7.42883C9.74063 7.41133 9.34862 7.39383 8.91207 7.38506C8.79624 7.37628 8.66264 7.385 8.52897 7.37623C8.49336 7.37628 8.45768 7.37628 8.42206 7.37623C7.98546 7.3675 7.57566 7.34995 7.19257 7.32367C7.03221 7.32362 6.87184 7.30612 6.72035 7.29735C6.27493 7.26229 5.85617 7.21846 5.46415 7.16586C5.29487 7.13947 5.11667 7.12198 4.95631 7.08692C4.48414 7.00799 4.05651 6.92033 3.66444 6.83267C3.48625 6.78006 3.31702 6.73618 3.15666 6.68358C2.6399 6.52576 2.18546 6.35916 1.81134 6.16629C1.6153 6.07858 1.43716 5.97337 1.28566 5.87694C1.1253 5.78922 0.982718 5.70157 0.866892 5.60513C0.9204 5.46481 0.99169 5.32455 1.06293 5.20178L1.13422 5.27194C1.29452 5.37715 1.46386 5.49114 1.65984 5.59635C2.01623 5.80678 2.4617 5.99965 2.99624 6.17507C3.1566 6.22768 3.31697 6.28028 3.50408 6.32411C3.88718 6.43805 4.31486 6.54331 4.79595 6.61347C4.80487 6.62225 4.80487 6.62225 4.80487 6.62225C4.96523 6.6573 5.12559 6.6748 5.29487 6.70108C5.67797 6.76246 6.08776 6.81512 6.5422 6.84139C6.68473 6.859 6.85401 6.86772 7.03221 6.88522C7.41525 6.91155 7.82515 6.92911 8.2617 6.93788C8.35077 6.93788 8.44877 6.94666 8.53789 6.9466C8.60913 6.9466 8.67155 6.95538 8.73387 6.9466C9.15258 6.95538 9.56249 6.97293 9.95445 6.99049C10.1237 6.99921 10.2752 7.00799 10.4355 7.00799C10.881 7.04309 11.2998 7.08692 11.6918 7.12197C11.8699 7.13953 12.0393 7.16586 12.1996 7.18336C12.6718 7.24474 13.0995 7.3149 13.5093 7.40256C13.6964 7.42883 13.8745 7.46394 14.026 7.50782C14.5428 7.61298 14.9972 7.74452 15.407 7.88479C15.6119 7.94617 15.7901 8.01633 15.9593 8.09526C16.5652 8.32319 17.0552 8.57749 17.4562 8.8493C17.6165 8.95451 17.7591 9.05972 17.8838 9.16493ZM17.6878 10.8308C17.6611 10.9974 17.6254 11.1728 17.5631 11.3394C17.376 11.1552 17.1621 10.9624 16.886 10.7782C16.7167 10.6643 16.5296 10.5502 16.3247 10.4362C15.9416 10.2171 15.4872 10.0155 14.9437 9.84881C14.7833 9.7787 14.6052 9.72604 14.4091 9.67344C14.0171 9.55072 13.5716 9.44551 13.0906 9.34025C12.9213 9.31397 12.7609 9.27892 12.5916 9.25264C12.1907 9.19126 11.772 9.12982 11.3176 9.08605C11.1661 9.05972 11.0058 9.04217 10.8187 9.03344C10.4355 8.98956 10.0168 8.96323 9.58027 8.93701C9.41991 8.93695 9.25955 8.91946 9.08135 8.9194C8.79624 8.9019 8.49335 8.9019 8.18155 8.89313C8.07459 8.89307 7.9499 8.89313 7.85185 8.8844C7.69149 8.88435 7.53108 8.88435 7.37968 8.87557C6.93416 8.85807 6.51545 8.83174 6.13235 8.78791C5.95416 8.77041 5.78488 8.76158 5.63343 8.73531C5.17013 8.7002 4.7425 8.6301 4.34156 8.56871C4.16337 8.53366 3.98522 8.49856 3.81594 8.45473C3.31697 8.34951 2.88042 8.23553 2.47954 8.10398C2.2835 8.03383 2.08752 7.96372 1.91824 7.90234C1.29458 7.63931 0.804574 7.34995 0.430396 7.06937L0.403642 7.04304C0.403642 7.04304 0.403642 7.04304 0.403588 7.02554C0.394724 7.01682 0.394724 7.01682 0.403642 7.00804C0.439314 6.86772 0.474878 6.72741 0.519414 6.57836C0.813438 6.83262 1.20551 7.0957 1.72221 7.34123C1.89149 7.42006 2.07861 7.49899 2.27464 7.56915C2.65768 7.71825 3.1032 7.85851 3.61991 7.98127C3.78027 8.01633 3.95847 8.05138 4.13667 8.08643C4.5376 8.16537 4.96518 8.23553 5.44637 8.28813C5.59781 8.31441 5.76704 8.32319 5.93637 8.34951C6.32839 8.38457 6.7471 8.4109 7.19257 8.42845C7.34401 8.43717 7.49551 8.44595 7.67366 8.44595C7.84299 8.45473 8.01222 8.4635 8.19041 8.46345C8.43098 8.47223 8.66258 8.47228 8.89429 8.48978C9.07243 8.48978 9.23279 8.48983 9.39316 8.50733C9.8297 8.51611 10.2306 8.54238 10.6227 8.57744C10.8008 8.59504 10.9701 8.60377 11.1305 8.62132C11.5849 8.66515 12.0126 8.71775 12.4046 8.78791C12.5827 8.80547 12.752 8.83174 12.9124 8.8668C13.3934 8.95451 13.83 9.05094 14.2221 9.15615C14.4091 9.20004 14.5873 9.25264 14.7477 9.30525C15.2644 9.46307 15.7277 9.63838 16.1198 9.83131C16.3336 9.91896 16.5206 10.0154 16.681 10.1207C17.0909 10.3486 17.4205 10.5853 17.6878 10.8308ZM17.2423 12.3039C17.2512 12.3127 17.2512 12.3127 17.2512 12.3127L17.2424 12.3214C17.1799 12.4529 17.1176 12.5845 17.0463 12.7247C16.9839 12.6633 16.9127 12.5932 16.8236 12.5231C16.4761 12.2512 16.0485 11.9707 15.4872 11.7164C15.3268 11.6462 15.1575 11.5674 14.9704 11.506C14.5962 11.3482 14.1686 11.2079 13.6786 11.0939C13.5271 11.0501 13.3578 11.0062 13.1886 10.9624C12.8055 10.8835 12.3867 10.8045 11.9234 10.7344C11.772 10.7081 11.6027 10.6818 11.4245 10.6642C11.0414 10.6028 10.6227 10.559 10.1772 10.524C10.0257 10.5152 9.86538 10.4977 9.6961 10.4889C9.313 10.4626 8.90315 10.4451 8.48444 10.4363C8.33294 10.4275 8.18155 10.4187 8.01222 10.4275C7.95882 10.4275 7.89639 10.4187 7.82515 10.4187C7.46876 10.4187 7.12128 10.41 6.79164 10.3836C6.63128 10.3837 6.47086 10.3661 6.31947 10.3574C5.86508 10.331 5.44631 10.2872 5.06322 10.2434L5.0543 10.2346C4.86724 10.2258 4.69796 10.1995 4.54646 10.1732C4.07429 10.1118 3.64666 10.0242 3.25459 9.93652C3.0497 9.89263 2.86263 9.84886 2.70222 9.7962C2.1499 9.65594 1.68654 9.48057 1.28566 9.29647C1.06293 9.20004 0.84911 9.09483 0.670912 8.98956C0.661994 8.98078 0.661994 8.98078 0.661994 8.98078C0.48385 8.87557 0.332352 8.77914 0.180908 8.68265C0.180908 8.48978 0.189826 8.30569 0.207608 8.13032C0.261062 8.18292 0.323434 8.22675 0.394724 8.27936C0.564004 8.41084 0.768902 8.54238 1.00947 8.67393C1.41035 8.89313 1.89149 9.10355 2.4884 9.2877C2.6666 9.3403 2.8448 9.39291 3.03191 9.43674C3.42387 9.54195 3.85156 9.62966 4.34162 9.70854C4.50193 9.74365 4.68012 9.76115 4.86724 9.78742C5.2592 9.84008 5.6958 9.88391 6.14122 9.91896C6.29271 9.92774 6.44421 9.93652 6.61344 9.94529C6.99653 9.97157 7.39752 9.98035 7.83407 9.98912L7.85185 9.98907C8.01222 9.98912 8.17263 9.98912 8.32402 9.9979C8.75171 10.0154 9.1615 10.033 9.55357 10.0505C9.70502 10.0592 9.8743 10.0681 10.0168 10.0856C10.4534 10.1119 10.8721 10.1557 11.2642 10.2083C11.4423 10.2259 11.6116 10.2522 11.7631 10.2785C12.2263 10.3311 12.6451 10.41 13.0371 10.4976C13.2064 10.524 13.3757 10.5678 13.5271 10.6117C14.0082 10.7169 14.4447 10.8484 14.8368 10.9887C15.015 11.0588 15.1842 11.1202 15.3535 11.1816C15.8881 11.4095 16.3336 11.655 16.6989 11.9093C16.9037 12.0408 17.0909 12.1723 17.2423 12.3039ZM16.6008 13.5489C16.5118 13.6892 16.4315 13.8207 16.3336 13.9522C16.1821 13.8383 16.0128 13.7243 15.8257 13.6103C15.6832 13.5226 15.5228 13.4349 15.3447 13.3473C14.9883 13.1719 14.5785 12.9965 14.1062 12.8475C13.9547 12.7861 13.7944 12.7335 13.6251 12.6897C13.2509 12.5844 12.8411 12.4793 12.3957 12.3915C12.2353 12.3565 12.0749 12.3389 11.9056 12.3127C11.5314 12.2425 11.1305 12.1811 10.685 12.146C10.5425 12.111 10.3732 12.1022 10.2128 12.0847C9.82976 12.0408 9.42883 12.0145 9.0012 11.997C8.8497 11.9882 8.69825 11.9795 8.52897 11.9706C8.19041 11.9532 7.83407 11.9531 7.46876 11.9444C7.4153 11.9444 7.37968 11.9444 7.3351 11.9356C7.16587 11.9444 7.01437 11.9356 6.86293 11.9269C6.42638 11.9181 6.02544 11.8918 5.64235 11.8654C5.48199 11.8479 5.33049 11.8392 5.17013 11.8217C4.72466 11.7865 4.30589 11.7252 3.93171 11.655C3.7446 11.6287 3.57537 11.6024 3.41501 11.5674C2.92495 11.4709 2.4884 11.3745 2.09644 11.2517C1.90933 11.1903 1.73113 11.1377 1.56185 11.0763C1.06293 10.901 0.644212 10.6993 0.296734 10.4977C0.261116 10.3048 0.234362 10.1207 0.21658 9.92774C0.51055 10.1294 0.87581 10.3311 1.32128 10.5064C1.49948 10.5941 1.68659 10.6555 1.89149 10.7344C2.29237 10.8659 2.73789 10.9886 3.24573 11.0851C3.39717 11.129 3.57537 11.164 3.76243 11.1903C4.13667 11.2604 4.55538 11.3219 5.00977 11.3657C5.17013 11.3833 5.33049 11.4008 5.49091 11.4183C5.874 11.4446 6.2838 11.4797 6.72035 11.4885C6.87184 11.4972 7.02329 11.506 7.20143 11.506C7.29056 11.506 7.3886 11.5147 7.47768 11.5147C7.78948 11.5235 8.09237 11.5235 8.39531 11.541C8.55567 11.5411 8.71604 11.5586 8.86753 11.5674C9.30408 11.5761 9.71393 11.6112 10.0881 11.6462C10.2574 11.6551 10.4178 11.6726 10.5603 11.6901C10.9968 11.7339 11.4067 11.7866 11.7898 11.8479C11.968 11.883 12.1373 11.9093 12.2887 11.9356C12.7252 12.0145 13.1351 12.1022 13.5182 12.1986C13.6786 12.2513 13.8479 12.2951 14.0083 12.3477C14.4715 12.488 14.8903 12.637 15.2555 12.8036C15.4426 12.8825 15.603 12.9527 15.7544 13.0316C16.0752 13.207 16.3514 13.3736 16.6008 13.5489ZM15.701 14.7326C15.6208 14.8466 15.5228 14.9606 15.407 15.057C15.407 15.0745 15.4159 15.0833 15.3981 15.0833L15.3891 15.0745C15.0773 14.8904 14.721 14.7151 14.3022 14.566C14.1686 14.5047 14.026 14.452 13.8568 14.4082C13.5093 14.2767 13.1262 14.1627 12.6896 14.0663C12.547 14.0312 12.3956 13.9873 12.2352 13.9523C11.8611 13.8821 11.469 13.812 11.0503 13.7506C10.9078 13.7331 10.7563 13.7067 10.587 13.698C10.2218 13.6366 9.82976 13.6015 9.40207 13.5665C9.25063 13.5576 9.09919 13.5489 8.93877 13.5314C8.56459 13.5139 8.17263 13.4963 7.77165 13.4875C7.6202 13.4788 7.46876 13.47 7.29948 13.4788C7.24602 13.4788 7.18365 13.47 7.11236 13.47C6.76494 13.4613 6.42638 13.4613 6.10565 13.4437C5.95416 13.4349 5.80271 13.4262 5.65127 13.4174C5.2325 13.3911 4.83157 13.3473 4.44847 13.3034C4.28811 13.2858 4.11883 13.2596 3.95847 13.2421C3.52192 13.1806 3.1032 13.1017 2.72005 13.0229C2.54191 12.9878 2.38155 12.9527 2.21221 12.9088C1.71329 12.7686 1.26788 12.6283 0.893646 12.4704C0.87581 12.4704 0.87581 12.4704 0.87581 12.4704C0.866946 12.4441 0.84911 12.409 0.84911 12.374C0.840192 12.3653 0.831274 12.3565 0.831274 12.3389C0.768902 12.2074 0.715502 12.0671 0.670912 11.918C1.06293 12.0934 1.51731 12.2601 2.05185 12.4178C2.21227 12.4529 2.37263 12.5055 2.55077 12.5406C2.93387 12.637 3.36156 12.7247 3.83372 12.7861C3.98517 12.8124 4.14558 12.8299 4.31481 12.8563C4.69791 12.9001 5.09884 12.9439 5.53544 12.9702C5.68688 12.979 5.83833 12.9878 5.99875 12.9878C6.34617 13.014 6.72927 13.0229 7.1302 13.0316C7.14803 13.0316 7.18365 13.0316 7.19257 13.0404C7.36185 13.0316 7.51329 13.0404 7.65582 13.0404C8.06572 13.0579 8.45768 13.0755 8.83186 13.093C9.0012 13.1017 9.15258 13.1105 9.30408 13.1193C9.73177 13.1544 10.1326 13.1982 10.4979 13.2421C10.6583 13.2596 10.8187 13.2771 10.9612 13.2946C11.38 13.356 11.7898 13.4262 12.164 13.4963C12.3244 13.5314 12.4847 13.5664 12.6362 13.5928C13.0727 13.6892 13.4647 13.7944 13.8211 13.9172C13.9815 13.9698 14.1419 14.0224 14.2844 14.075C14.7121 14.2328 15.0952 14.3994 15.4248 14.566C15.5228 14.6274 15.6119 14.68 15.701 14.7326ZM14.5339 15.8461C14.4359 15.925 14.3378 16.0039 14.2399 16.0653C14.2042 16.1004 14.1597 16.1267 14.1152 16.153C14.0082 16.1004 13.9013 16.0653 13.7855 16.0215C13.4737 15.9075 13.1262 15.7935 12.752 15.6883C12.6095 15.6532 12.458 15.6094 12.2977 15.5743C11.9591 15.4866 11.6027 15.4165 11.2106 15.3463C11.0681 15.3289 10.9167 15.3025 10.7563 15.285C10.4088 15.2236 10.0257 15.1798 9.62486 15.1359C9.48228 15.1184 9.33078 15.1096 9.17934 15.1009C8.82294 15.0658 8.43985 15.0395 8.03897 15.0307C7.89639 15.0132 7.73603 15.0132 7.57566 15.0132C7.31731 15.0044 7.04999 14.9869 6.76494 14.9869C6.64019 14.9869 6.52437 14.9781 6.41746 14.9781C6.25704 14.9781 6.12349 14.9693 5.98091 14.9693C5.57106 14.9518 5.17905 14.9342 4.80487 14.8992C4.64451 14.8817 4.49301 14.8729 4.35048 14.8554C3.92285 14.8203 3.52192 14.7589 3.15666 14.6975C2.98732 14.6712 2.83588 14.6449 2.67552 14.6099C2.47954 14.5748 2.30134 14.5397 2.13206 14.4959C1.98062 14.3117 1.84695 14.1276 1.70443 13.9347C1.96278 14.0137 2.26567 14.0838 2.56861 14.1539C2.72005 14.1802 2.88047 14.2153 3.0497 14.2416C3.42393 14.3117 3.83378 14.3643 4.27027 14.4082C4.41285 14.4257 4.5643 14.4344 4.72466 14.4521C5.081 14.4871 5.48193 14.5134 5.89184 14.5309C6.04323 14.5397 6.19473 14.5485 6.35509 14.5484C6.4887 14.5573 6.63127 14.5573 6.7738 14.5572C7.03221 14.566 7.28164 14.566 7.51335 14.5835C7.67365 14.5835 7.83407 14.5835 7.9766 14.601C8.37753 14.6099 8.76063 14.6361 9.12588 14.6624C9.28625 14.68 9.43769 14.6888 9.58919 14.6975C9.99012 14.7414 10.3732 14.7852 10.7296 14.8378C10.89 14.8553 11.0414 14.8816 11.184 14.9167C11.5849 14.9781 11.9591 15.0482 12.3065 15.1272C12.4669 15.1623 12.6273 15.1973 12.7698 15.2499C13.1708 15.3463 13.5271 15.4516 13.8479 15.5743C14.0083 15.6269 14.1508 15.6795 14.2933 15.7321C14.3735 15.776 14.4626 15.8111 14.5339 15.8461ZM12.8233 16.8983C12.7252 16.9421 12.6451 16.986 12.5382 17.021C12.4313 17.0737 12.3155 17.1174 12.1996 17.1613C12.1462 17.1438 12.1016 17.135 12.0393 17.1263C11.7452 17.0473 11.4334 16.986 11.0949 16.9158C10.9434 16.8895 10.7919 16.8632 10.6316 16.8457C10.3197 16.7843 9.99012 16.7405 9.62481 16.7142C9.4912 16.6879 9.33078 16.6703 9.17048 16.6528C8.83186 16.6177 8.4666 16.5914 8.09237 16.5739C7.94098 16.5651 7.78948 16.5563 7.63804 16.5476C7.29056 16.5388 6.93416 16.5213 6.5422 16.5213C6.49761 16.5125 6.46199 16.5125 6.40854 16.5125C6.30163 16.5125 6.19472 16.5125 6.09673 16.5037C5.70467 16.5037 5.33941 16.4775 4.98301 16.4599C4.83162 16.4511 4.68012 16.4423 4.52868 16.4336C4.46631 16.4248 4.40394 16.4161 4.33264 16.416C4.07429 16.2494 3.81589 16.0829 3.58429 15.89C3.86934 15.9251 4.17228 15.9601 4.50193 15.9864C4.64445 16.0039 4.79595 16.0127 4.95631 16.0302C5.31271 16.0478 5.68683 16.0653 6.08782 16.0741C6.19472 16.0741 6.31055 16.0829 6.41746 16.0829C6.45308 16.0828 6.48869 16.0829 6.52437 16.0829C6.90746 16.0916 7.29056 16.1004 7.6469 16.1179C7.7984 16.1267 7.96768 16.1354 8.1102 16.153C8.4933 16.1618 8.8497 16.1969 9.18831 16.2319C9.35754 16.2407 9.50898 16.2494 9.65156 16.2845C10.0257 16.3196 10.3732 16.3635 10.7029 16.4248C10.8632 16.4424 11.0147 16.4687 11.1572 16.5037C11.5136 16.5563 11.8432 16.6353 12.155 16.7142C12.3065 16.7405 12.458 16.7843 12.5916 16.8282C12.6808 16.8457 12.7609 16.872 12.8233 16.8983Z" fill="#CCD0D2"/>
</svg>
