<svg width="18" height="18" viewBox="0 0 18 18" fill="none" xmlns="http://www.w3.org/2000/svg">
<path d="M15.2912 2.84322C15.3447 2.89583 15.3981 2.94844 15.4426 3.00982C15.5852 3.15008 15.7099 3.2904 15.8257 3.43949L15.8346 3.44822C15.8436 3.49205 15.8614 3.54465 15.8792 3.59731C16.0039 4.0006 16.1465 4.43906 16.3247 4.91251C16.3959 5.08783 16.4672 5.28075 16.5563 5.47367C16.6811 5.78931 16.8147 6.11366 16.9661 6.45568C17.0463 6.62228 17.1087 6.78887 17.1799 6.94663C17.2868 7.19216 17.376 7.42009 17.4739 7.65684C17.6165 8.02513 17.7591 8.37582 17.8749 8.71778C17.8927 8.8581 17.8927 9.01587 17.8838 9.16496C17.8927 9.36661 17.8838 9.56825 17.8571 9.76995C17.8481 9.83134 17.8482 9.90149 17.8303 9.95405C17.8036 9.85761 17.7768 9.76118 17.7324 9.66474C17.6521 9.39294 17.5631 9.12985 17.4562 8.84932C17.278 8.35832 17.073 7.84099 16.8324 7.2886C16.7523 7.08695 16.6632 6.87653 16.5741 6.66605C16.5652 6.65733 16.5652 6.63978 16.5563 6.631C16.3424 6.15755 16.1554 5.69282 15.995 5.25447C15.9148 5.08788 15.8524 4.90373 15.799 4.72836C15.6298 4.28119 15.4872 3.86034 15.3802 3.45699C15.3357 3.2904 15.2911 3.12381 15.2555 2.96599C15.2288 2.90461 15.211 2.8345 15.2021 2.77307C15.2377 2.79062 15.2644 2.81689 15.2912 2.84322ZM13.8478 1.68584C13.8835 2.01903 13.928 2.36105 14.0171 2.72924C14.0439 2.87833 14.0884 3.02737 14.124 3.18519C14.2131 3.55343 14.3289 3.96555 14.4715 4.3864C14.525 4.54422 14.5873 4.71081 14.6497 4.8774C14.7833 5.28953 14.9526 5.71915 15.1486 6.1751C15.2199 6.35047 15.2822 6.51701 15.3714 6.69238C15.3803 6.71871 15.3981 6.75376 15.407 6.78009C15.6119 7.22722 15.7901 7.66562 15.9593 8.09529C16.0484 8.28816 16.1198 8.48103 16.1911 8.67395C16.387 9.18246 16.5473 9.65597 16.681 10.1207C16.7612 10.3398 16.8325 10.5679 16.886 10.7782C17.0374 11.3307 17.1621 11.8392 17.2423 12.3039C17.2512 12.3127 17.2512 12.3127 17.2512 12.3127L17.2423 12.3214C17.1799 12.453 17.1176 12.5845 17.0463 12.7248C17.0017 12.8212 16.9572 12.9176 16.9038 13.0229C16.886 12.865 16.8592 12.6985 16.8236 12.5231C16.788 12.3302 16.7523 12.1198 16.6989 11.9093C16.6097 11.4534 16.485 10.9624 16.3247 10.4363C16.2623 10.2347 16.1999 10.033 16.1198 9.83134C15.9861 9.38416 15.8168 8.91948 15.6298 8.4372C15.5585 8.26183 15.4871 8.06896 15.407 7.88482C15.2823 7.58673 15.1575 7.2711 15.0061 6.94663C14.9437 6.81515 14.8903 6.67488 14.8278 6.54334C14.7567 6.36797 14.6764 6.20138 14.6141 6.03478C14.4358 5.59638 14.2755 5.17554 14.1508 4.77224C14.0884 4.6231 14.0349 4.46528 13.9904 4.29869C13.8567 3.88662 13.7409 3.4921 13.6608 3.11503C13.6162 2.96599 13.5806 2.80817 13.5538 2.65913C13.4647 2.23828 13.4113 1.85249 13.3757 1.5017C13.3667 1.47547 13.3757 1.44914 13.3667 1.42282C13.438 1.44037 13.4915 1.47547 13.5539 1.5193C13.6608 1.57186 13.7498 1.62452 13.8478 1.68584ZM12.2174 0.870428C12.2174 0.887981 12.2175 0.923034 12.2175 0.940587C12.2175 1.0809 12.2263 1.22995 12.2353 1.37899C12.2442 1.7209 12.2887 2.09797 12.3689 2.51004C12.3867 2.66791 12.4224 2.80817 12.4491 2.95721C12.5203 3.32545 12.6183 3.70252 12.7342 4.11459C12.7787 4.26363 12.8233 4.41273 12.8767 4.57055C12.9925 4.94756 13.1351 5.35085 13.3044 5.78053C13.3667 5.92957 13.4291 6.07861 13.4826 6.23643C13.5984 6.50829 13.7142 6.79759 13.8478 7.08695C13.9102 7.23599 13.9726 7.36748 14.026 7.50785C14.1062 7.67439 14.1775 7.84976 14.2488 8.00758C14.427 8.46348 14.5962 8.89315 14.7477 9.30528C14.819 9.49809 14.8813 9.66474 14.9437 9.84883C15.104 10.3223 15.2377 10.7695 15.3535 11.1816C15.3981 11.3657 15.4515 11.5411 15.4872 11.7164C15.603 12.1811 15.6832 12.6283 15.7544 13.0317C15.7812 13.2333 15.808 13.435 15.8257 13.6103C15.8614 13.9435 15.8703 14.2504 15.8792 14.5397C15.8257 14.6099 15.7723 14.6801 15.701 14.7327C15.6208 14.8466 15.5228 14.9606 15.407 15.057C15.4248 14.8993 15.4248 14.7414 15.4248 14.5661C15.4248 14.1978 15.3981 13.7857 15.3447 13.3473C15.3268 13.1719 15.2911 12.9966 15.2555 12.8036C15.1843 12.4003 15.0952 11.9619 14.9704 11.5061C14.9348 11.3307 14.8903 11.1641 14.8368 10.9887C14.7209 10.5766 14.5785 10.1382 14.4091 9.67346C14.3557 9.49815 14.2934 9.33155 14.2221 9.15618C14.0795 8.75289 13.9102 8.32321 13.7142 7.88482C13.7142 7.88482 13.7142 7.88482 13.7053 7.87604C13.6519 7.71822 13.5806 7.5604 13.5093 7.40259C13.4915 7.34998 13.4648 7.30615 13.4469 7.25355C13.2776 6.87653 13.1262 6.51701 12.9836 6.16627C12.9302 6.00845 12.8678 5.85941 12.8144 5.7016C12.6451 5.28947 12.5114 4.89496 12.4046 4.50916C12.3511 4.36884 12.2976 4.21103 12.2709 4.06199C12.1462 3.65869 12.0571 3.27285 11.9769 2.91338C11.9502 2.76434 11.9234 2.61525 11.9057 2.47498C11.8432 2.06291 11.8076 1.69467 11.7809 1.35271C11.7719 1.20362 11.772 1.06335 11.772 0.923034C11.772 0.852928 11.7809 0.791546 11.772 0.730164C11.9234 0.773993 12.0749 0.817822 12.2174 0.870428ZM10.7118 0.440805C10.6939 0.581123 10.6762 0.721387 10.6672 0.870428C10.6583 1.00197 10.6494 1.15101 10.6583 1.3001C10.6583 1.63329 10.685 2.01031 10.7385 2.4136C10.7563 2.55387 10.7741 2.69418 10.8008 2.84322C10.8632 3.18524 10.9345 3.55348 11.0414 3.95678C11.086 4.08826 11.1216 4.24613 11.1662 4.39517C11.273 4.76341 11.4067 5.14049 11.5403 5.55256C11.5938 5.69282 11.6562 5.84186 11.7096 5.99968C11.8611 6.37669 12.0125 6.77126 12.1996 7.18339C12.2352 7.25355 12.262 7.33243 12.2976 7.40259C12.3333 7.49024 12.3689 7.57796 12.4134 7.65689C12.5916 8.07769 12.7609 8.48981 12.9124 8.86683C12.9747 9.03342 13.0282 9.19124 13.0906 9.34028C13.2598 9.78751 13.4024 10.2084 13.5271 10.6117C13.5895 10.7783 13.634 10.9449 13.6786 11.0939C13.8122 11.5411 13.9102 11.9532 14.0082 12.3477C14.0439 12.5231 14.0706 12.6897 14.1062 12.8475C14.1864 13.2946 14.2488 13.7068 14.2844 14.075C14.2934 14.2416 14.3022 14.4082 14.3022 14.5661C14.3379 14.9869 14.3201 15.3727 14.2933 15.7322C14.2665 15.8462 14.2577 15.9601 14.2399 16.0654C14.2042 16.1005 14.1597 16.1267 14.1152 16.153C13.9815 16.2495 13.8568 16.3372 13.7142 16.4073C13.7409 16.2933 13.7677 16.1618 13.7855 16.0215C13.8122 15.8724 13.83 15.7322 13.8479 15.5744C13.8746 15.2149 13.8835 14.8378 13.8567 14.4082C13.8479 14.2592 13.8389 14.0926 13.8211 13.9172C13.7766 13.5402 13.7142 13.1281 13.6251 12.6897C13.5895 12.5319 13.5539 12.3741 13.5182 12.1986C13.4291 11.8129 13.3133 11.4008 13.1886 10.9624C13.1351 10.8221 13.0816 10.6643 13.0371 10.4977C12.9034 10.1031 12.752 9.69102 12.5916 9.25267C12.5293 9.10363 12.4669 8.95448 12.4046 8.78794C12.2442 8.40215 12.0749 8.00758 11.8967 7.58673L11.8878 7.57796C11.8165 7.42009 11.7542 7.27104 11.6918 7.122C11.5136 6.71866 11.3621 6.32409 11.2196 5.95585C11.1662 5.79803 11.1127 5.65777 11.0681 5.50867C10.9167 5.1141 10.8008 4.73714 10.7118 4.36884C10.6583 4.22858 10.6227 4.07076 10.587 3.93045C10.489 3.53593 10.4088 3.17647 10.3554 2.82567C10.3287 2.67663 10.3108 2.53637 10.293 2.3961C10.2396 1.99276 10.2218 1.62452 10.2218 1.29133C10.2217 1.13351 10.2306 0.984416 10.2396 0.852875C10.2485 0.686335 10.2574 0.53724 10.2752 0.396976C10.4267 0.405752 10.5692 0.423252 10.7118 0.440805ZM9.25063 0.300488C9.20609 0.467081 9.17934 0.633729 9.15258 0.817822C9.1348 0.958086 9.12588 1.10718 9.11702 1.25622C9.09026 1.58063 9.09918 1.94015 9.14372 2.35227C9.1615 2.49254 9.17047 2.64158 9.18825 2.79939C9.24176 3.13258 9.30408 3.4921 9.40207 3.88662C9.42882 4.03571 9.46444 4.17598 9.50898 4.32502C9.59805 4.67576 9.71393 5.05277 9.85646 5.45612C9.89207 5.59638 9.95445 5.74542 10.008 5.88574C10.1237 6.24521 10.2752 6.62222 10.4355 7.00802C10.498 7.15711 10.5603 7.30615 10.6316 7.46397C10.6672 7.55163 10.7028 7.62179 10.7385 7.70944C10.881 8.02513 11.0147 8.33199 11.1305 8.62135C11.2017 8.77917 11.2641 8.92826 11.3176 9.08608C11.4868 9.49815 11.6383 9.89266 11.7631 10.2785C11.8254 10.4276 11.8789 10.5854 11.9234 10.7344C12.066 11.1553 12.1818 11.5674 12.2887 11.9357C12.3244 12.0934 12.36 12.2513 12.3957 12.3916C12.5026 12.8124 12.5739 13.2158 12.6362 13.5928C12.654 13.7506 12.6807 13.8996 12.6896 14.0663C12.7431 14.4871 12.7698 14.8817 12.7698 15.2499C12.7698 15.4078 12.7698 15.5481 12.752 15.6883C12.7342 16.1267 12.6808 16.495 12.5916 16.8282C12.5738 16.8983 12.5649 16.9597 12.5382 17.021C12.4313 17.0737 12.3154 17.1175 12.1996 17.1614C12.1372 17.1876 12.0749 17.214 12.0036 17.2315C12.0125 17.1876 12.0215 17.1614 12.0393 17.1263C12.0838 16.9948 12.1195 16.8545 12.155 16.7142C12.2352 16.3723 12.2887 16.004 12.2977 15.5744C12.3154 15.4341 12.3244 15.285 12.3065 15.1272C12.3154 14.7677 12.2798 14.3819 12.2352 13.9523C12.2174 13.812 12.1907 13.6629 12.164 13.4963C12.1016 13.1369 12.0125 12.7335 11.9056 12.3127C11.8788 12.1636 11.8432 12.0058 11.7898 11.848C11.6918 11.4709 11.576 11.0764 11.4245 10.6643C11.38 10.5152 11.3265 10.3574 11.2641 10.2084C11.1394 9.8225 10.9879 9.44554 10.8187 9.03347C10.7563 8.88438 10.7028 8.72656 10.6226 8.57747C10.5336 8.34949 10.4444 8.12157 10.3375 7.89359C10.2663 7.73577 10.195 7.5779 10.1326 7.42886C10.0703 7.27982 10.0079 7.13078 9.95445 6.99052C9.79408 6.60472 9.65156 6.21893 9.52681 5.86819C9.48228 5.71915 9.41991 5.57011 9.37531 5.43857C9.25063 5.03522 9.14366 4.66698 9.05459 4.31624C9.01006 4.1672 8.98336 4.01816 8.94768 3.87784C8.84969 3.48332 8.79624 3.11508 8.74279 2.78184C8.725 2.62402 8.71603 2.47498 8.68933 2.3435C8.66263 1.93137 8.65371 1.57186 8.6715 1.23872C8.6715 1.08085 8.68933 0.94064 8.70717 0.800322C8.73387 0.616176 8.76057 0.449582 8.78732 0.300488C8.93877 0.291765 9.09918 0.291765 9.25063 0.300488ZM7.28164 0.467081C7.442 0.432029 7.59344 0.405752 7.75386 0.388199C7.71819 0.493411 7.69149 0.607453 7.66479 0.721387C7.63804 0.852928 7.61133 1.00197 7.59344 1.15979C7.54896 1.4842 7.54004 1.84371 7.55788 2.26456C7.55783 2.40482 7.56674 2.55392 7.58458 2.71168C7.62912 3.0537 7.68257 3.42194 7.75386 3.82529C7.78948 3.96555 7.81618 4.11459 7.85185 4.27246C7.94098 4.62315 8.04783 4.99139 8.17263 5.39474C8.21716 5.54378 8.2617 5.69282 8.32402 5.84191C8.4399 6.20138 8.57351 6.56084 8.73387 6.94663C8.78738 7.08695 8.84969 7.23605 8.91207 7.38509C8.99222 7.58673 9.09026 7.80588 9.18825 8.02508C9.25949 8.18295 9.33078 8.34077 9.39315 8.50736C9.45552 8.6564 9.52681 8.79667 9.58027 8.93704C9.74063 9.34028 9.89213 9.71735 10.0168 10.0856C10.0792 10.2346 10.1326 10.3749 10.1772 10.524C10.3198 10.9273 10.4534 11.3219 10.5603 11.6901C10.6138 11.848 10.6494 12.0058 10.685 12.146C10.8009 12.5582 10.8899 12.944 10.9612 13.2946C10.9969 13.4525 11.0147 13.6103 11.0503 13.7506C11.1216 14.1715 11.1572 14.5572 11.184 14.9168C11.1929 15.0658 11.2107 15.2061 11.2106 15.3464C11.2285 15.7672 11.2018 16.1618 11.1572 16.5038C11.1394 16.644 11.1216 16.7843 11.0949 16.9158C11.0503 17.1351 10.9968 17.3455 10.9345 17.5296C10.7652 17.5734 10.587 17.6085 10.4088 17.6261C10.4979 17.3981 10.5781 17.1439 10.6316 16.8457C10.6583 16.7142 10.6939 16.5739 10.7029 16.4248C10.7474 16.0829 10.7741 15.7059 10.7563 15.285C10.7563 15.1447 10.7474 14.9957 10.7296 14.8378C10.7118 14.4871 10.6583 14.1013 10.587 13.698C10.5603 13.549 10.5336 13.3999 10.4979 13.2421C10.4267 12.8738 10.3286 12.4968 10.2128 12.0847C10.1772 11.9444 10.1327 11.7954 10.0881 11.6463C9.9812 11.2781 9.84754 10.8835 9.69609 10.4889C9.65156 10.3398 9.5981 10.1996 9.55357 10.0505C9.40207 9.69102 9.25063 9.314 9.08135 8.91943C9.02789 8.77917 8.96552 8.63013 8.89428 8.48981C8.86753 8.39337 8.82294 8.29694 8.7784 8.20045C8.65366 7.91992 8.52897 7.63934 8.42206 7.37626C8.35969 7.22722 8.30624 7.08695 8.2617 6.93791C8.10134 6.55212 7.96768 6.1926 7.86071 5.82436C7.7984 5.67527 7.75386 5.52623 7.70932 5.37718C7.58458 4.97389 7.48659 4.59682 7.40638 4.23736C7.36185 4.08832 7.33509 3.93922 7.30839 3.79018C7.2371 3.38684 7.18365 3.01859 7.14803 2.66791C7.13019 2.51004 7.12133 2.361 7.11236 2.22951C7.10349 1.79983 7.12128 1.43159 7.16587 1.10718C7.18365 0.949363 7.20148 0.809045 7.22818 0.677558C7.24602 0.607453 7.25494 0.528464 7.28164 0.467081ZM6.17689 0.76527C6.15905 0.817822 6.15019 0.879204 6.13235 0.94931C6.05214 1.25622 5.99869 1.64202 5.98977 2.07164C5.98977 2.21195 5.98983 2.35222 5.99869 2.50126C6.00761 2.86078 6.05214 3.25535 6.12343 3.67625C6.14127 3.81646 6.16802 3.96555 6.21256 4.11459C6.27488 4.47411 6.37287 4.86863 6.48875 5.28075C6.53328 5.42979 6.57782 5.57883 6.63127 5.73665C6.73818 6.10494 6.87179 6.48196 7.03221 6.88525C7.0856 7.02557 7.13911 7.16589 7.19257 7.3237C7.32623 7.64812 7.47767 7.99003 7.62912 8.34949C7.64695 8.3846 7.65587 8.41093 7.67365 8.44598C7.73602 8.59502 7.7984 8.74406 7.85185 8.88443C8.02999 9.27017 8.18149 9.64724 8.32402 9.99793C8.37747 10.1557 8.43093 10.296 8.48443 10.4363C8.63588 10.8309 8.76057 11.1991 8.86753 11.5674C8.92098 11.7076 8.96552 11.8567 9.00119 11.997C9.11696 12.3916 9.22393 12.7598 9.30408 13.1193C9.3397 13.2771 9.36645 13.4262 9.40207 13.5665C9.49114 13.9698 9.55351 14.3468 9.58919 14.6976C9.59805 14.8466 9.6248 14.9957 9.62486 15.136C9.66934 15.548 9.66934 15.9339 9.65156 16.2846C9.64264 16.4337 9.63372 16.5826 9.6248 16.7142C9.57135 17.0824 9.5179 17.4157 9.42882 17.7137C9.27733 17.7401 9.11696 17.74 8.93882 17.74C9.03681 17.4332 9.11696 17.0736 9.17047 16.6528C9.17934 16.5213 9.19717 16.381 9.18831 16.232C9.21495 15.89 9.20609 15.513 9.17934 15.1009C9.1615 14.9606 9.15264 14.8115 9.12588 14.6625C9.09026 14.3118 9.02789 13.9347 8.93877 13.5314C8.90315 13.3911 8.87645 13.2421 8.83186 13.093C8.7517 12.7335 8.65371 12.3565 8.52897 11.9707C8.49335 11.8304 8.44882 11.6814 8.39531 11.541C8.27954 11.1816 8.15474 10.8133 8.01221 10.4276C7.95876 10.2873 7.90536 10.147 7.85185 9.9891C7.70933 9.63841 7.55788 9.26139 7.37968 8.8756C7.32617 8.75284 7.28164 8.6389 7.22824 8.51614C7.21932 8.48981 7.20143 8.45475 7.19257 8.42848C7.01437 8.04268 6.85401 7.65689 6.72035 7.29737C6.65797 7.14833 6.60452 6.99052 6.5422 6.84142C6.3907 6.42935 6.2571 6.05234 6.15905 5.67532C6.10565 5.535 6.06112 5.38596 6.02544 5.22809C5.9007 4.80724 5.81163 4.4215 5.74034 4.05326C5.70466 3.89539 5.68688 3.73758 5.66013 3.60603C5.59781 3.17641 5.57106 2.7819 5.55322 2.43115C5.55328 2.27334 5.55328 2.13302 5.55322 1.99276C5.57106 1.58946 5.61559 1.24744 5.68688 0.931864C5.68688 0.914311 5.68688 0.896757 5.6958 0.870428C5.72255 0.879204 5.76704 0.887981 5.80271 0.887981C5.91848 0.844152 6.05214 0.800269 6.17689 0.76527ZM4.52868 1.51053C4.51084 1.58063 4.50198 1.65957 4.49301 1.7385C4.47522 1.87877 4.46631 2.01031 4.45739 2.17685C4.43063 2.51881 4.43961 2.91338 4.48409 3.36056C4.49306 3.5096 4.51976 3.65864 4.5376 3.81651C4.59105 4.18475 4.6712 4.57927 4.76919 5.02644C4.81378 5.17554 4.85832 5.32458 4.90286 5.49117C5.00982 5.87697 5.13451 6.28031 5.29487 6.7011C5.34832 6.85903 5.39286 7.00807 5.46415 7.16589C5.59776 7.5429 5.75817 7.92864 5.93637 8.34954C5.98085 8.44598 6.02544 8.55997 6.06998 8.65646C6.09673 8.70023 6.11451 8.75284 6.13235 8.78794C6.31055 9.19129 6.47091 9.57708 6.61344 9.94532C6.67581 10.0944 6.73818 10.2434 6.79163 10.3837C6.94308 10.7782 7.07674 11.1553 7.20143 11.506C7.24602 11.6551 7.29947 11.7954 7.33509 11.9356C7.45984 12.3215 7.56674 12.6897 7.65582 13.0404C7.69149 13.1983 7.73602 13.3473 7.77164 13.4876C7.85185 13.8821 7.92314 14.2504 7.97659 14.6011C8.00335 14.7502 8.02113 14.8904 8.03897 15.0307C8.09242 15.4341 8.1102 15.8023 8.1102 16.1531C8.11026 16.2933 8.10128 16.4424 8.09237 16.5739C8.0835 16.986 8.03897 17.3455 7.94989 17.6611C7.7984 17.6524 7.63803 17.6349 7.50437 17.591C7.57566 17.2928 7.6202 16.9509 7.63803 16.5476C7.64695 16.4161 7.65587 16.267 7.6469 16.118C7.6469 15.7848 7.62912 15.4165 7.57566 15.0132C7.55788 14.8729 7.54004 14.7326 7.51335 14.5836C7.46875 14.2416 7.39746 13.8734 7.29947 13.4788C7.27272 13.3298 7.2371 13.1895 7.19257 13.0404C7.10349 12.6897 6.99653 12.3039 6.86292 11.9269C6.82725 11.769 6.7738 11.6288 6.72035 11.4885C6.60452 11.129 6.47091 10.752 6.31947 10.3574C6.26601 10.2171 6.20364 10.0681 6.14122 9.91899C5.99869 9.56831 5.84724 9.20884 5.67802 8.83177C5.66013 8.79672 5.64235 8.76167 5.63343 8.73534C5.57106 8.5863 5.50868 8.43726 5.44637 8.28816C5.26811 7.86731 5.10775 7.46397 4.95631 7.08695C4.90286 6.92913 4.8494 6.77132 4.80487 6.62228C4.80487 6.62228 4.80487 6.62228 4.79595 6.6135C4.6445 6.18382 4.51976 5.78053 4.42177 5.40346C4.37718 5.23692 4.33264 5.07033 4.29703 4.91251C4.19012 4.47411 4.11883 4.07076 4.07429 3.69375C4.05646 3.53588 4.03862 3.37811 4.02078 3.23779C3.98522 2.79939 3.98517 2.39605 4.00306 2.04536C4.01192 1.96643 4.02084 1.88754 4.0297 1.80861C4.10099 1.756 4.17228 1.72095 4.24357 1.66834C4.33264 1.61569 4.43063 1.55436 4.52868 1.51053ZM2.88933 2.73801C2.88041 2.74679 2.88041 2.7819 2.88047 2.81695C2.88041 2.97477 2.88047 3.13258 2.89825 3.2904C2.91603 3.67619 2.96062 4.08826 3.04969 4.54422C3.07645 4.71086 3.11207 4.86868 3.15666 5.03522C3.24567 5.43857 3.3615 5.86819 3.50408 6.32414C3.54862 6.49074 3.61099 6.65733 3.66444 6.8327C3.7981 7.22722 3.95847 7.64812 4.13666 8.08646C4.2079 8.24433 4.27027 8.41093 4.34156 8.56874C4.40393 8.70023 4.45739 8.84049 4.51976 8.97209C4.6445 9.25262 4.76027 9.52442 4.86724 9.78745C4.92956 9.93655 4.99193 10.0856 5.0543 10.2346L5.06322 10.2434C5.22358 10.6468 5.36611 11.0325 5.4909 11.4183C5.54436 11.5586 5.59781 11.7164 5.64235 11.8655C5.78487 12.2513 5.89178 12.6371 5.99874 12.9878C6.03436 13.1456 6.0789 13.2946 6.10565 13.4437C6.2125 13.8295 6.29271 14.2066 6.35508 14.5485C6.38184 14.6976 6.39962 14.8378 6.41746 14.9781C6.47983 15.3727 6.51545 15.7409 6.52437 16.0829C6.53323 16.232 6.5422 16.381 6.5422 16.5213C6.55112 16.8282 6.53323 17.1088 6.49761 17.3718C6.35509 17.3367 6.21256 17.2841 6.06111 17.2227C6.07884 16.9948 6.08782 16.7581 6.09673 16.5038C6.09668 16.3635 6.09668 16.2232 6.08782 16.0741C6.06998 15.7409 6.03436 15.3727 5.98091 14.9694C5.95415 14.8378 5.93637 14.68 5.89184 14.531C5.83833 14.1802 5.75812 13.8032 5.65127 13.4174C5.61565 13.2771 5.57106 13.1281 5.53544 12.9702C5.43739 12.6108 5.31271 12.225 5.17013 11.8217C5.12559 11.6726 5.06327 11.5235 5.00976 11.3657C4.8761 10.9887 4.71574 10.5854 4.54646 10.1732C4.48409 10.0242 4.42172 9.85761 4.34162 9.70857C4.27919 9.52448 4.19006 9.33155 4.10991 9.14746C4.01192 8.91071 3.90501 8.68273 3.81594 8.45475C3.74465 8.29694 3.67336 8.13912 3.61991 7.9813C3.44176 7.52535 3.29026 7.09573 3.15666 6.68361C3.09428 6.51701 3.04078 6.34169 2.99624 6.1751C2.86258 5.71037 2.74675 5.28075 2.6666 4.86868C2.62206 4.68453 2.59536 4.51794 2.56861 4.35129C2.50624 3.92172 2.47062 3.53593 2.44386 3.19396C2.45278 3.15008 2.44386 3.12386 2.44386 3.08875C2.47062 3.09753 2.4884 3.11503 2.51515 3.12381C2.58639 3.0186 2.67552 2.93088 2.76459 2.84322L2.81804 2.79062C2.83588 2.77307 2.86258 2.74679 2.88933 2.73801ZM1.4371 4.51794C1.49056 4.85107 1.56185 5.20187 1.65984 5.59638C1.70437 5.78053 1.74896 5.96462 1.81133 6.16632C1.93602 6.60467 2.08752 7.0694 2.27464 7.56918C2.33696 7.75327 2.40825 7.92864 2.47954 8.10401C2.62206 8.48981 2.78242 8.8756 2.96954 9.28772C2.98732 9.34033 3.01402 9.38416 3.03191 9.43676C3.11212 9.60336 3.18336 9.77868 3.25459 9.93655C3.43284 10.3749 3.61099 10.7958 3.76243 11.1904C3.8248 11.357 3.86934 11.506 3.93171 11.655C4.07429 12.0759 4.20795 12.4705 4.31481 12.8563C4.36826 13.0141 4.4128 13.1632 4.44847 13.3035C4.55538 13.7068 4.65342 14.0838 4.72466 14.4521C4.76028 14.6099 4.78703 14.7589 4.80487 14.8992C4.88507 15.2938 4.92961 15.6708 4.95631 16.0303C4.97415 16.1706 4.98301 16.3196 4.98301 16.4599C4.99193 16.5564 4.99193 16.6616 4.99193 16.7668C4.83157 16.6966 4.68012 16.6177 4.52868 16.5213C4.52868 16.4862 4.53754 16.4599 4.52868 16.4337C4.51976 16.2846 4.51084 16.1355 4.50192 15.9865C4.47517 15.627 4.42172 15.2587 4.35048 14.8554C4.32373 14.7063 4.29703 14.5748 4.27027 14.4082C4.19006 14.0487 4.09213 13.6542 3.95847 13.2421C3.93171 13.093 3.88718 12.944 3.83372 12.7861C3.70903 12.4003 3.57537 11.9883 3.41501 11.5674C3.36155 11.4096 3.3081 11.2517 3.24573 11.0852C3.08537 10.6818 2.90717 10.2435 2.70222 9.79623C2.65768 9.68229 2.60423 9.57703 2.55969 9.4631C2.53299 9.40171 2.51515 9.34905 2.4884 9.28772C2.27458 8.79666 2.07855 8.34077 1.91824 7.90237C1.84695 7.70944 1.78458 7.5253 1.72221 7.34126C1.53509 6.82392 1.39257 6.33292 1.28566 5.87697C1.22329 5.67527 1.16983 5.4649 1.13421 5.27197C1.11638 5.21931 1.11638 5.16676 1.10746 5.12288C1.19659 4.91251 1.31236 4.71081 1.4371 4.51794ZM0.403586 7.02557C0.412504 7.03435 0.421422 7.04312 0.430395 7.0694C0.581839 7.56918 0.777818 8.09524 1.00947 8.67395C1.09854 8.86682 1.17875 9.08608 1.28566 9.2965C1.32128 9.40166 1.36581 9.49815 1.4104 9.59458C1.57968 9.98915 1.74896 10.3662 1.89149 10.7344C1.96278 10.9098 2.03407 11.0852 2.09644 11.2517C2.26567 11.6989 2.42608 12.1198 2.55077 12.5407C2.61314 12.7073 2.6666 12.8651 2.72005 13.0229C2.85371 13.4525 2.96062 13.8558 3.04969 14.2417C3.08537 14.3994 3.1299 14.5485 3.15666 14.6976C3.22789 15.0483 3.29026 15.3727 3.32588 15.6883C3.14774 15.548 2.96954 15.3902 2.80026 15.2236C2.77351 15.022 2.72897 14.8203 2.67552 14.6099C2.64876 14.4608 2.61314 14.303 2.56861 14.1539C2.47056 13.7594 2.36366 13.3385 2.21221 12.9089C2.16768 12.7423 2.11422 12.5844 2.05185 12.4178C1.91824 11.9883 1.74896 11.541 1.56185 11.0764C1.48164 10.8922 1.4104 10.6994 1.32128 10.5064C1.22329 10.2697 1.11638 10.0243 1.00947 9.77873C0.893645 9.50687 0.777819 9.25267 0.670911 8.98959C0.661993 8.98081 0.661993 8.98081 0.661993 8.98081C0.564003 8.74406 0.474877 8.51614 0.394723 8.27938C0.332351 8.1479 0.287761 8.01636 0.252197 7.87604C0.278897 7.58668 0.323433 7.31487 0.403641 7.04307C0.403641 7.04307 0.403641 7.04307 0.403586 7.02557Z" fill="#CCD0D2"/>
</svg>
