<svg width="33" height="33" viewBox="0 0 33 33" fill="none" xmlns="http://www.w3.org/2000/svg">
<path d="M32.4408 28.3309L31.6295 27.5324L27.843 31.2588L28.6543 32.0573C28.9648 32.3629 29.4682 32.3629 29.7786 32.0573L32.4408 29.4374C32.7513 29.1319 32.7513 28.6365 32.4408 28.3309ZM15.2911 2.85197L15.3446 2.90457C15.7188 3.27287 16.0573 3.67621 16.3425 4.09706C18.7034 7.49026 18.3649 12.1548 15.2911 15.1798C12.2174 18.2048 7.44201 18.538 3.99409 16.1793C3.56646 15.8988 3.16553 15.5743 2.79135 15.2061L2.7646 15.1798C-0.701104 11.769 -0.701158 6.24522 2.75568 2.84324C6.22143 -0.567516 11.8255 -0.55874 15.2911 2.85197Z" fill="#2B414D"/>
</svg>
